<svg width="19" height="18" viewBox="0 0 19 18" fill="none" xmlns="http://www.w3.org/2000/svg">
<path d="M7.44037 12.9697C7.14748 13.2626 7.14748 13.7374 7.44037 14.0303C7.73327 14.3232 8.20814 14.3232 8.50103 14.0303L7.44037 12.9697ZM12.4707 9L13.001 9.53033C13.1417 9.38968 13.2207 9.19891 13.2207 9C13.2207 8.80109 13.1417 8.61032 13.001 8.46967L12.4707 9ZM8.50103 3.96967C8.20814 3.67678 7.73327 3.67678 7.44037 3.96967C7.14748 4.26256 7.14748 4.73744 7.44037 5.03033L8.50103 3.96967ZM8.50103 14.0303L13.001 9.53033L11.9404 8.46967L7.44037 12.9697L8.50103 14.0303ZM13.001 8.46967L8.50103 3.96967L7.44037 5.03033L11.9404 9.53033L13.001 8.46967Z" fill="#919BA3"/>
</svg>
