<svg width="96" height="96" viewBox="0 0 96 96" fill="none" xmlns="http://www.w3.org/2000/svg">
<g clip-path="url(#clip0_557_6963)">
<path d="M48.0828 30.144H47.9167C47.6876 30.144 47.4678 30.053 47.3058 29.891C47.1438 29.7289 47.0527 29.5092 47.0527 29.28C47.0527 29.0509 47.1438 28.8311 47.3058 28.6691C47.4678 28.507 47.6876 28.416 47.9167 28.416H48.0828C48.312 28.416 48.5317 28.507 48.6938 28.6691C48.8558 28.8311 48.9468 29.0509 48.9468 29.28C48.9468 29.5092 48.8558 29.7289 48.6938 29.891C48.5317 30.053 48.312 30.144 48.0828 30.144Z" fill="#232C34"/>
<path d="M41.5379 30.864H23.2019C22.9727 30.864 22.753 30.773 22.591 30.6109C22.4289 30.4489 22.3379 30.2291 22.3379 30C22.3379 29.7708 22.4289 29.5511 22.591 29.389C22.753 29.227 22.9727 29.136 23.2019 29.136H41.5379C41.767 29.136 41.9868 29.227 42.1488 29.389C42.3109 29.5511 42.4019 29.7708 42.4019 30C42.4019 30.2291 42.3109 30.4489 42.1488 30.6109C41.9868 30.773 41.767 30.864 41.5379 30.864Z" fill="#232C34"/>
<path d="M72.7566 30.864H54.4206C54.1915 30.864 53.9717 30.773 53.8097 30.6109C53.6477 30.4489 53.5566 30.2291 53.5566 30C53.5566 29.7708 53.6477 29.5511 53.8097 29.389C53.9717 29.227 54.1915 29.136 54.4206 29.136H72.7566C72.9858 29.136 73.2055 29.227 73.3676 29.389C73.5296 29.5511 73.6206 29.7708 73.6206 30C73.6206 30.2291 73.5296 30.4489 73.3676 30.6109C73.2055 30.773 72.9858 30.864 72.7566 30.864Z" fill="#232C34"/>
<path d="M47.9998 73.4011C47.3244 73.4013 46.6569 73.2559 46.0427 72.9748C45.4285 72.6938 44.8821 72.2837 44.4406 71.7725L41.6619 68.5565C41.6537 68.5474 41.6461 68.5378 41.6384 68.5282C41.5837 68.4578 41.5135 68.401 41.4332 68.3622C41.3529 68.3234 41.2648 68.3036 41.1757 68.3045H12.2878C12.0587 68.3045 11.8389 68.2135 11.6769 68.0514C11.5149 67.8894 11.4238 67.6696 11.4238 67.4405V29.28C11.4238 29.0509 11.5149 28.8311 11.6769 28.6691C11.8389 28.507 12.0587 28.416 12.2878 28.416H16.6558C16.885 28.416 17.1047 28.507 17.2668 28.6691C17.4288 28.8311 17.5198 29.0509 17.5198 29.28C17.5198 29.5092 17.4288 29.7289 17.2668 29.891C17.1047 30.053 16.885 30.144 16.6558 30.144H13.1518V66.576H41.1757C41.5221 66.5751 41.8643 66.6523 42.1768 66.8019C42.4892 66.9515 42.7639 67.1696 42.9805 67.44L45.7481 70.6431C46.0275 70.9663 46.3732 71.2257 46.7618 71.4034C47.1503 71.5812 47.5726 71.6732 47.9998 71.6732C48.4271 71.6732 48.8493 71.5812 49.2379 71.4034C49.6264 71.2257 49.9721 70.9663 50.2515 70.6431L53.0197 67.4395C53.2361 67.1692 53.5108 66.9511 53.8232 66.8015C54.1355 66.6519 54.4776 66.5747 54.824 66.5755H82.8478V30.144H79.3438C79.1147 30.144 78.8949 30.053 78.7329 29.891C78.5709 29.7289 78.4798 29.5092 78.4798 29.28C78.4798 29.0509 78.5709 28.8311 78.7329 28.6691C78.8949 28.507 79.1147 28.416 79.3438 28.416H83.7118C83.941 28.416 84.1607 28.507 84.3228 28.6691C84.4848 28.8311 84.5758 29.0509 84.5758 29.28V67.44C84.5758 67.6692 84.4848 67.8889 84.3228 68.051C84.1607 68.213 83.941 68.304 83.7118 68.304H54.824C54.7348 68.3032 54.6467 68.3229 54.5664 68.3617C54.4862 68.4005 54.416 68.4573 54.3613 68.5277C54.3536 68.5373 54.3459 68.5469 54.3377 68.556L51.559 71.772C51.1176 72.2833 50.5712 72.6935 49.957 72.9746C49.3429 73.2558 48.6753 73.4012 47.9998 73.4011Z" fill="#232C34"/>
<path d="M48 68.99C47.8699 68.99 47.7414 68.9606 47.6242 68.904C47.507 68.8474 47.4041 68.765 47.3232 68.6631L45.061 65.8133C44.5979 65.2266 44.0075 64.7528 43.3344 64.4277C42.6614 64.1026 41.9233 63.9346 41.1758 63.9365H16.656C16.4268 63.9365 16.2071 63.8455 16.0451 63.6835C15.883 63.5215 15.792 63.3017 15.792 63.0725V23.4629C15.792 23.2338 15.883 23.014 16.0451 22.852C16.2071 22.69 16.4268 22.5989 16.656 22.5989H41.1115C42.5342 22.6 43.9292 22.9921 45.144 23.7324C46.3589 24.4726 47.3469 25.5327 48 26.7965C48.6531 25.5327 49.6411 24.4726 50.856 23.7324C52.0708 22.9921 53.4658 22.6 54.8885 22.5989H79.344C79.5731 22.5989 79.7929 22.69 79.9549 22.852C80.117 23.014 80.208 23.2338 80.208 23.4629V63.0721C80.208 63.3012 80.117 63.521 79.9549 63.683C79.7929 63.845 79.5731 63.9361 79.344 63.9361H54.8242C54.0762 63.9338 53.3376 64.1016 52.664 64.4267C51.9905 64.7519 51.3996 65.2258 50.9362 65.8129L48.6744 68.6626C48.5938 68.7643 48.4913 68.8466 48.3745 68.9033C48.2578 68.9599 48.1298 68.9896 48 68.99ZM17.52 62.2081H41.1758C42.184 62.2052 43.1796 62.4316 44.0874 62.8701C44.9952 63.3086 45.7915 63.9477 46.416 64.7391L48 66.7364L49.584 64.7391C50.2085 63.9477 51.0048 63.3086 51.9126 62.8701C52.8204 62.4316 53.816 62.2052 54.8242 62.2081H78.48V24.3269H54.8885C53.2912 24.3287 51.7599 24.964 50.6305 26.0934C49.5011 27.2229 48.8658 28.7542 48.864 30.3514V63.0721C48.864 63.3012 48.773 63.521 48.6109 63.683C48.4489 63.845 48.2291 63.9361 48 63.9361C47.7708 63.9361 47.5511 63.845 47.3891 63.683C47.227 63.521 47.136 63.3012 47.136 63.0721V30.3514C47.1342 28.7542 46.4989 27.2229 45.3695 26.0934C44.2401 24.964 42.7088 24.3287 41.1115 24.3269H17.52V62.2081Z" fill="#232C34"/>
<path d="M47.9997 68.9899C47.7706 68.9899 47.5508 68.8988 47.3888 68.7368C47.2268 68.5748 47.1357 68.355 47.1357 68.1259V62.1316C47.1357 61.9025 47.2268 61.6827 47.3888 61.5207C47.5508 61.3587 47.7706 61.2676 47.9997 61.2676C48.2289 61.2676 48.4487 61.3587 48.6107 61.5207C48.7727 61.6827 48.8637 61.9025 48.8637 62.1316V68.1259C48.8637 68.355 48.7727 68.5748 48.6107 68.7368C48.4487 68.8988 48.2289 68.9899 47.9997 68.9899Z" fill="#232C34"/>
<path d="M48 68.99C47.8699 68.99 47.7414 68.9606 47.6242 68.904C47.507 68.8474 47.4041 68.765 47.3232 68.6631L45.061 65.8133C44.5979 65.2266 44.0075 64.7528 43.3344 64.4277C42.6614 64.1026 41.9233 63.9346 41.1758 63.9365H16.656C16.4268 63.9365 16.2071 63.8455 16.0451 63.6835C15.883 63.5215 15.792 63.3017 15.792 63.0725V23.4629C15.792 23.2338 15.883 23.014 16.0451 22.852C16.2071 22.69 16.4268 22.5989 16.656 22.5989H41.1115C42.5342 22.6 43.9292 22.9921 45.144 23.7324C46.3589 24.4726 47.3469 25.5327 48 26.7965C48.6531 25.5327 49.6411 24.4726 50.856 23.7324C52.0708 22.9921 53.4658 22.6 54.8885 22.5989H79.344C79.5731 22.5989 79.7929 22.69 79.9549 22.852C80.117 23.014 80.208 23.2338 80.208 23.4629V63.0721C80.208 63.3012 80.117 63.521 79.9549 63.683C79.7929 63.845 79.5731 63.9361 79.344 63.9361H54.8242C54.0762 63.9338 53.3376 64.1016 52.664 64.4267C51.9905 64.7519 51.3996 65.2258 50.9362 65.8129L48.6744 68.6626C48.5938 68.7643 48.4913 68.8466 48.3745 68.9033C48.2578 68.9599 48.1298 68.9896 48 68.99ZM17.52 62.2081H41.1758C42.184 62.2052 43.1796 62.4316 44.0874 62.8701C44.9952 63.3086 45.7915 63.9477 46.416 64.7391L48 66.7364L49.584 64.7391C50.2085 63.9477 51.0048 63.3086 51.9126 62.8701C52.8204 62.4316 53.816 62.2052 54.8242 62.2081H78.48V24.3269H54.8885C53.2912 24.3287 51.7599 24.964 50.6305 26.0934C49.5011 27.2229 48.8658 28.7542 48.864 30.3514V63.0721C48.864 63.3012 48.773 63.521 48.6109 63.683C48.4489 63.845 48.2291 63.9361 48 63.9361C47.7708 63.9361 47.5511 63.845 47.3891 63.683C47.227 63.521 47.136 63.3012 47.136 63.0721V30.3514C47.1342 28.7542 46.4989 27.2229 45.3695 26.0934C44.2401 24.964 42.7088 24.3287 41.1115 24.3269H17.52V62.2081Z" fill="#232C34"/>
<path d="M47.9997 68.9899C47.7706 68.9899 47.5508 68.8988 47.3888 68.7368C47.2268 68.5748 47.1357 68.355 47.1357 68.1259V62.1316C47.1357 61.9025 47.2268 61.6827 47.3888 61.5207C47.5508 61.3587 47.7706 61.2676 47.9997 61.2676C48.2289 61.2676 48.4487 61.3587 48.6107 61.5207C48.7727 61.6827 48.8637 61.9025 48.8637 62.1316V68.1259C48.8637 68.355 48.7727 68.5748 48.6107 68.7368C48.4487 68.8988 48.2289 68.9899 47.9997 68.9899Z" fill="#232C34"/>
<path d="M41.5379 36.1699H23.2019C22.9727 36.1699 22.753 36.0789 22.591 35.9168C22.4289 35.7548 22.3379 35.535 22.3379 35.3059C22.3379 35.0767 22.4289 34.857 22.591 34.695C22.753 34.5329 22.9727 34.4419 23.2019 34.4419H41.5379C41.767 34.4419 41.9868 34.5329 42.1488 34.695C42.3109 34.857 42.4019 35.0767 42.4019 35.3059C42.4019 35.535 42.3109 35.7548 42.1488 35.9168C41.9868 36.0789 41.767 36.1699 41.5379 36.1699Z" fill="#232C34"/>
<path d="M41.5379 41.4778H23.2019C22.9727 41.4778 22.753 41.3868 22.591 41.2248C22.4289 41.0627 22.3379 40.843 22.3379 40.6138C22.3379 40.3847 22.4289 40.1649 22.591 40.0029C22.753 39.8408 22.9727 39.7498 23.2019 39.7498H41.5379C41.767 39.7498 41.9868 39.8408 42.1488 40.0029C42.3109 40.1649 42.4019 40.3847 42.4019 40.6138C42.4019 40.843 42.3109 41.0627 42.1488 41.2248C41.9868 41.3868 41.767 41.4778 41.5379 41.4778Z" fill="#232C34"/>
<path d="M41.5379 46.7856H23.2019C22.9727 46.7856 22.753 46.6945 22.591 46.5325C22.4289 46.3705 22.3379 46.1507 22.3379 45.9216C22.3379 45.6924 22.4289 45.4726 22.591 45.3106C22.753 45.1486 22.9727 45.0576 23.2019 45.0576H41.5379C41.767 45.0576 41.9868 45.1486 42.1488 45.3106C42.3109 45.4726 42.4019 45.6924 42.4019 45.9216C42.4019 46.1507 42.3109 46.3705 42.1488 46.5325C41.9868 46.6945 41.767 46.7856 41.5379 46.7856Z" fill="#232C34"/>
<path d="M41.5379 52.0935H23.2019C22.9727 52.0935 22.753 52.0025 22.591 51.8405C22.4289 51.6784 22.3379 51.4587 22.3379 51.2295C22.3379 51.0004 22.4289 50.7806 22.591 50.6186C22.753 50.4566 22.9727 50.3655 23.2019 50.3655H41.5379C41.767 50.3655 41.9868 50.4566 42.1488 50.6186C42.3109 50.7806 42.4019 51.0004 42.4019 51.2295C42.4019 51.4587 42.3109 51.6784 42.1488 51.8405C41.9868 52.0025 41.767 52.0935 41.5379 52.0935Z" fill="#232C34"/>
<path d="M41.5379 57.4013H23.2019C22.9727 57.4013 22.753 57.3102 22.591 57.1482C22.4289 56.9862 22.3379 56.7664 22.3379 56.5373C22.3379 56.3081 22.4289 56.0884 22.591 55.9263C22.753 55.7643 22.9727 55.6733 23.2019 55.6733H41.5379C41.767 55.6733 41.9868 55.7643 42.1488 55.9263C42.3109 56.0884 42.4019 56.3081 42.4019 56.5373C42.4019 56.7664 42.3109 56.9862 42.1488 57.1482C41.9868 57.3102 41.767 57.4013 41.5379 57.4013Z" fill="#232C34"/>
<path d="M72.7566 36.1699H54.4206C54.1915 36.1699 53.9717 36.0789 53.8097 35.9168C53.6477 35.7548 53.5566 35.535 53.5566 35.3059C53.5566 35.0767 53.6477 34.857 53.8097 34.695C53.9717 34.5329 54.1915 34.4419 54.4206 34.4419H72.7566C72.9858 34.4419 73.2055 34.5329 73.3676 34.695C73.5296 34.857 73.6206 35.0767 73.6206 35.3059C73.6206 35.535 73.5296 35.7548 73.3676 35.9168C73.2055 36.0789 72.9858 36.1699 72.7566 36.1699Z" fill="#232C34"/>
<path d="M72.7566 41.4778H54.4206C54.1915 41.4778 53.9717 41.3868 53.8097 41.2248C53.6477 41.0627 53.5566 40.843 53.5566 40.6138C53.5566 40.3847 53.6477 40.1649 53.8097 40.0029C53.9717 39.8408 54.1915 39.7498 54.4206 39.7498H72.7566C72.9858 39.7498 73.2055 39.8408 73.3676 40.0029C73.5296 40.1649 73.6206 40.3847 73.6206 40.6138C73.6206 40.843 73.5296 41.0627 73.3676 41.2248C73.2055 41.3868 72.9858 41.4778 72.7566 41.4778Z" fill="#232C34"/>
<path d="M72.7566 46.7856H54.4206C54.1915 46.7856 53.9717 46.6945 53.8097 46.5325C53.6477 46.3705 53.5566 46.1507 53.5566 45.9216C53.5566 45.6924 53.6477 45.4726 53.8097 45.3106C53.9717 45.1486 54.1915 45.0576 54.4206 45.0576H72.7566C72.9858 45.0576 73.2055 45.1486 73.3676 45.3106C73.5296 45.4726 73.6206 45.6924 73.6206 45.9216C73.6206 46.1507 73.5296 46.3705 73.3676 46.5325C73.2055 46.6945 72.9858 46.7856 72.7566 46.7856Z" fill="#232C34"/>
<path d="M72.7566 52.0935H54.4206C54.1915 52.0935 53.9717 52.0025 53.8097 51.8405C53.6477 51.6784 53.5566 51.4587 53.5566 51.2295C53.5566 51.0004 53.6477 50.7806 53.8097 50.6186C53.9717 50.4566 54.1915 50.3655 54.4206 50.3655H72.7566C72.9858 50.3655 73.2055 50.4566 73.3676 50.6186C73.5296 50.7806 73.6206 51.0004 73.6206 51.2295C73.6206 51.4587 73.5296 51.6784 73.3676 51.8405C73.2055 52.0025 72.9858 52.0935 72.7566 52.0935Z" fill="#232C34"/>
<path d="M72.7566 57.4013H54.4206C54.1915 57.4013 53.9717 57.3102 53.8097 57.1482C53.6477 56.9862 53.5566 56.7664 53.5566 56.5373C53.5566 56.3081 53.6477 56.0884 53.8097 55.9263C53.9717 55.7643 54.1915 55.6733 54.4206 55.6733H72.7566C72.9858 55.6733 73.2055 55.7643 73.3676 55.9263C73.5296 56.0884 73.6206 56.3081 73.6206 56.5373C73.6206 56.7664 73.5296 56.9862 73.3676 57.1482C73.2055 57.3102 72.9858 57.4013 72.7566 57.4013Z" fill="#232C34"/>
</g>
<defs>
<clipPath id="clip0_557_6963">
<rect width="96" height="96" fill="white"/>
</clipPath>
</defs>
</svg>
