<svg width="17" height="16" viewBox="0 0 17 16" fill="none" xmlns="http://www.w3.org/2000/svg">
<path d="M2.6062 6.26949H14.4888" stroke="#4F4F4F" stroke-linecap="round" stroke-linejoin="round"/>
<path fill-rule="evenodd" clip-rule="evenodd" d="M4.83325 8.87311C4.83325 8.45889 5.16904 8.12311 5.58325 8.12311H5.58943C6.00364 8.12311 6.33943 8.45889 6.33943 8.87311C6.33943 9.28732 6.00364 9.62311 5.58943 9.62311H5.58325C5.16904 9.62311 4.83325 9.28732 4.83325 8.87311ZM8.54782 8.12313C8.1336 8.12313 7.79782 8.45892 7.79782 8.87313C7.79782 9.28734 8.1336 9.62313 8.54782 9.62313H8.55399C8.96821 9.62313 9.30399 9.28734 9.30399 8.87313C9.30399 8.45892 8.96821 8.12313 8.55399 8.12313H8.54782ZM11.5062 8.12313C11.0919 8.12313 10.7562 8.45892 10.7562 8.87313C10.7562 9.28734 11.0919 9.62313 11.5062 9.62313H11.5123C11.9265 9.62313 12.2623 9.28734 12.2623 8.87313C12.2623 8.45892 11.9265 8.12313 11.5123 8.12313H11.5062ZM11.5062 10.7141C11.0919 10.7141 10.7562 11.0499 10.7562 11.4641C10.7562 11.8783 11.0919 12.2141 11.5062 12.2141H11.5123C11.9265 12.2141 12.2623 11.8783 12.2623 11.4641C12.2623 11.0499 11.9265 10.7141 11.5123 10.7141H11.5062ZM7.79782 11.4641C7.79782 11.0499 8.1336 10.7141 8.54782 10.7141H8.55399C8.96821 10.7141 9.30399 11.0499 9.30399 11.4641C9.30399 11.8783 8.96821 12.2141 8.55399 12.2141H8.54782C8.1336 12.2141 7.79782 11.8783 7.79782 11.4641ZM5.58325 10.7141C5.16904 10.7141 4.83325 11.0499 4.83325 11.4641C4.83325 11.8783 5.16904 12.2141 5.58325 12.2141H5.58943C6.00364 12.2141 6.33943 11.8783 6.33943 11.4641C6.33943 11.0499 6.00364 10.7141 5.58943 10.7141H5.58325Z" fill="#4F4F4F"/>
<path d="M11.2402 1.33331V3.52717" stroke="#4F4F4F" stroke-linecap="round" stroke-linejoin="round"/>
<path d="M5.85494 1.33331V3.52717" stroke="#4F4F4F" stroke-linecap="round" stroke-linejoin="round"/>
<path fill-rule="evenodd" clip-rule="evenodd" d="M11.3699 2.38611H5.72508C3.76728 2.38611 2.54443 3.47673 2.54443 5.48146V11.5146C2.54443 13.5508 3.76728 14.6666 5.72508 14.6666H11.3638C13.3277 14.6666 14.5444 13.5697 14.5444 11.565V5.48146C14.5506 3.47673 13.3339 2.38611 11.3699 2.38611Z" stroke="#4F4F4F" stroke-linecap="round" stroke-linejoin="round"/>
</svg>
