<svg width="79" height="78" viewBox="0 0 79 78" fill="none" xmlns="http://www.w3.org/2000/svg">
<g clip-path="url(#clip0_557_7003)">
<path d="M39.2673 21.0097C35.9844 21.0097 33.3135 18.353 33.3135 15.0872C33.3135 11.8213 35.9844 9.16504 39.2673 9.16504C42.5502 9.16504 45.2211 11.8217 45.2211 15.0872C45.2211 18.3527 42.5502 21.0097 39.2673 21.0097ZM39.2673 10.803C38.4153 10.803 37.5825 11.0542 36.8741 11.525C36.1656 11.9957 35.6135 12.6649 35.2874 13.4478C34.9613 14.2307 34.876 15.0922 35.0422 15.9234C35.2084 16.7545 35.6186 17.518 36.2211 18.1172C36.8235 18.7164 37.5911 19.1245 38.4267 19.2898C39.2623 19.4551 40.1284 19.3702 40.9155 19.0459C41.7026 18.7216 42.3753 18.1723 42.8486 17.4677C43.3219 16.7631 43.5744 15.9346 43.5744 15.0872C43.5728 13.9514 43.1185 12.8626 42.3111 12.0595C41.5037 11.2564 40.4091 10.8046 39.2673 10.803Z" fill="#232C34"/>
<path d="M15.2881 34.712C15.2301 34.712 15.1723 34.7059 15.1156 34.694C15.0098 34.6716 14.9095 34.6287 14.8205 34.5677C14.7314 34.5067 14.6552 34.4289 14.5964 34.3386C14.5376 34.2484 14.4972 34.1475 14.4776 34.0417C14.4579 33.9359 14.4594 33.8274 14.482 33.7222C15.5079 28.9696 17.8919 24.613 21.3474 21.1759C24.8029 17.7387 29.1829 15.3674 33.9608 14.347C34.0674 14.3222 34.178 14.3188 34.2859 14.337C34.3939 14.3552 34.4971 14.3946 34.5895 14.453C34.682 14.5113 34.7618 14.5875 34.8243 14.6769C34.8868 14.7663 34.9308 14.8673 34.9536 14.9738C34.9764 15.0803 34.9776 15.1903 34.9572 15.2973C34.9368 15.4043 34.8951 15.5062 34.8346 15.597C34.7741 15.6877 34.696 15.7656 34.6049 15.826C34.5137 15.8864 34.4114 15.9281 34.3039 15.9487C25.184 17.8815 18.0355 24.992 16.0923 34.0634C16.0531 34.2467 15.9518 34.4111 15.8055 34.5291C15.6591 34.6472 15.4765 34.7117 15.2881 34.712Z" fill="#232C34"/>
<path d="M44.4007 63.6714C44.1973 63.6712 44.0012 63.5962 43.8501 63.4607C43.6991 63.3252 43.6038 63.1389 43.5826 62.9377C43.5614 62.7365 43.6159 62.5346 43.7354 62.371C43.855 62.2073 44.0312 62.0935 44.2301 62.0514C53.35 60.1185 60.4985 53.008 62.4417 43.9366C62.4624 43.8297 62.5043 43.7279 62.565 43.6373C62.6258 43.5466 62.704 43.4689 62.7953 43.4088C62.8866 43.3486 62.989 43.3071 63.0966 43.2868C63.2042 43.2665 63.3147 43.2677 63.4218 43.2904C63.5289 43.3131 63.6304 43.3568 63.7203 43.419C63.8102 43.4811 63.8867 43.5605 63.9454 43.6525C64.0041 43.7445 64.0438 43.8471 64.0621 43.9545C64.0804 44.0619 64.0769 44.1718 64.052 44.2779C63.0261 49.0304 60.6421 53.3871 57.1866 56.8242C53.7311 60.2613 49.3511 62.6326 44.5732 63.6531C44.5165 63.6653 44.4587 63.6714 44.4007 63.6714Z" fill="#232C34"/>
<path d="M34.1339 63.6714C34.0759 63.6714 34.0181 63.6653 33.9614 63.6531C29.1835 62.6326 24.8035 60.2613 21.348 56.8242C17.8925 53.3871 15.5085 49.0304 14.4826 44.2779C14.4576 44.1718 14.4542 44.0619 14.4725 43.9545C14.4908 43.8471 14.5305 43.7445 14.5892 43.6525C14.6478 43.5605 14.7244 43.4811 14.8143 43.419C14.9042 43.3568 15.0056 43.3131 15.1127 43.2904C15.2198 43.2677 15.3304 43.2665 15.438 43.2868C15.5456 43.3071 15.648 43.3486 15.7393 43.4088C15.8305 43.4689 15.9088 43.5466 15.9695 43.6373C16.0302 43.7279 16.0722 43.8297 16.0929 43.9366C18.036 53.008 25.1845 60.1185 34.3045 62.0514C34.5034 62.0935 34.6796 62.2073 34.7992 62.371C34.9187 62.5346 34.9731 62.7365 34.952 62.9377C34.9308 63.1389 34.8355 63.3252 34.6844 63.4607C34.5334 63.5962 34.3373 63.6712 34.1339 63.6714Z" fill="#232C34"/>
<path d="M63.2461 34.712C63.0576 34.7117 62.875 34.6472 62.7287 34.5291C62.5823 34.4111 62.4811 34.2467 62.4419 34.0634C60.4987 24.992 53.3502 17.8815 44.2303 15.9487C44.1228 15.9281 44.0204 15.8864 43.9293 15.826C43.8382 15.7656 43.7601 15.6877 43.6996 15.597C43.6391 15.5062 43.5974 15.4043 43.577 15.2973C43.5565 15.1903 43.5578 15.0803 43.5806 14.9738C43.6034 14.8673 43.6473 14.7663 43.7099 14.6769C43.7724 14.5875 43.8522 14.5113 43.9446 14.453C44.0371 14.3946 44.1403 14.3552 44.2483 14.337C44.3562 14.3188 44.4667 14.3222 44.5734 14.347C49.3513 15.3674 53.7313 17.7387 57.1868 21.1759C60.6423 24.613 63.0263 28.9696 64.0522 33.7222C64.0978 33.9344 64.0568 34.1561 63.9382 34.3383C63.8196 34.5205 63.6331 34.6485 63.4198 34.694C63.3626 34.706 63.3044 34.712 63.2461 34.712Z" fill="#232C34"/>
<path d="M15.2263 44.9221C11.9433 44.9221 9.27246 42.2654 9.27246 38.9999C9.27246 35.7344 11.9433 33.0778 15.2263 33.0778C18.5092 33.0778 21.1805 35.7344 21.1805 38.9999C21.1805 42.2654 18.5096 44.9221 15.2263 44.9221ZM15.2263 34.7158C14.3744 34.7158 13.5418 34.9672 12.8335 35.438C12.1253 35.9088 11.5733 36.5779 11.2474 37.3607C10.9214 38.1435 10.8362 39.0049 11.0024 39.8359C11.1687 40.667 11.5789 41.4303 12.1813 42.0294C12.7836 42.6285 13.5511 43.0365 14.3866 43.2018C15.222 43.367 16.088 43.2822 16.875 42.9579C17.662 42.6336 18.3346 42.0845 18.8079 41.38C19.2811 40.6755 19.5337 39.8472 19.5337 38.9999C19.5322 37.8641 19.0778 36.7752 18.2704 35.9721C17.4629 35.169 16.3682 34.7172 15.2263 34.7158Z" fill="#232C34"/>
<path d="M63.3077 44.9221C60.0244 44.9221 57.3535 42.2654 57.3535 38.9999C57.3535 35.7344 60.0244 33.0778 63.3077 33.0778C66.5911 33.0778 69.2615 35.7344 69.2615 38.9999C69.2615 42.2654 66.5907 44.9221 63.3077 44.9221ZM63.3077 34.7158C62.4559 34.7158 61.6231 34.967 60.9149 35.4378C60.2066 35.9085 59.6545 36.5776 59.3285 37.3604C59.0025 38.1433 58.9172 39.0047 59.0834 39.8357C59.2496 40.6667 59.6598 41.4301 60.2622 42.0293C60.8645 42.6284 61.632 43.0364 62.4675 43.2017C63.3029 43.367 64.169 43.2822 64.956 42.9579C65.743 42.6337 66.4156 42.0846 66.8889 41.3801C67.3622 40.6755 67.6148 39.8472 67.6148 38.9999C67.6132 37.8642 67.159 36.7754 66.3516 35.9723C65.5442 35.1692 64.4496 34.7173 63.3077 34.7158Z" fill="#232C34"/>
<path d="M39.2673 68.835C35.9844 68.835 33.3135 66.1784 33.3135 62.9129C33.3135 59.6474 35.9844 56.9904 39.2673 56.9904C42.5502 56.9904 45.2211 59.647 45.2211 62.9129C45.2211 66.1788 42.5502 68.835 39.2673 68.835ZM39.2673 58.6284C38.4153 58.6283 37.5825 58.8795 36.8741 59.3502C36.1657 59.821 35.6135 60.4901 35.2874 61.273C34.9614 62.0559 34.876 62.9174 35.0422 63.7485C35.2083 64.5797 35.6185 65.3431 36.2209 65.9424C36.8233 66.5416 37.5908 66.9497 38.4264 67.1151C39.262 67.2804 40.1281 67.1956 40.9152 66.8713C41.7023 66.5471 42.3751 65.9979 42.8484 65.2933C43.3217 64.5887 43.5744 63.7603 43.5744 62.9129C43.5729 61.7771 43.1187 60.6882 42.3113 59.885C41.5039 59.0818 40.4092 58.6299 39.2673 58.6284Z" fill="#232C34"/>
<path d="M39.2667 31.668C39.0484 31.668 38.8389 31.5817 38.6845 31.4281C38.5301 31.2745 38.4434 31.0662 38.4434 30.849V20.1906C38.4434 19.9734 38.5301 19.7651 38.6845 19.6115C38.8389 19.4579 39.0484 19.3716 39.2667 19.3716C39.4851 19.3716 39.6945 19.4579 39.849 19.6115C40.0034 19.7651 40.0901 19.9734 40.0901 20.1906V30.849C40.0901 31.0662 40.0034 31.2745 39.849 31.4281C39.6945 31.5817 39.4851 31.668 39.2667 31.668Z" fill="#232C34"/>
<path d="M39.2667 58.6283C39.0484 58.6283 38.8389 58.542 38.6845 58.3884C38.5301 58.2348 38.4434 58.0265 38.4434 57.8093V47.151C38.4434 46.9338 38.5301 46.7254 38.6845 46.5718C38.8389 46.4183 39.0484 46.332 39.2667 46.332C39.4851 46.332 39.6945 46.4183 39.849 46.5718C40.0034 46.7254 40.0901 46.9338 40.0901 47.151V57.8093C40.0901 58.0265 40.0034 58.2348 39.849 58.3884C39.6945 58.542 39.4851 58.6283 39.2667 58.6283Z" fill="#232C34"/>
<path d="M29.3673 39.819H20.3576C20.1392 39.819 19.9298 39.7327 19.7753 39.5792C19.6209 39.4256 19.5342 39.2172 19.5342 39C19.5342 38.7828 19.6209 38.5745 19.7753 38.4209C19.9298 38.2673 20.1392 38.181 20.3576 38.181H29.3673C29.5857 38.181 29.7951 38.2673 29.9495 38.4209C30.1039 38.5745 30.1907 38.7828 30.1907 39C30.1907 39.2172 30.1039 39.4256 29.9495 39.5792C29.7951 39.7327 29.5857 39.819 29.3673 39.819Z" fill="#232C34"/>
<path d="M58.1769 39.819H49.1671C48.9488 39.819 48.7393 39.7327 48.5849 39.5792C48.4305 39.4256 48.3438 39.2172 48.3438 39C48.3438 38.7828 48.4305 38.5745 48.5849 38.4209C48.7393 38.2673 48.9488 38.181 49.1671 38.181H58.1769C58.3952 38.181 58.6047 38.2673 58.7591 38.4209C58.9135 38.5745 59.0002 38.7828 59.0002 39C59.0002 39.2172 58.9135 39.4256 58.7591 39.5792C58.6047 39.7327 58.3952 39.819 58.1769 39.819Z" fill="#232C34"/>
<path d="M45.5643 47.97H32.9705C29.8205 47.97 27.2578 45.421 27.2578 42.2873C27.2577 41.5411 27.4054 40.8022 27.6925 40.1127C27.9795 39.4232 28.4003 38.7968 28.9308 38.2691C29.4613 37.7414 30.0911 37.3229 30.7842 37.0374C31.4774 36.7518 32.2203 36.6049 32.9705 36.605H33.6233C33.5768 36.3101 33.5535 36.012 33.5535 35.7135C33.5535 32.5795 36.1166 30.03 39.2674 30.03C42.4182 30.03 44.9813 32.5795 44.9813 35.7135C44.9813 36.012 44.958 36.3101 44.9115 36.605H45.5643C48.7143 36.605 51.277 39.1541 51.277 42.2873C51.277 43.0336 51.1293 43.7725 50.8422 44.462C50.5552 45.1514 50.1344 45.7779 49.6039 46.3056C49.0734 46.8333 48.4436 47.2519 47.7505 47.5375C47.0574 47.823 46.3145 47.97 45.5643 47.97ZM32.9705 38.243C31.899 38.2535 30.875 38.6842 30.121 39.4416C29.3671 40.1989 28.9441 41.2217 28.9441 42.2875C28.9441 43.3534 29.3671 44.3761 30.121 45.1335C30.875 45.8908 31.899 46.3216 32.9705 46.332H45.5643C46.6358 46.3216 47.6598 45.8908 48.4138 45.1335C49.1677 44.3761 49.5907 43.3534 49.5907 42.2875C49.5907 41.2217 49.1677 40.1989 48.4138 39.4416C47.6598 38.6842 46.6358 38.2535 45.5643 38.243H43.8466C43.7135 38.243 43.5824 38.2109 43.4645 38.1494C43.3467 38.088 43.2455 37.999 43.1698 37.8901C43.0941 37.7813 43.046 37.6558 43.0297 37.5245C43.0133 37.3931 43.0293 37.2597 43.0761 37.1358C43.3066 36.5238 43.3845 35.8654 43.3033 35.2168C43.2221 34.5683 42.9841 33.949 42.6098 33.4119C42.2354 32.8749 41.7358 32.436 41.1538 32.1329C40.5717 31.8297 39.9244 31.6714 39.2674 31.6714C38.6104 31.6714 37.9631 31.8297 37.381 32.1329C36.7989 32.436 36.2993 32.8749 35.925 33.4119C35.5507 33.949 35.3127 34.5683 35.2315 35.2168C35.1503 35.8654 35.2282 36.5238 35.4587 37.1358C35.5055 37.2597 35.5214 37.3931 35.5051 37.5245C35.4888 37.6558 35.4407 37.7813 35.365 37.8901C35.2893 37.999 35.1881 38.088 35.0703 38.1494C34.9524 38.2109 34.8213 38.243 34.6882 38.243H32.9705Z" fill="#232C34"/>
</g>
<defs>
<clipPath id="clip0_557_7003">
<rect width="78.4171" height="78" fill="white" transform="translate(0.0585938)"/>
</clipPath>
</defs>
</svg>
