<svg width="68" height="68" viewBox="0 0 68 68" fill="none" xmlns="http://www.w3.org/2000/svg">
<path d="M43.7374 58.6077H35.403C35.2136 58.6077 35.032 58.5325 34.8981 58.3986C34.7642 58.2647 34.689 58.0831 34.689 57.8937C34.689 57.7043 34.7642 57.5227 34.8981 57.3888C35.032 57.2549 35.2136 57.1797 35.403 57.1797H43.7374C43.9268 57.1797 44.1084 57.2549 44.2423 57.3888C44.3762 57.5227 44.4514 57.7043 44.4514 57.8937C44.4514 58.0831 44.3762 58.2647 44.2423 58.3986C44.1084 58.5325 43.9268 58.6077 43.7374 58.6077Z" fill="#333333"/>
<path d="M32.5971 58.6077H24.2627C24.0733 58.6077 23.8917 58.5325 23.7578 58.3986C23.6239 58.2647 23.5487 58.0831 23.5487 57.8937C23.5487 57.7043 23.6239 57.5227 23.7578 57.3888C23.8917 57.2549 24.0733 57.1797 24.2627 57.1797H32.5971C32.7865 57.1797 32.9681 57.2549 33.102 57.3888C33.2359 57.5227 33.3111 57.7043 33.3111 57.8937C33.3111 58.0831 33.2359 58.2647 33.102 58.3986C32.9681 58.5325 32.7865 58.6077 32.5971 58.6077Z" fill="#333333"/>
<path d="M20.4001 40.556C20.2107 40.556 20.0291 40.4808 19.8952 40.3469C19.7613 40.213 19.6861 40.0314 19.6861 39.842V36.0939C19.6861 35.9045 19.7613 35.7229 19.8952 35.589C20.0291 35.4551 20.2107 35.3799 20.4001 35.3799C20.5895 35.3799 20.7711 35.4551 20.905 35.589C21.0389 35.7229 21.1141 35.9045 21.1141 36.0939V39.842C21.1141 40.0314 21.0389 40.213 20.905 40.3469C20.7711 40.4808 20.5895 40.556 20.4001 40.556Z" fill="#333333"/>
<path d="M23.2503 40.556C23.061 40.556 22.8793 40.4808 22.7454 40.3469C22.6115 40.213 22.5363 40.0314 22.5363 39.842V36.0939C22.5363 35.9045 22.6115 35.7229 22.7454 35.589C22.8793 35.4551 23.061 35.3799 23.2503 35.3799C23.4397 35.3799 23.6213 35.4551 23.7552 35.589C23.8891 35.7229 23.9643 35.9045 23.9643 36.0939V39.842C23.9643 40.0314 23.8891 40.213 23.7552 40.3469C23.6213 40.4808 23.4397 40.556 23.2503 40.556Z" fill="#333333"/>
<path d="M44.749 40.556C44.5597 40.556 44.3781 40.4808 44.2442 40.3469C44.1103 40.213 44.035 40.0314 44.035 39.842V36.0939C44.035 35.9045 44.1103 35.7229 44.2442 35.589C44.3781 35.4551 44.5597 35.3799 44.749 35.3799C44.9384 35.3799 45.12 35.4551 45.2539 35.589C45.3878 35.7229 45.463 35.9045 45.463 36.0939V39.842C45.463 40.0314 45.3878 40.213 45.2539 40.3469C45.12 40.4808 44.9384 40.556 44.749 40.556Z" fill="#333333"/>
<path d="M47.5999 40.556C47.4105 40.556 47.2289 40.4808 47.095 40.3469C46.9611 40.213 46.8859 40.0314 46.8859 39.842V36.0939C46.8859 35.9045 46.9611 35.7229 47.095 35.589C47.2289 35.4551 47.4105 35.3799 47.5999 35.3799C47.7892 35.3799 47.9708 35.4551 48.1047 35.589C48.2386 35.7229 48.3139 35.9045 48.3139 36.0939V39.842C48.3139 40.0314 48.2386 40.213 48.1047 40.3469C47.9708 40.4808 47.7892 40.556 47.5999 40.556Z" fill="#333333"/>
<path d="M20.4001 24.9873C20.2107 24.9873 20.0291 24.9121 19.8952 24.7782C19.7613 24.6443 19.6861 24.4627 19.6861 24.2733V20.5255C19.6861 20.3362 19.7613 20.1546 19.8952 20.0206C20.0291 19.8867 20.2107 19.8115 20.4001 19.8115C20.5895 19.8115 20.7711 19.8867 20.905 20.0206C21.0389 20.1546 21.1141 20.3362 21.1141 20.5255V24.2733C21.1141 24.4627 21.0389 24.6443 20.905 24.7782C20.7711 24.9121 20.5895 24.9873 20.4001 24.9873Z" fill="#333333"/>
<path d="M23.2503 24.9873C23.061 24.9873 22.8793 24.9121 22.7454 24.7782C22.6115 24.6443 22.5363 24.4627 22.5363 24.2733V20.5255C22.5363 20.3362 22.6115 20.1546 22.7454 20.0206C22.8793 19.8867 23.061 19.8115 23.2503 19.8115C23.4397 19.8115 23.6213 19.8867 23.7552 20.0206C23.8891 20.1546 23.9643 20.3362 23.9643 20.5255V24.2733C23.9643 24.4627 23.8891 24.6443 23.7552 24.7782C23.6213 24.9121 23.4397 24.9873 23.2503 24.9873Z" fill="#333333"/>
<path d="M44.749 24.9873C44.5597 24.9873 44.3781 24.9121 44.2442 24.7782C44.1103 24.6443 44.035 24.4627 44.035 24.2733V20.5255C44.035 20.3362 44.1103 20.1546 44.2442 20.0206C44.3781 19.8867 44.5597 19.8115 44.749 19.8115C44.9384 19.8115 45.12 19.8867 45.2539 20.0206C45.3878 20.1546 45.463 20.3362 45.463 20.5255V24.2733C45.463 24.4627 45.3878 24.6443 45.2539 24.7782C45.12 24.9121 44.9384 24.9873 44.749 24.9873Z" fill="#333333"/>
<path d="M47.5999 24.9873C47.4105 24.9873 47.2289 24.9121 47.095 24.7782C46.9611 24.6443 46.8859 24.4627 46.8859 24.2733V20.5255C46.8859 20.3362 46.9611 20.1546 47.095 20.0206C47.2289 19.8867 47.4105 19.8115 47.5999 19.8115C47.7892 19.8115 47.9708 19.8867 48.1047 20.0206C48.2386 20.1546 48.3139 20.3362 48.3139 20.5255V24.2733C48.3139 24.4627 48.2386 24.6443 48.1047 24.7782C47.9708 24.9121 47.7892 24.9873 47.5999 24.9873Z" fill="#333333"/>
<path d="M52.4194 21.2387H15.5804C15.391 21.2387 15.2094 21.1635 15.0755 21.0296C14.9416 20.8957 14.8664 20.7141 14.8664 20.5247V8.70326C14.8664 8.51389 14.9416 8.33228 15.0755 8.19838C15.2094 8.06448 15.391 7.98926 15.5804 7.98926H52.4194C52.6088 7.98926 52.7904 8.06448 52.9243 8.19838C53.0582 8.33228 53.1334 8.51389 53.1334 8.70326V20.5247C53.1334 20.7141 53.0582 20.8957 52.9243 21.0296C52.7904 21.1635 52.6088 21.2387 52.4194 21.2387ZM16.2944 19.8107H51.7054V9.41726H16.2944V19.8107Z" fill="#333333"/>
<path d="M41.35 16.7317C40.9313 16.7317 40.5221 16.6076 40.1739 16.375C39.8258 16.1424 39.5545 15.8118 39.3943 15.425C39.2341 15.0382 39.1922 14.6125 39.2738 14.2019C39.3555 13.7913 39.5571 13.4141 39.8532 13.1181C40.1492 12.822 40.5264 12.6204 40.937 12.5387C41.3476 12.457 41.7733 12.499 42.1601 12.6592C42.5469 12.8194 42.8775 13.0907 43.1101 13.4388C43.3427 13.7869 43.4668 14.1962 43.4668 14.6149C43.4662 15.1761 43.243 15.7142 42.8461 16.111C42.4493 16.5079 41.9112 16.7311 41.35 16.7317ZM41.35 13.926C41.2138 13.926 41.0806 13.9664 40.9673 14.0421C40.854 14.1178 40.7657 14.2254 40.7136 14.3513C40.6615 14.4771 40.6478 14.6157 40.6744 14.7493C40.701 14.8829 40.7666 15.0056 40.8629 15.102C40.9592 15.1983 41.082 15.2639 41.2156 15.2905C41.3492 15.3171 41.4877 15.3034 41.6136 15.2513C41.7395 15.1992 41.8471 15.1109 41.9227 14.9976C41.9984 14.8843 42.0388 14.7511 42.0388 14.6149C42.0387 14.4323 41.966 14.2571 41.8369 14.128C41.7077 13.9989 41.5326 13.9262 41.35 13.926Z" fill="#333333"/>
<path d="M47.0425 16.7317C46.6238 16.7317 46.2146 16.6076 45.8665 16.375C45.5183 16.1424 45.247 15.8118 45.0868 15.425C44.9266 15.0382 44.8847 14.6125 44.9663 14.2019C45.048 13.7913 45.2496 13.4141 45.5457 13.1181C45.8417 12.822 46.2189 12.6204 46.6295 12.5387C47.0402 12.457 47.4658 12.499 47.8526 12.6592C48.2394 12.8194 48.57 13.0907 48.8026 13.4388C49.0352 13.7869 49.1593 14.1962 49.1593 14.6149C49.1587 15.1761 48.9355 15.7142 48.5386 16.111C48.1418 16.5079 47.6037 16.7311 47.0425 16.7317ZM47.0425 13.926C46.9063 13.926 46.7731 13.9664 46.6598 14.0421C46.5465 14.1178 46.4582 14.2254 46.4061 14.3513C46.354 14.4771 46.3403 14.6157 46.3669 14.7493C46.3935 14.8829 46.4591 15.0056 46.5554 15.102C46.6518 15.1983 46.7745 15.2639 46.9081 15.2905C47.0417 15.3171 47.1802 15.3034 47.3061 15.2513C47.432 15.1992 47.5396 15.1109 47.6153 14.9976C47.6909 14.8843 47.7313 14.7511 47.7313 14.6149C47.7312 14.4323 47.6585 14.2571 47.5294 14.128C47.4002 13.9989 47.2251 13.9262 47.0425 13.926Z" fill="#333333"/>
<path d="M22.6337 16.868H19.5546C19.3653 16.868 19.1837 16.7928 19.0498 16.6589C18.9159 16.525 18.8406 16.3434 18.8406 16.154V13.0753C18.8406 12.886 18.9159 12.7044 19.0498 12.5705C19.1837 12.4366 19.3653 12.3613 19.5546 12.3613H22.6337C22.7274 12.3613 22.8203 12.3798 22.9069 12.4157C22.9935 12.4516 23.0723 12.5042 23.1386 12.5705C23.2049 12.6368 23.2574 12.7155 23.2933 12.8021C23.3292 12.8887 23.3477 12.9816 23.3477 13.0753V16.154C23.3477 16.2478 23.3292 16.3406 23.2933 16.4273C23.2574 16.5139 23.2049 16.5926 23.1386 16.6589C23.0723 16.7252 22.9935 16.7778 22.9069 16.8137C22.8203 16.8496 22.7274 16.868 22.6337 16.868ZM20.2686 15.44H21.9197V13.7893H20.2686V15.44Z" fill="#333333"/>
<path d="M28.5407 16.868H25.462C25.2726 16.868 25.091 16.7928 24.9571 16.6589C24.8232 16.525 24.748 16.3434 24.748 16.154V13.0753C24.748 12.886 24.8232 12.7044 24.9571 12.5705C25.091 12.4366 25.2726 12.3613 25.462 12.3613H28.5407C28.73 12.3613 28.9117 12.4366 29.0456 12.5705C29.1795 12.7044 29.2547 12.886 29.2547 13.0753V16.154C29.2547 16.3434 29.1795 16.525 29.0456 16.6589C28.9117 16.7928 28.73 16.868 28.5407 16.868ZM26.176 15.44H27.8267V13.7893H26.176V15.44Z" fill="#333333"/>
<path d="M34.4475 16.868H31.3688C31.1794 16.868 30.9978 16.7928 30.8639 16.6589C30.73 16.525 30.6548 16.3434 30.6548 16.154V13.0753C30.6548 12.886 30.73 12.7044 30.8639 12.5705C30.9978 12.4366 31.1794 12.3613 31.3688 12.3613H34.4475C34.6368 12.3613 34.8185 12.4366 34.9524 12.5705C35.0863 12.7044 35.1615 12.886 35.1615 13.0753V16.154C35.1615 16.3434 35.0863 16.525 34.9524 16.6589C34.8185 16.7928 34.6368 16.868 34.4475 16.868ZM32.0828 15.44H33.7335V13.7893H32.0828V15.44Z" fill="#333333"/>
<path d="M52.4194 36.809H15.5804C15.391 36.809 15.2094 36.7338 15.0755 36.5999C14.9416 36.466 14.8664 36.2844 14.8664 36.095V24.2736C14.8664 24.0842 14.9416 23.9026 15.0755 23.7687C15.2094 23.6348 15.391 23.5596 15.5804 23.5596H52.4194C52.6088 23.5596 52.7904 23.6348 52.9243 23.7687C53.0582 23.9026 53.1334 24.0842 53.1334 24.2736V36.095C53.1334 36.2844 53.0582 36.466 52.9243 36.5999C52.7904 36.7338 52.6088 36.809 52.4194 36.809ZM16.2944 35.381H51.7054V24.9876H16.2944V35.381Z" fill="#333333"/>
<path d="M41.35 32.3001C40.9313 32.3001 40.522 32.1759 40.1739 31.9433C39.8258 31.7107 39.5545 31.3801 39.3943 30.9932C39.234 30.6064 39.1921 30.1808 39.2739 29.7701C39.3556 29.3595 39.5572 28.9823 39.8533 28.6863C40.1494 28.3903 40.5266 28.1887 40.9372 28.107C41.3479 28.0254 41.7735 28.0674 42.1603 28.2276C42.5471 28.3879 42.8777 28.6593 43.1102 29.0074C43.3428 29.3556 43.4669 29.7649 43.4668 30.1836C43.4662 30.7448 43.243 31.2828 42.8461 31.6796C42.4493 32.0764 41.9112 32.2995 41.35 32.3001ZM41.35 29.4947C41.2138 29.4947 41.0806 29.5351 40.9673 29.6108C40.854 29.6865 40.7657 29.7941 40.7136 29.92C40.6615 30.0458 40.6478 30.1844 40.6744 30.318C40.701 30.4516 40.7666 30.5743 40.8629 30.6707C40.9592 30.767 41.082 30.8326 41.2156 30.8592C41.3492 30.8858 41.4877 30.8721 41.6136 30.82C41.7395 30.7679 41.8471 30.6796 41.9227 30.5663C41.9984 30.453 42.0388 30.3198 42.0388 30.1836C42.0386 30.001 41.9659 29.826 41.8368 29.6969C41.7076 29.5679 41.5326 29.4953 41.35 29.4951V29.4947Z" fill="#333333"/>
<path d="M47.0425 32.3001C46.6238 32.3001 46.2145 32.1759 45.8664 31.9433C45.5183 31.7107 45.247 31.3801 45.0868 30.9932C44.9266 30.6064 44.8847 30.1808 44.9664 29.7701C45.0481 29.3595 45.2497 28.9823 45.5458 28.6863C45.8419 28.3903 46.2191 28.1887 46.6297 28.107C47.0404 28.0254 47.466 28.0674 47.8528 28.2276C48.2396 28.3879 48.5702 28.6593 48.8028 29.0074C49.0353 29.3556 49.1594 29.7649 49.1593 30.1836C49.1587 30.7448 48.9355 31.2828 48.5386 31.6796C48.1418 32.0764 47.6037 32.2995 47.0425 32.3001ZM47.0425 29.4947C46.9063 29.4947 46.7731 29.5351 46.6598 29.6108C46.5465 29.6865 46.4582 29.7941 46.4061 29.92C46.354 30.0458 46.3403 30.1844 46.3669 30.318C46.3935 30.4516 46.4591 30.5743 46.5554 30.6707C46.6518 30.767 46.7745 30.8326 46.9081 30.8592C47.0417 30.8858 47.1802 30.8721 47.3061 30.82C47.432 30.7679 47.5396 30.6796 47.6153 30.5663C47.6909 30.453 47.7313 30.3198 47.7313 30.1836C47.7311 30.001 47.6584 29.826 47.5293 29.6969C47.4001 29.5679 47.2251 29.4953 47.0425 29.4951V29.4947Z" fill="#333333"/>
<path d="M22.6337 32.4354H19.5546C19.3653 32.4354 19.1837 32.3601 19.0498 32.2262C18.9159 32.0923 18.8406 31.9107 18.8406 31.7214V28.6437C18.8406 28.4543 18.9159 28.2727 19.0498 28.1388C19.1837 28.0049 19.3653 27.9297 19.5546 27.9297H22.6337C22.7274 27.9297 22.8203 27.9482 22.9069 27.984C22.9935 28.0199 23.0723 28.0725 23.1386 28.1388C23.2049 28.2051 23.2574 28.2838 23.2933 28.3705C23.3292 28.4571 23.3477 28.5499 23.3477 28.6437V31.7214C23.3477 31.8151 23.3292 31.908 23.2933 31.9946C23.2574 32.0812 23.2049 32.1599 23.1386 32.2262C23.0723 32.2925 22.9935 32.3451 22.9069 32.381C22.8203 32.4169 22.7274 32.4354 22.6337 32.4354ZM20.2686 31.0074H21.9197V29.3577H20.2686V31.0074Z" fill="#333333"/>
<path d="M28.5407 32.4354H25.462C25.2726 32.4354 25.091 32.3601 24.9571 32.2262C24.8232 32.0923 24.748 31.9107 24.748 31.7214V28.6437C24.748 28.4543 24.8232 28.2727 24.9571 28.1388C25.091 28.0049 25.2726 27.9297 25.462 27.9297H28.5407C28.73 27.9297 28.9117 28.0049 29.0456 28.1388C29.1795 28.2727 29.2547 28.4543 29.2547 28.6437V31.7214C29.2547 31.9107 29.1795 32.0923 29.0456 32.2262C28.9117 32.3601 28.73 32.4354 28.5407 32.4354ZM26.176 31.0074H27.8267V29.3577H26.176V31.0074Z" fill="#333333"/>
<path d="M34.4475 32.4354H31.3688C31.1794 32.4354 30.9978 32.3601 30.8639 32.2262C30.73 32.0923 30.6548 31.9107 30.6548 31.7214V28.6437C30.6548 28.4543 30.73 28.2727 30.8639 28.1388C30.9978 28.0049 31.1794 27.9297 31.3688 27.9297H34.4475C34.6368 27.9297 34.8185 28.0049 34.9524 28.1388C35.0863 28.2727 35.1615 28.4543 35.1615 28.6437V31.7214C35.1615 31.9107 35.0863 32.0923 34.9524 32.2262C34.8185 32.3601 34.6368 32.4354 34.4475 32.4354ZM32.0828 31.0074H33.7335V29.3577H32.0828V31.0074Z" fill="#333333"/>
<path d="M52.4194 52.3771H15.5804C15.391 52.3771 15.2094 52.3018 15.0755 52.1679C14.9416 52.034 14.8664 51.8524 14.8664 51.6631V39.8419C14.8664 39.6526 14.9416 39.471 15.0755 39.3371C15.2094 39.2032 15.391 39.1279 15.5804 39.1279H52.4194C52.6088 39.1279 52.7904 39.2032 52.9243 39.3371C53.0582 39.471 53.1334 39.6526 53.1334 39.8419V51.6631C53.1334 51.8524 53.0582 52.034 52.9243 52.1679C52.7904 52.3018 52.6088 52.3771 52.4194 52.3771ZM16.2944 50.9491H51.7054V40.5559H16.2944V50.9491Z" fill="#333333"/>
<path d="M41.35 47.8704C40.9313 47.8704 40.5221 47.7462 40.1739 47.5136C39.8258 47.281 39.5545 46.9504 39.3943 46.5636C39.2341 46.1768 39.1922 45.7512 39.2738 45.3406C39.3555 44.93 39.5571 44.5528 39.8532 44.2567C40.1492 43.9607 40.5264 43.7591 40.937 43.6774C41.3476 43.5957 41.7733 43.6376 42.1601 43.7979C42.5469 43.9581 42.8775 44.2294 43.1101 44.5775C43.3427 44.9256 43.4668 45.3349 43.4668 45.7536C43.4662 46.3148 43.243 46.8528 42.8461 47.2497C42.4493 47.6465 41.9112 47.8698 41.35 47.8704ZM41.35 45.0647C41.2138 45.0647 41.0806 45.1051 40.9673 45.1808C40.854 45.2565 40.7657 45.3641 40.7136 45.49C40.6615 45.6158 40.6478 45.7543 40.6744 45.8879C40.701 46.0216 40.7666 46.1443 40.8629 46.2406C40.9592 46.337 41.082 46.4026 41.2156 46.4292C41.3492 46.4557 41.4877 46.4421 41.6136 46.39C41.7395 46.3378 41.8471 46.2495 41.9227 46.1363C41.9984 46.023 42.0388 45.8898 42.0388 45.7536C42.0387 45.5709 41.966 45.3958 41.8369 45.2667C41.7077 45.1375 41.5326 45.0649 41.35 45.0647Z" fill="#333333"/>
<path d="M47.0425 47.8704C46.6238 47.8704 46.2146 47.7462 45.8665 47.5136C45.5183 47.281 45.247 46.9504 45.0868 46.5636C44.9266 46.1768 44.8847 45.7512 44.9663 45.3406C45.048 44.93 45.2496 44.5528 45.5457 44.2567C45.8417 43.9607 46.2189 43.7591 46.6295 43.6774C47.0402 43.5957 47.4658 43.6376 47.8526 43.7979C48.2394 43.9581 48.57 44.2294 48.8026 44.5775C49.0352 44.9256 49.1593 45.3349 49.1593 45.7536C49.1587 46.3148 48.9355 46.8528 48.5386 47.2497C48.1418 47.6465 47.6037 47.8698 47.0425 47.8704ZM47.0425 45.0647C46.9063 45.0647 46.7731 45.1051 46.6598 45.1808C46.5465 45.2565 46.4582 45.3641 46.4061 45.49C46.354 45.6158 46.3403 45.7543 46.3669 45.8879C46.3935 46.0216 46.4591 46.1443 46.5554 46.2406C46.6518 46.337 46.7745 46.4026 46.9081 46.4292C47.0417 46.4557 47.1802 46.4421 47.3061 46.39C47.432 46.3378 47.5396 46.2495 47.6153 46.1363C47.6909 46.023 47.7313 45.8898 47.7313 45.7536C47.7312 45.5709 47.6585 45.3958 47.5294 45.2667C47.4002 45.1375 47.2251 45.0649 47.0425 45.0647Z" fill="#333333"/>
<path d="M22.6337 48.008H19.5546C19.3653 48.008 19.1837 47.9328 19.0498 47.7989C18.9159 47.665 18.8406 47.4834 18.8406 47.294V44.215C18.8406 44.0256 18.9159 43.844 19.0498 43.7101C19.1837 43.5762 19.3653 43.501 19.5546 43.501H22.6337C22.7274 43.501 22.8203 43.5194 22.9069 43.5553C22.9935 43.5912 23.0723 43.6438 23.1386 43.7101C23.2049 43.7764 23.2574 43.8551 23.2933 43.9417C23.3292 44.0284 23.3477 44.1212 23.3477 44.215V47.294C23.3477 47.3878 23.3292 47.4806 23.2933 47.5673C23.2574 47.6539 23.2049 47.7326 23.1386 47.7989C23.0723 47.8652 22.9935 47.9178 22.9069 47.9537C22.8203 47.9896 22.7274 48.008 22.6337 48.008ZM20.2686 46.58H21.9197V44.929H20.2686V46.58Z" fill="#333333"/>
<path d="M28.5407 48.008H25.462C25.2726 48.008 25.091 47.9328 24.9571 47.7989C24.8232 47.665 24.748 47.4834 24.748 47.294V44.215C24.748 44.0256 24.8232 43.844 24.9571 43.7101C25.091 43.5762 25.2726 43.501 25.462 43.501H28.5407C28.73 43.501 28.9117 43.5762 29.0456 43.7101C29.1795 43.844 29.2547 44.0256 29.2547 44.215V47.294C29.2547 47.4834 29.1795 47.665 29.0456 47.7989C28.9117 47.9328 28.73 48.008 28.5407 48.008ZM26.176 46.58H27.8267V44.929H26.176V46.58Z" fill="#333333"/>
<path d="M34.4475 48.008H31.3688C31.1794 48.008 30.9978 47.9328 30.8639 47.7989C30.73 47.665 30.6548 47.4834 30.6548 47.294V44.215C30.6548 44.0256 30.73 43.844 30.8639 43.7101C30.9978 43.5762 31.1794 43.501 31.3688 43.501H34.4475C34.6368 43.501 34.8185 43.5762 34.9524 43.7101C35.0863 43.844 35.1615 44.0256 35.1615 44.215V47.294C35.1615 47.4834 35.0863 47.665 34.9524 47.7989C34.8185 47.9328 34.6368 48.008 34.4475 48.008ZM32.0828 46.58H33.7335V44.929H32.0828V46.58Z" fill="#333333"/>
<path d="M34.0001 57.2042C33.8108 57.2042 33.6292 57.129 33.4953 56.9951C33.3614 56.8612 33.2861 56.6796 33.2861 56.4902V51.6622C33.2861 51.4729 33.3614 51.2913 33.4953 51.1574C33.6292 51.0235 33.8108 50.9482 34.0001 50.9482C34.1895 50.9482 34.3711 51.0235 34.505 51.1574C34.6389 51.2913 34.7141 51.4729 34.7141 51.6622V56.4902C34.7141 56.6796 34.6389 56.8612 34.505 56.9951C34.3711 57.129 34.1895 57.2042 34.0001 57.2042Z" fill="#333333"/>
<path d="M34.0001 60.01C33.5815 60.01 33.1722 59.8859 32.8241 59.6533C32.476 59.4207 32.2047 59.0901 32.0444 58.7033C31.8842 58.3165 31.8423 57.8909 31.924 57.4802C32.0057 57.0696 32.2073 56.6924 32.5033 56.3964C32.7994 56.1003 33.1765 55.8987 33.5872 55.817C33.9978 55.7354 34.4234 55.7773 34.8102 55.9375C35.197 56.0977 35.5276 56.369 35.7602 56.7172C35.9928 57.0653 36.117 57.4745 36.117 57.8932C36.1164 58.4544 35.8931 58.9925 35.4963 59.3893C35.0994 59.7862 34.5614 60.0094 34.0001 60.01ZM34.0001 57.2044C33.8639 57.2044 33.7307 57.2448 33.6174 57.3205C33.5042 57.3961 33.4159 57.5037 33.3637 57.6296C33.3116 57.7555 33.298 57.894 33.3245 58.0276C33.3511 58.1612 33.4167 58.284 33.5131 58.3803C33.6094 58.4766 33.7321 58.5422 33.8658 58.5688C33.9994 58.5954 34.1379 58.5817 34.2638 58.5296C34.3896 58.4775 34.4972 58.3892 34.5729 58.2759C34.6486 58.1626 34.689 58.0294 34.689 57.8932C34.6888 57.7106 34.6162 57.5355 34.487 57.4063C34.3579 57.2772 34.1828 57.2045 34.0001 57.2044Z" fill="#333333"/>
</svg>
