<svg width="50" height="48" viewBox="0 0 50 48" fill="none" xmlns="http://www.w3.org/2000/svg">
<path d="M24.9616 27.9512C24.831 27.9512 24.7025 27.9185 24.5878 27.856L0.406615 14.6603C0.283663 14.5932 0.181056 14.4942 0.109573 14.3737C0.0380891 14.2533 0.000366211 14.1158 0.000366211 13.9757C0.000366211 13.8356 0.0380891 13.6981 0.109573 13.5776C0.181056 13.4572 0.283663 13.3582 0.406615 13.291L24.5878 0.0953794C24.7025 0.0327954 24.831 0 24.9616 0C25.0922 0 25.2207 0.0327954 25.3354 0.0953794L49.5166 13.291C49.6396 13.3582 49.7422 13.4572 49.8137 13.5776C49.8851 13.6981 49.9229 13.8356 49.9229 13.9757C49.9229 14.1158 49.8851 14.2533 49.8137 14.3737C49.7422 14.4942 49.6396 14.5932 49.5166 14.6603L25.3354 27.856C25.2207 27.9185 25.0922 27.9512 24.9616 27.9512ZM2.40872 13.9755L24.9616 26.2826L47.5145 13.9746L24.9616 1.66651L2.40872 13.9755Z" fill="#333333"/>
<path d="M24.9615 37.975C24.8309 37.975 24.7024 37.9423 24.5878 37.8798L9.59054 29.6962L0.406546 24.6841C0.283515 24.617 0.180833 24.518 0.109293 24.3975C0.0377541 24.277 0 24.1394 0 23.9993C0 23.8591 0.0377541 23.7216 0.109293 23.6011C0.180833 23.4806 0.283515 23.3816 0.406546 23.3145L9.59054 18.3024C9.68047 18.2533 9.77919 18.2224 9.88105 18.2115C9.98292 18.2006 10.0859 18.2098 10.1842 18.2387C10.2825 18.2676 10.3742 18.3155 10.454 18.3798C10.5337 18.4441 10.6 18.5235 10.6491 18.6134C10.6982 18.7034 10.7291 18.8021 10.74 18.904C10.751 19.0058 10.7417 19.1088 10.7128 19.2071C10.684 19.3054 10.636 19.3971 10.5717 19.4769C10.5074 19.5566 10.428 19.6229 10.3381 19.672L2.40865 23.9993L10.339 28.3266L24.9615 36.3073L39.585 28.3266L47.5154 23.9993L39.585 19.672C39.4034 19.5729 39.2686 19.4057 39.2102 19.2071C39.1519 19.0086 39.1748 18.7951 39.274 18.6134C39.3731 18.4318 39.5403 18.297 39.7388 18.2387C39.9374 18.1803 40.1509 18.2033 40.3325 18.3024L49.5165 23.3145C49.6396 23.3816 49.7422 23.4806 49.8138 23.6011C49.8853 23.7216 49.9231 23.8591 49.9231 23.9993C49.9231 24.1394 49.8853 24.277 49.8138 24.3975C49.7422 24.518 49.6396 24.617 49.5165 24.6841L40.3325 29.6962L25.3353 37.8807C25.2206 37.9429 25.0921 37.9753 24.9615 37.975Z" fill="#333333"/>
<path d="M24.9615 47.9997C24.8309 47.9997 24.7024 47.9668 24.5878 47.9042L0.406546 34.7085C0.283515 34.6414 0.180833 34.5424 0.109293 34.4219C0.0377541 34.3014 0 34.1638 0 34.0237C0 33.8836 0.0377541 33.746 0.109293 33.6255C0.180833 33.505 0.283515 33.406 0.406546 33.3389L9.59054 28.3268C9.68047 28.2777 9.77919 28.2468 9.88105 28.2359C9.98292 28.225 10.0859 28.2342 10.1842 28.2631C10.2825 28.292 10.3742 28.3399 10.454 28.4042C10.5337 28.4685 10.6 28.5479 10.6491 28.6378C10.6982 28.7278 10.7291 28.8265 10.74 28.9284C10.751 29.0302 10.7417 29.1333 10.7128 29.2316C10.684 29.3299 10.636 29.4215 10.5717 29.5013C10.5074 29.581 10.428 29.6473 10.3381 29.6964L2.40767 34.0237L24.9615 46.3308L47.5144 34.0227L39.584 29.6955C39.4024 29.5963 39.2676 29.4291 39.2093 29.2306C39.1509 29.0321 39.1739 28.8185 39.273 28.6369C39.3721 28.4552 39.5393 28.3204 39.7379 28.2621C39.9364 28.2038 40.1499 28.2267 40.3316 28.3258L49.5156 33.3379C49.6386 33.405 49.7413 33.504 49.8128 33.6245C49.8844 33.745 49.9221 33.8826 49.9221 34.0227C49.9221 34.1629 49.8844 34.3004 49.8128 34.4209C49.7413 34.5414 49.6386 34.6404 49.5156 34.7075L25.3343 47.9032C25.2201 47.966 25.0919 47.9992 24.9615 47.9997Z" fill="#333333"/>
</svg>
