<?xml version="1.0" encoding="UTF-8"?>
<svg id="Illustration" xmlns="http://www.w3.org/2000/svg" viewBox="0 0 1820.63 1830">
  <defs>
    <style>
      .cls-1 {
        fill: #fff;
      }
    </style>
  </defs>
  <g>
    <g>
      <path d="M1094.26,1022.26l-261.21-39.03c-1.69,0-2.25,1.57-2.25,3.08v222.24c0,21.28-148.41,76.56-149.86,73.75l-.18,23.52c-.01,4.38,3.84,8.26,8.75,8.26h3.33l219.01,40.67c10.16,0,20.2-2.27,29.4-6.13l120.41-50.7c21.68-9.13,35.35-28.73,35.35-50.11v-222.46c0-1.51-1.06-3.08-2.75-3.08Z"/>
      <g>
        <path class="cls-1" d="M804.35,970.29v222.28c0,21.91-14.1,41.88-36.26,51.34l-81.23,34.67c-5.31,2.26-3.5,9.38,2.38,9.38l223.18,40.67c10.04,0,19.95-1.98,29.02-5.8l90-37.89c22.32-9.4,36.56-29.44,36.56-51.47v-222.51c0-.91-.83-1.65-1.85-1.65l-259.97-40.67c-1.02,0-1.85,.74-1.85,1.65Z"/>
        <path d="M912.43,1330.84c-.13,0-.27-.01-.4-.04l-223-40.63c-3.68-.09-6.7-2.46-7.39-5.82-.67-3.27,1.08-6.4,4.35-7.8l81.23-34.67c21.21-9.05,34.92-28.4,34.92-49.3v-222.28c0-2.13,1.82-3.86,4.06-3.86,.11,0,.23,0,.34,.03l259.83,40.64c2.14,.1,3.86,1.79,3.86,3.86v222.51c0,22.8-14.88,43.81-37.92,53.5l-90,37.89c-9.29,3.91-19.62,5.98-29.88,5.98Zm-105.87-359.9v221.63c0,22.67-14.76,43.62-37.6,53.37l-81.23,34.67c-1.34,.57-2,1.64-1.75,2.84,.22,1.06,1.2,2.29,3.27,2.29,.13,0,.27,.01,.4,.04l222.99,40.63c9.61-.03,19.28-1.97,27.97-5.63l90-37.89c21.39-9.01,35.21-28.41,35.21-49.42v-221.97l-259.24-40.55Z"/>
      </g>
    </g>
    <g>
      <path d="M1500.32,1200.39l-29.14,27.2-1080.49-186.98,11.58-699.44,34.96-18.77c6.42-3.42,13.8-4.58,20.96-3.29l1025.54,185.02c15.39,2.78,26.58,16.18,26.58,31.82l.22,640.84c0,8.94-3.7,17.48-10.22,23.59Z"/>
      <g>
        <path class="cls-1" d="M1446.15,1231.45l-1034.27-186.75c-12.86-2.32-22.21-13.51-22.21-26.58V367.87c0-16.84,15.24-29.57,31.81-26.58l1034.27,186.75c12.86,2.32,22.21,13.51,22.21,26.58v650.24c0,16.84-15.24,29.57-31.81,26.58Z"/>
        <path d="M1450.98,1234.09c-1.74,0-3.48-.15-5.22-.47l-1034.27-186.75c-13.92-2.51-24.03-14.61-24.03-28.76V367.87c0-8.68,3.82-16.86,10.48-22.42,6.66-5.57,15.38-7.88,23.93-6.33l1034.27,186.75c13.92,2.51,24.03,14.61,24.03,28.76v650.25c0,8.68-3.82,16.86-10.48,22.42-5.31,4.43-11.92,6.8-18.71,6.8Zm-4.43-4.82c7.25,1.31,14.65-.65,20.3-5.37,5.65-4.72,8.9-11.66,8.9-19.03V554.62c0-12-8.57-22.27-20.39-24.4L421.09,343.47c-7.25-1.31-14.65,.65-20.3,5.37-5.65,4.72-8.9,11.66-8.9,19.03V1018.12c0,12,8.57,22.27,20.39,24.4l1034.27,186.75Z"/>
      </g>
      <g>
        <path class="cls-1" d="M1281.57,1083.77l-714.19-128.96c-4.28-.77-7.39-4.5-7.39-8.85V489.85c0-5.6,5.07-9.84,10.59-8.85l714.19,128.95c4.28,.77,7.39,4.5,7.39,8.85v456.12c0,5.6-5.07,9.84-10.59,8.85Z"/>
        <path d="M1283.18,1086.13c-.67,0-1.34-.06-2-.18l-714.19-128.96c-5.34-.96-9.21-5.6-9.21-11.03V489.85c0-3.33,1.47-6.46,4.02-8.6,2.55-2.13,5.89-3.02,9.17-2.43l714.19,128.96c5.34,.96,9.21,5.6,9.21,11.03v456.12c0,3.33-1.47,6.46-4.02,8.6-2.03,1.7-4.57,2.61-7.17,2.61Zm-1.21-4.54c1.99,.36,4.01-.18,5.55-1.47,1.55-1.29,2.43-3.19,2.43-5.2v-456.12c0-3.28-2.34-6.09-5.57-6.67l-714.19-128.96c-1.98-.36-4,.18-5.55,1.47-1.55,1.29-2.43,3.19-2.43,5.2v456.12c0,3.28,2.34,6.09,5.57,6.67l714.19,128.96Z"/>
      </g>
      <g>
        <path d="M1232.34,713.25c-.13,0-.26-.01-.4-.04l-613.91-110.85c-1.2-.22-2-1.37-1.78-2.57,.22-1.2,1.36-2,2.57-1.78l613.91,110.85c1.2,.22,2,1.37,1.79,2.57-.19,1.07-1.13,1.82-2.18,1.82Z"/>
        <path d="M1154.71,743.35c-.13,0-.26-.01-.4-.04l-536.28-96.83c-1.2-.22-2-1.37-1.78-2.57,.22-1.2,1.36-2,2.57-1.78l536.28,96.83c1.2,.22,2,1.37,1.79,2.57-.19,1.07-1.13,1.82-2.18,1.82Z"/>
        <path d="M1232.34,801.49c-.13,0-.26-.01-.4-.04l-612.13-110.3c-1.2-.22-2-1.37-1.79-2.57,.22-1.2,1.36-2,2.57-1.79l612.13,110.3c1.2,.22,2,1.37,1.79,2.57-.19,1.07-1.13,1.82-2.18,1.82Z"/>
        <path d="M1232.34,845.61c-.13,0-.26-.01-.4-.04l-173.34-31.3c-1.2-.22-2-1.37-1.79-2.57,.22-1.2,1.35-2,2.57-1.78l173.34,31.3c1.2,.22,2,1.37,1.79,2.57-.19,1.07-1.13,1.82-2.18,1.82Z"/>
        <path d="M867.81,779.79c-.13,0-.26-.01-.4-.04l-249.37-45.03c-1.2-.22-2-1.37-1.78-2.57,.22-1.2,1.36-2,2.57-1.78l249.37,45.03c1.2,.22,2,1.37,1.78,2.57-.19,1.07-1.13,1.82-2.18,1.82Z"/>
        <path d="M1232.34,889.73c-.13,0-.26-.01-.4-.04l-121.99-22.03c-1.2-.22-2-1.37-1.79-2.57,.22-1.2,1.35-2,2.57-1.78l121.99,22.03c1.2,.22,2,1.37,1.79,2.57-.19,1.07-1.13,1.82-2.18,1.82Z"/>
        <path d="M998.38,847.48c-.13,0-.26-.01-.4-.04l-379.95-68.6c-1.2-.22-2-1.37-1.78-2.57,.22-1.2,1.36-2,2.57-1.78l379.95,68.6c1.2,.22,2,1.37,1.79,2.57-.19,1.07-1.13,1.82-2.18,1.82Z"/>
        <path d="M1232.34,933.84c-.13,0-.26-.01-.4-.04l-616.09-111.78c-1.2-.22-2-1.37-1.78-2.57,.22-1.2,1.36-2,2.57-1.78l616.09,111.78c1.2,.22,2,1.37,1.78,2.57-.19,1.07-1.13,1.82-2.18,1.82Z"/>
        <path d="M1102.77,954.57c-.13,0-.26-.01-.4-.04l-484.34-87.45c-1.2-.22-2-1.37-1.78-2.57,.22-1.2,1.36-2,2.57-1.78l484.34,87.45c1.2,.22,2,1.37,1.79,2.57-.19,1.07-1.13,1.82-2.18,1.82Z"/>
      </g>
    </g>
  </g>
  <g>
    <g>
      <g>
        <g>
          <ellipse class="cls-1" cx="1232.95" cy="1407.36" rx="92.72" ry="54.15" transform="translate(-321.3 365.66) rotate(-14.95)"/>
          <path d="M1208.72,1467.06c-34.21,0-61.59-13.12-67.49-35.22-3.94-14.77,2.07-31.15,16.93-46.13,14.55-14.67,35.95-26.33,60.25-32.81,50.57-13.5,98.24-.06,106.26,29.97,8.01,30.03-26.61,65.44-77.18,78.94-13.35,3.56-26.5,5.25-38.76,5.25Zm48.84-115.04c-11.98,0-24.88,1.66-38.01,5.16-23.55,6.29-44.24,17.53-58.25,31.66-13.7,13.82-19.31,28.69-15.79,41.87,7.39,27.67,52.63,39.7,100.84,26.83,48.22-12.87,81.43-45.85,74.05-73.52-5.38-20.14-30.8-31.99-62.83-31.99Z"/>
        </g>
        <g>
          <path class="cls-1" d="M1163.9,1439.58c5.65-4.42,12.4-7.26,19.54-8.19,21.98-2.85,25.48-5.19,69.55-27.06,32.98-16.37,71.13,3.44,90.57-24.39,11.3-16.17-40.2-79.07-120.63-60.87-45.78,10.36-39.3,33.54-99.39,69.12,0,0-247.7,154.69-299.51,104.02-57.49-56.23-108.17-144.36-108.17-144.36l-149.69,181.13s189.23,129.55,302.47,124.74c66.27-2.81,295.26-214.14,295.26-214.14Z"/>
          <path d="M862.48,1656.05c-113.27,0-295.7-123.98-297.56-125.25-.51-.35-.85-.9-.94-1.52-.09-.62,.09-1.24,.49-1.72l149.69-181.13c.46-.56,1.17-.86,1.89-.8,.72,.06,1.37,.47,1.73,1.1,.51,.88,51.2,88.51,107.8,143.88,49.97,48.88,294.33-102.77,296.79-104.31,27.13-16.06,40.62-29.61,51.46-40.49,13.37-13.42,23.03-23.12,48.62-28.91,62.83-14.22,104.7,19.62,118.06,39.49,6.82,10.14,8.64,19.41,4.87,24.81-11.72,16.78-29.73,17.19-48.8,17.62-14.19,.32-28.86,.66-42.61,7.48l-8.48,4.22c-36.26,18.04-40.92,20.36-61.77,23.06-6.69,.87-13.05,3.52-18.39,7.68-10.31,9.51-230.44,211.85-296.61,214.66-2.06,.09-4.14,.13-6.25,.13Zm-293.05-127.55c20.24,13.53,187.51,123.12,292.98,123.13,2.07,0,4.1-.04,6.13-.13,64.71-2.75,291.57-211.44,293.86-213.55,.04-.04,.09-.08,.14-.12,5.98-4.68,13.11-7.66,20.62-8.64,20.11-2.61,23.92-4.5,60.37-22.63l8.48-4.22c14.63-7.26,29.8-7.61,44.47-7.94,18.69-.43,34.83-.79,45.27-15.73,2.6-3.72,.67-11.49-4.92-19.8-12.77-19.01-52.92-51.34-113.41-37.65-24.33,5.51-33.61,14.82-46.46,27.72-11.02,11.06-24.73,24.83-52.3,41.15-8.64,5.4-184.37,114.43-268.34,114.44-14.44,0-26.15-3.22-33.85-10.75-51.37-50.24-97.82-126.72-106.93-142.1l-146.12,176.81Z"/>
        </g>
        <path d="M468.15,1071.8c-85.34-27.63-225.06-48.3-281.01-41.4-62.13,7.66-132.36,76.98-86.22,354.76,9.04,54.43,15.76,103.57,25.33,147.13,57.72,83.83,134.29,155.48,235.85,207.56,44.9,23.02,228.7,76.23,447.24,90.14-97.4-102.09-127.8-184.84-135.52-210.98-1.09-3.7,2.42-7.08,6.08-5.87l10.79,3.58c9,2.99,18.89-.47,24.04-8.44,26.57-41.11,100.58-167.79,65.34-254.37-10.99-26.99-164.45-234.38-311.91-282.11Z"/>
      </g>
      <g>
        <g>
          <path class="cls-1" d="M472.09,759.3s20.45,30.65,21.7,55.98c.33,6.7,3.12,28.11,19.61,51.52,1.59,2.26,1.24,5.33-.85,7.19l-15.76,14.05c-1.09,.97-1.71,2.32-1.72,3.76-.05,8.94-.33,41.98-1.4,48.13-1.25,7.14-6.98,13.44-9.83,14.98-7.52,4.06-40.11-.09-40.11-.09,0,0-8.74,.83-25.88,47.22-18.51,50.1,19.88,69.03,19.88,69.03,14.42,7.53,14.69,14.81-.91,19.78-53.79,17.14-165,29.67-221.15-33.36-3.2-3.6-1.6-9.36,3.09-10.75,142.68-42.08,74.68-163.35,77.7-164.15,7.71-2.04,52.03-48.74,78-62.03,17.7-9.06,39.17,4.05,53.57-9.66l44.07-51.63Z"/>
          <path d="M344.16,1106.97c-47.11,0-97.55-11.39-130.15-47.99-2.02-2.27-2.73-5.36-1.89-8.29,.83-2.93,3.08-5.19,6.01-6.05,40.15-11.84,67.18-31.18,80.34-57.48,19.55-39.07,3.03-83.5-2.4-98.11-1.9-5.1-2.29-6.16-1.65-7.4,.29-.55,.86-1.02,1.47-1.18,2.66-.7,13.18-10.13,23.35-19.25,17.22-15.44,38.66-34.65,54.21-42.61,8.56-4.38,17.7-3.91,26.53-3.46,9.91,.51,19.27,.99,26.44-5.76l44-51.54c.45-.53,1.1-.82,1.81-.77,.69,.04,1.33,.4,1.71,.98,.85,1.27,20.8,31.45,22.07,57.1,.21,4.15,2.09,26.05,19.21,50.36,2.24,3.17,1.73,7.53-1.19,10.12l-15.76,14.05c-.63,.56-.98,1.31-.98,2.12-.06,9.79-.34,42.22-1.44,48.5-1.32,7.56-7.32,14.58-10.96,16.54-7.61,4.11-35.71,.87-40.92,.23-1.47,.76-9.58,6.56-24.05,45.72-17.57,47.55,17.29,65.54,18.79,66.28,8.49,4.43,12.4,8.78,12.01,13.31-.38,4.39-4.71,7.85-13.23,10.57-22.66,7.22-57,13.99-93.33,13.99Zm-45.25-223.04c.32,.95,.82,2.28,1.3,3.59,5.6,15.05,22.62,60.84,2.21,101.63-13.73,27.44-41.67,47.54-83.05,59.74-1.49,.44-2.58,1.54-3,3.02-.42,1.46-.06,3,.94,4.13,56.24,63.12,167.73,49,218.83,32.72,8.89-2.83,10.07-5.65,10.16-6.73,.1-1.14-.64-4.3-9.6-8.98-.36-.18-39.91-20.39-20.93-71.76,16.35-44.26,25.37-48.43,27.75-48.66,.16-.02,.33-.01,.49,0,12.33,1.57,33.76,3.05,38.78,.33,2.45-1.32,7.6-7.1,8.7-13.41,.83-4.72,1.25-27.77,1.37-47.77,.01-2.04,.91-4.01,2.46-5.39l15.76-14.05c1.25-1.12,1.47-2.91,.51-4.27-17.82-25.3-19.79-48.33-20.01-52.69-1.01-20.33-14.99-44.63-19.76-52.37l-42.13,49.35c-.05,.06-.1,.11-.16,.17-8.56,8.14-19.36,7.58-29.8,7.05-8.25-.42-16.79-.86-24.29,2.98-15.04,7.69-36.23,26.69-53.27,41.96-11.97,10.73-19.2,17.14-23.27,19.41Z"/>
        </g>
        <path d="M512.02,865.3c-1.15,0-2.12-.89-2.21-2.05-.09-1.22,.83-2.28,2.05-2.37,4.87-.35,8.6-2.31,11.4-6,8.24-10.86,5.52-32.93,4.42-39.79l-111.68,17.53c-1.2,.19-2.34-.63-2.53-1.84-.19-1.21,.64-2.34,1.84-2.53l113.83-17.87c1.18-.19,2.28,.59,2.51,1.75,.26,1.26,6.13,30.94-4.86,45.43-3.56,4.69-8.48,7.3-14.61,7.74-.05,0-.11,0-.16,0Z"/>
        <path d="M415.24,878.65c-9.4,0-24.16-3.46-32.16-23.13-4.92-12.07-3.31-22.79,4.3-28.65,7.91-6.1,20.08-5.36,29.61,1.79,3.57,2.68,8.26,10.16,8.79,11.01,.64,1.04,.32,2.4-.72,3.05-1.04,.65-2.4,.32-3.05-.71-1.3-2.1-5.22-7.95-7.68-9.8-7.94-5.96-17.91-6.71-24.24-1.82-6.03,4.65-7.09,13.21-2.91,23.48,10.76,26.43,34.44,19.82,35.44,19.53,1.18-.34,2.4,.33,2.75,1.5,.35,1.17-.32,2.4-1.49,2.75-.1,.03-3.6,1.03-8.64,1.03Z"/>
        <path d="M514.06,683.4c-10.46-17.54-21.71-32.6-56.09-39.37-23.54-4.64-61.93,12.74-80.82,32.79-1.58,1.67-4.09,1.73-5.4,.07-4.06-5.12-13.7-16.7-22.24-17.72-24.72-2.94-50.04,29.09-59.04,45.56-6.57,12.03-17.65,39.23-23.24,70.84-.35,1.98-2.15,3.44-4.1,3.26-7.45-.71-22.38-.68-35.64,9.13-23.64,17.49-21.08,43.12-20.8,46.25,3.21,36.51,40.32,63.48,68.45,78.11,19.09,9.93,26.26,11.35,37.49,13.95,.65,.15,1.33,.1,1.97-.11,9.94,1.46,26.82,2.21,45.62-4.31,29.88-10.37,27.62-59.94,27.62-59.94l-3.76-9.35c-2.28-5.66-2.6-12.05-.29-17.7,7.05-17.24,33.07-4.29,34.04-4.49,48.96-10.17,66.25-24.5,75.14-34.26,31.87-34.98,46.42-70.24,21.1-112.7Z"/>
      </g>
    </g>
    <g>
      <g>
        <path d="M520.2,1438.07c-.12-.02-.24-.03-.36-.05l-106.6-8.4c-97.71-7.7-191.96-39.7-274.06-93.19-.64-.41-1.27-.83-1.92-1.24-12.87-8.3-28.61-10.9-43.47-7.17l-14.48,3.64c-9.13,2.29-17.57,6.82-24.42,13.27-1.59,1.49-2.61,2.63-2.61,3.02l13.75,79.24c61.07,128.98,154.18,239.92,296.06,312.68,29.29,15.02,117.73,42.89,236.37,64.32-.2-28.65-.48-68.15-.48-68.2v-202.95c0-46.12-32.55-85.84-77.78-94.95Z"/>
        <path class="cls-1" d="M598.46,1806.39c-.13,0-.26-.01-.39-.04-112.64-20.34-204.48-47.86-236.99-64.53-68.08-34.91-128.28-80.58-178.95-135.73-46.32-50.42-86.05-110.3-118.1-177.97-.09-.18-.15-.37-.18-.57l-13.75-79.24c-.02-.12-.03-.25-.03-.37,0-1.05,.47-1.97,3.31-4.64,7.04-6.63,15.83-11.4,25.4-13.81l14.48-3.64c15.39-3.86,31.86-1.15,45.2,7.46l1.92,1.25c81.46,53.08,175.87,85.18,273.02,92.84l107.09,8.47s.09,.01,.14,.02c46.1,9.29,79.56,50.13,79.56,97.12v202.96l.48,68.18c0,.66-.28,1.29-.79,1.71-.4,.34-.91,.52-1.43,.52ZM68.17,1426.5c66.53,140.37,165.77,245.14,294.94,311.38,25.87,13.27,109.17,41.07,233.13,63.63l-.37-52.58c-.06-7.85-.09-12.95-.09-12.96v-202.96c0-44.87-31.93-83.87-75.94-92.77l-.29-.04-106.47-8.39c-97.88-7.72-193.01-40.06-275.09-93.55l-1.91-1.24c-12.31-7.94-27.52-10.45-41.73-6.89l-14.48,3.64c-8.84,2.22-16.95,6.63-23.45,12.74-.99,.93-1.53,1.51-1.81,1.83l13.56,78.14Zm-13.85-77.77h0s0,0,0,0Z"/>
      </g>
      <path class="cls-1" d="M373.55,1801.49c-161.93-32.27-230.79-71.07-280.39-100.17-31.65-18.57-51.07-52.52-51.07-89.19v-241.33c0-25.47,27.5-41.46,49.66-28.88,8.17,4.64,15.97,9.47,23.52,14.41,81.67,53.36,175.56,85.11,272.84,92.78l107.44,8.47c45.33,9.04,77.96,48.8,77.96,94.99,0,0-.84,265.55-4.09,267.72-14.8,9.86-195.88-18.8-195.88-18.8Z"/>
      <path d="M497.56,1785.15c-.17,0-.35-.02-.52-.06-31.22-7.58-60.73-15.79-85.33-23.76-22.39-7.25-39.89-13.99-50.63-19.5-17.49-8.97-34.65-18.74-50.99-29.05-104.98-66.2-187.6-161.62-245.57-283.6-.52-1.1-.06-2.42,1.05-2.95,1.11-.52,2.42-.06,2.95,1.05,57.6,121.21,139.67,216.01,243.94,281.75,16.23,10.23,33.27,19.94,50.65,28.85,10.38,5.32,28.12,12.15,49.97,19.23,24.5,7.93,53.89,16.12,85.01,23.67,1.19,.29,1.92,1.48,1.63,2.67-.25,1.01-1.15,1.69-2.15,1.69Z"/>
    </g>
  </g>
  <g>
    <g>
      <g>
        <ellipse class="cls-1" cx="1550.96" cy="1082.84" rx="220.46" ry="221.96"/>
        <g>
          <path d="M1492.65,878.75c-.91,1.34,1.79,5.84,7.14,5.84s8.03-.9,10.26,4.94c2.23,5.84-.89,25.61,2.23,32.8s8.48,11.68,12.5,7.64c4.02-4.04,3.57-14.83,8.48-17.52,4.91-2.7,22.76-13.48,23.65-22.46,.89-8.99-5.36-15.73-20.97-17.52-15.62-1.8-36.59-3.59-43.29,6.29Z"/>
          <path d="M1434.98,1080.05c-2.09,1.17-3.34,3.42-3.23,5.82,.32,7.54-2.52,26.31-8.48,32.31-7.59,7.64-4.79,21.4-4.91,26.96-.24,11.28,.84,16.3,12.89,21.7,12.05,5.39,16.77,5.7,17.66,16.48,.89,10.78,2.28,52.44,5.85,63.22,3.57,10.78,11.16,28.31,15.17,32.35,4.02,4.04,13.39,6.29,7.59-8.99-5.8-15.28-9.37-22.46-2.68-31,6.69-8.54,17.85-28.31,18.74-35.94,.89-7.64,4.91-12.13,8.48-13.03,3.57-.9,11.16-3.59,13.39-6.29,2.23-2.7-2.23-10.33-3.57-17.07s-1.34-10.78,9.82-16.17c11.16-5.39,5.8-20.67-9.37-24.71-15.17-4.04-24.55-12.58-22.76-21.12,1.79-8.54-10.26-7.64-17.4-11.68-7.14-4.04-6.93-10.39-14.87-13.42-10.74-4.09-18.28-1.68-22.31,.59Z"/>
          <path d="M1711.47,1070.63c-3.76-5.68-3.29-14.67,6.11-26.98,7.38-9.67-3.21-19.33-8.1-23.03-.9-.68-.49-2.09,.62-2.22,6.06-.69,20.1,1.36,26.28,32.82,7.99,40.7,11.28,26.5,15.51,21.77,4.23-4.73-3.68-13.57,4.23-22.72,4.99-5.76,7.52-14.17,8.81-21.03-15.9-64.56-59.85-117.96-118.09-146.33,.09,7.09-1.61,31.77-30.33,21.59,0,0-17.86-8.52-13.63,26.03,4.23,34.55,18.8-2.37,21.62-3.79,2.82-1.42,10.34-3.31,7.05,19.88,0,0-.47,8.05-15.04,6.63-14.57-1.42-17.39,5.68-17.39,9.47s1.41,13.72-6.58,20.82c-7.99,7.1-5.64,25.56,5.17,19.4,10.81-6.15,18.33-25.56,28.2-27.45,9.87-1.89,18.8,10.89,28.2,7.57,9.4-3.31,5.17-19.4,9.87-19.4s14.57,9.47,13.16,16.56c-1.41,7.1-15.98,10.41-12.22,18.93,3.76,8.52,11.75,5.68,14.1,11.36,2.35,5.68-11.75,12.3-23.03,5.21-11.28-7.1-13.16,3.31-18.8-1.42-5.64-4.73-6.11-14.67-14.1-11.36-7.99,3.31-12.69,9.94-23.03,14.67-10.34,4.73-18.8,10.89-18.8,17.51s3.76,13.72,1.88,24.14c-1.88,10.41-5.17,38.81,28.67,33.13,33.85-5.68,29.61,11.83,29.61,13.72s-.47,26.5,2.82,30.76c3.29,4.26,10.81,16.56,0,32.65-10.81,16.09-6.58,52.06,3.29,47.33,9.87-4.73,19.74-23.19,31.96-32.65,12.22-9.47,29.15-50.64,22.09-63.42-7.05-12.78,9.87-23.19,12.22-31.71,2.35-8.52,1.41-12.78-2.35-18.46Z"/>
          <path d="M1391.79,929.27c.18,7.88-1.21,16.46-5.79,24.5-13.83,24.26-13.39,36.39-14.73,60.65-1.34,24.26,29.11,67.03,36.7,71.52,7.59,4.49,8.76-6.19,8.76-14.73s-3.24-18.78-7.7-28.66c-4.46-9.88-4.46-16.17-3.12-20.22,1.34-4.04,6.69-5.39,10.26-1.35,3.57,4.04,12.15,7.63,16.27,5.1,5.07-3.11,3.1-15.27,4.88-19.31,1.79-4.04,11.6-6.74,15.62-15.28,4.02-8.54,10.71-12.13,18.74-16.18,8.03-4.04,15.17-5.84,16.51-8.54,1.34-2.7-.45-8.99,1.78-16.17,2.23-7.19,7.59-15.73,5.36-19.32-2.23-3.59-8.93-9.43-21.42-.45s-15.62,8.99-19.19,2.25,4.02-24.26,19.64-24.26,18.74-5.39,19.19-9.43c.45-4.04-4.46-8.54-9.82-9.44-5.36-.9-6.25,2.25-28.56,11.23-14.89,6-27.99,4.59-35.05,2.99-10.14,7.54-19.62,15.93-28.32,25.07Z"/>
          <path d="M1732.54,1183.93c-.37,10.06-9.62,19.75-15.17,23.1-5.55,3.35-14.06,8.57-14.06,17.14,0,5.52-.15,12.57,1.13,18,29.38-28.69,35.19-34.24,52.01-77.5-.87-5.5-23.53,9.21-23.9,19.27Z"/>
        </g>
      </g>
      <path d="M1550.96,1307.01c-122.78,0-222.68-100.56-222.68-224.17s99.89-224.17,222.68-224.17,222.68,100.56,222.68,224.17-99.89,224.17-222.68,224.17Zm0-443.91c-120.34,0-218.25,98.58-218.25,219.74s97.91,219.74,218.25,219.74,218.25-98.58,218.25-219.74-97.91-219.74-218.25-219.74Z"/>
    </g>
    <g>
      <path d="M1407.02,1293.65c-4.94,7.26-2.78,17.18,4.72,21.75,40.64,24.71,88.28,38.93,139.22,38.93,148.93,0,269.67-121.55,269.67-271.49,0-87.45-41.07-165.25-104.85-214.9-6.95-5.41-17.02-3.85-22.03,3.4-4.62,6.69-3.2,15.8,3.22,20.79,56.66,44.03,93.15,113.08,93.15,190.71,0,132.98-107.07,240.78-239.16,240.78-45.12,0-87.31-12.58-123.32-34.44-6.97-4.23-16.03-2.27-20.62,4.47Z"/>
      <rect x="1536.09" y="1337.86" width="30.29" height="101.78"/>
      <ellipse cx="1551.14" cy="1431.55" rx="93.11" ry="27.78"/>
    </g>
  </g>
  <g>
    <polygon points="1132.14 353.72 948.59 324.25 1042.08 76.63 1225.63 106.1 1132.14 353.72"/>
    <polygon points="923.77 316.45 776.44 257.53 863.47 26.67 1009.9 88.14 923.77 316.45"/>
    <path d="M948.94,324.33c-8.57,3.91-20.66,.39-25.17-7.88l86.68-231.5c4.21,8.47,16.22,12.35,24.95,8.71l-86.46,230.67Z"/>
    <g>
      <path d="M953.41,311.97c-8.57,3.91-20.66,.39-25.17-7.88l85.78-228.94c4.21,8.47,16.22,12.35,24.95,8.71l-85.56,228.11Z"/>
      <path d="M945.79,315.77c-7.86,0-15.9-4.02-19.49-10.62-.31-.56-.35-1.23-.13-1.84l85.78-228.94c.31-.83,1.08-1.39,1.96-1.43,.93-.05,1.7,.44,2.1,1.23,3.58,7.19,14.33,10.91,22.11,7.65,.82-.34,1.75-.16,2.39,.45,.64,.61,.85,1.54,.54,2.37l-85.56,228.11c-.21,.55-.62,.99-1.15,1.24-2.66,1.21-5.58,1.78-8.53,1.78Zm7.62-3.79h0Zm-22.72-8.1c4.06,6.23,13.74,9.2,20.98,6.43l83.7-223.14c-7.54,1.21-15.88-1.7-20.77-7.24l-83.91,223.96Z"/>
    </g>
    <g>
      <polygon class="cls-1" points="789 249.6 928.1 305.46 937.82 297.22 1016.24 87.97 999.76 81.49 871.44 11.86 784.78 217.87 789 249.6"/>
      <path d="M928.1,307.67c-.28,0-.56-.05-.83-.16l-139.1-55.86c-.74-.3-1.26-.97-1.37-1.76l-4.22-31.73c-.05-.39,0-.79,.15-1.15L869.4,11c.24-.58,.72-1.02,1.31-1.23,.59-.21,1.24-.16,1.79,.14l128.2,69.57,16.35,6.43c1.12,.44,1.69,1.7,1.26,2.84l-78.42,209.25c-.13,.35-.35,.67-.64,.91l-9.72,8.23c-.41,.34-.92,.52-1.43,.52Zm-137.08-59.64l136.67,54.88,8.26-7,77.45-206.67-14.45-5.68c-.08-.03-.17-.07-.24-.11L872.53,14.97l-85.48,203.2,3.97,29.85Z"/>
    </g>
    <g>
      <path class="cls-1" d="M784.95,217.01c-.29,.77,.1,1.63,.87,1.9,12.12,4.29,99.51,35.71,130.41,60.78l21.59,17.52,81.89-218.5-17.27-14.56c-27.39-23.1-103.89-52.39-128.44-61.44-4.25-1.57-8.96,.6-10.55,4.84l-78.5,209.45Z"/>
      <path d="M937.82,299.44c-.5,0-1-.17-1.39-.49l-21.59-17.52c-30.79-24.99-119.71-56.86-129.75-60.42-.94-.33-1.68-1.01-2.1-1.91-.42-.9-.46-1.92-.11-2.86h0S861.38,6.78,861.38,6.78c2.01-5.37,8.02-8.12,13.39-6.14,23.26,8.58,101.31,38.39,129.1,61.83l17.27,14.56c.72,.6,.97,1.59,.65,2.47l-81.89,218.5c-.25,.67-.81,1.17-1.49,1.36-.19,.05-.38,.08-.58,.08Zm-150.53-82.35c13.05,4.64,99.62,35.96,130.34,60.9l19.2,15.58,80.26-214.16-16.07-13.56c-27.24-22.97-104.69-52.54-127.78-61.06-3.09-1.14-6.55,.45-7.71,3.54l-78.23,208.75Z"/>
    </g>
    <g>
      <path class="cls-1" d="M937.82,297.22l16.86,14.46,168.49,27.66,83.24-225.92-12.13-20.93c-.32-.56-.94-.87-1.58-.8-6.88,.82-45.87,5.18-62.05,.95-24.82-6.49-50.92-6.31-76.02-1.02l-32.22,6.79-84.58,198.82Z"/>
      <path d="M1123.16,341.55c-.12,0-.24,0-.36-.03l-168.49-27.66c-.4-.07-.77-.24-1.08-.5l-16.86-14.46c-.73-.63-.97-1.66-.59-2.55l84.58-198.82c.28-.67,.87-1.15,1.58-1.3l32.22-6.79c26.45-5.57,53.09-5.21,77.04,1.05,16.03,4.19,56.65-.46,61.23-1.01,1.53-.18,2.99,.56,3.76,1.88l12.13,20.93c.33,.57,.39,1.26,.16,1.88l-83.23,225.92c-.32,.88-1.16,1.45-2.08,1.45Zm-167.52-31.95l166.07,27.26,82.24-223.23-11.41-19.69c-8.47,1-46.27,5.08-62.47,.85-23.29-6.09-49.22-6.43-75.01-1l-31.09,6.55-83.49,196.26,15.15,13Z"/>
    </g>
    <path class="cls-1" d="M1014.17,287.12c10.96,.5,21.88,2.02,32.62,4.56,35.34,8.37,65.52,17.53,65.52,17.53l81.08-216.35c.44-1.16-.19-2.45-1.39-2.81-7.57-2.25-33.81-9.91-63.72-17.01-25.38-6.02-51.79-6.3-77.32-.92l-31.28,6.59-81.89,218.5,32.81-6.69c14.37-2.93,29.01-4.07,43.57-3.41Z"/>
    <path d="M1112.31,311.42c-.21,0-.43-.03-.64-.1,0,0-5.01-1.52-13.31-3.88-31.61-8.99-64.4-13.56-97.44-13.59l-26.21-.02c-1.22,0-2.21-.99-2.21-2.22s.99-2.21,2.21-2.21l26.22,.02c33.45,.03,66.64,4.65,98.65,13.76,5.26,1.5,9.2,2.65,11.4,3.31l80.35-214.41c-7.29-2.09-33.6-9.78-63.5-16.87-24.86-5.89-51.27-6.21-76.4-.92l-30.09,6.34-81.46,217.36c-.43,1.15-1.71,1.72-2.85,1.3-1.15-.43-1.72-1.7-1.3-2.85l81.89-218.5c.27-.71,.88-1.23,1.62-1.39l31.28-6.59c25.76-5.43,52.85-5.1,78.33,.94,30.02,7.12,56.43,14.83,63.81,17.03,1.15,.34,2.11,1.15,2.65,2.22,.54,1.08,.6,2.35,.18,3.48l-81.08,216.35c-.33,.88-1.17,1.44-2.07,1.44Z"/>
    <g>
      <g>
        <path d="M1153.06,116.92c-.2,0-.4-.03-.61-.09l-5.02-1.44c-9.24-2.66-15.92-4.58-34.02-8.87-24.83-5.89-51.23-6.2-76.35-.91-1.19,.25-2.37-.51-2.62-1.71-.25-1.2,.51-2.37,1.71-2.62,25.75-5.43,52.83-5.1,78.29,.93,18.2,4.32,24.92,6.25,34.22,8.93l5.01,1.44c1.18,.34,1.86,1.56,1.52,2.74-.28,.97-1.17,1.61-2.13,1.61Z"/>
        <path d="M1146.23,144.36c-.2,0-.41-.03-.61-.09-11.81-3.37-20.22-5.6-41.75-10.7-24.83-5.89-51.23-6.2-76.35-.91-1.19,.25-2.37-.51-2.62-1.71-.25-1.2,.51-2.37,1.71-2.62,25.75-5.43,52.83-5.1,78.28,.93,21.61,5.12,30.06,7.37,41.94,10.75,1.18,.34,1.86,1.56,1.52,2.74-.28,.97-1.17,1.61-2.13,1.61Z"/>
        <path d="M1132.51,169.68c-.2,0-.41-.03-.61-.09-9.34-2.66-14.69-3.92-26.4-6.67-3.47-.81-7.49-1.76-12.34-2.91-13.12-3.11-26.62-4.69-40.15-4.69-1.28,0-2.25-.98-2.25-2.21s1.04-2.21,2.25-2.21c13.87,0,27.72,1.62,41.17,4.81,4.84,1.15,8.86,2.09,12.33,2.9,11.78,2.76,17.16,4.03,26.6,6.72,1.18,.34,1.86,1.56,1.52,2.74-.28,.97-1.17,1.61-2.13,1.61Z"/>
        <path d="M1125.79,198.15c-.2,0-.41-.03-.61-.09-2.74-.78-5.32-1.54-7.92-2.3-8.9-2.61-18.1-5.31-34.55-9.21-24.83-5.89-51.23-6.2-76.35-.91-1.19,.25-2.37-.51-2.62-1.71-.25-1.2,.51-2.37,1.71-2.62,25.76-5.43,52.83-5.1,78.29,.93,16.56,3.93,25.82,6.64,34.77,9.27,2.59,.76,5.17,1.52,7.89,2.29,1.18,.34,1.86,1.56,1.52,2.74-.28,.97-1.17,1.61-2.13,1.61Z"/>
        <path d="M1102.69,217.24c-.19,0-.38-.02-.57-.07-10.18-2.7-20.12-5.2-29.56-7.44-24.83-5.89-51.23-6.2-76.35-.91-1.19,.25-2.37-.51-2.62-1.71s.51-2.37,1.71-2.62c25.75-5.43,52.83-5.1,78.28,.93,9.48,2.25,19.46,4.76,29.68,7.47,1.18,.31,1.89,1.53,1.57,2.71-.26,.99-1.16,1.65-2.14,1.65Z"/>
        <path d="M1061.23,233.94c-.15,0-.31-.02-.46-.05-23.98-5.12-48.38-5.13-72.52-.05-1.19,.25-2.37-.51-2.62-1.71-.25-1.2,.51-2.37,1.71-2.62,24.75-5.21,49.76-5.2,74.36,.05,1.2,.26,1.96,1.43,1.7,2.63-.22,1.04-1.14,1.75-2.16,1.75Z"/>
        <path d="M1090.56,271.24c-.2,0-.41-.03-.61-.09-11.24-3.21-16.55-4.47-34.15-8.64l-4.34-1.03c-24.83-5.89-51.23-6.2-76.35-.91-1.19,.25-2.37-.51-2.62-1.71-.25-1.2,.51-2.37,1.71-2.62,25.75-5.43,52.83-5.1,78.29,.93l4.34,1.03c17.67,4.19,23.01,5.45,34.35,8.69,1.18,.34,1.86,1.56,1.52,2.74-.28,.97-1.17,1.61-2.13,1.61Z"/>
      </g>
      <g>
        <path d="M937.92,69.81c-.38,0-.76-.1-1.11-.3-21.9-12.69-44.49-22.75-57.18-27.51-1.14-.43-1.72-1.71-1.3-2.85,.43-1.14,1.7-1.72,2.85-1.3,12.85,4.82,35.71,14.99,57.84,27.82,1.06,.61,1.42,1.97,.81,3.02-.41,.71-1.15,1.1-1.92,1.1Z"/>
        <path d="M968.84,139.66c-.65,0-1.3-.29-1.73-.84-15.83-19.89-42.16-33.89-65.61-45.45-1.1-.54-1.55-1.87-1.01-2.96,.54-1.1,1.87-1.55,2.96-1.01,23.88,11.77,50.72,26.06,67.12,46.66,.76,.96,.6,2.35-.35,3.11-.41,.32-.89,.48-1.38,.48Z"/>
        <path d="M955.83,176.89c-.55,0-1.11-.21-1.54-.62-20.52-19.8-39.41-29.88-61.98-41.01-15.17-7.48-23.98-11.26-32.51-14.92-2.49-1.07-4.96-2.13-7.56-3.27-1.12-.49-1.63-1.8-1.14-2.92,.49-1.12,1.8-1.63,2.92-1.14,2.59,1.14,5.05,2.19,7.53,3.25,8.58,3.68,17.45,7.49,32.72,15.02,22.92,11.3,42.11,21.56,63.09,41.8,.88,.85,.91,2.25,.06,3.13-.43,.45-1.01,.68-1.59,.68Z"/>
        <path d="M947.9,203.57c-.56,0-1.12-.21-1.55-.63-17.66-17.35-33.11-24.83-52.68-34.29-2.84-1.37-5.75-2.78-8.75-4.26-8.71-4.3-17.97-8.71-27.52-13.11-1.11-.51-1.6-1.83-1.08-2.94,.51-1.11,1.83-1.6,2.94-1.08,9.58,4.41,18.88,8.84,27.63,13.16,2.99,1.47,5.89,2.88,8.72,4.25,19.14,9.26,35.67,17.26,53.85,35.12,.87,.86,.88,2.26,.03,3.13-.43,.44-1.01,.66-1.58,.66Z"/>
        <path d="M938.17,228.81c-.57,0-1.13-.22-1.57-.65-15.38-15.38-32.33-23.86-50.27-32.83-3.97-1.99-7.97-3.99-11.97-6.07-1.08-.57-1.5-1.9-.94-2.99,.57-1.08,1.91-1.5,2.99-.94,3.98,2.08,7.95,4.06,11.9,6.04,18.27,9.14,35.53,17.77,51.42,33.66,.86,.86,.86,2.27,0,3.13-.43,.43-1,.65-1.56,.65Z"/>
        <path d="M929.77,257.07c-.65,0-1.3-.29-1.73-.84-16.49-20.72-75.06-45.59-101.3-53.7-1.17-.36-1.82-1.6-1.46-2.77,.36-1.17,1.6-1.82,2.77-1.46,26.68,8.25,86.36,33.7,103.45,55.17,.76,.96,.6,2.35-.35,3.11-.41,.32-.89,.48-1.38,.48Z"/>
      </g>
    </g>
    <path d="M1123.16,341.55c-.9,0-1.74-.55-2.07-1.44l-11.02-29.39c-.43-1.14,.15-2.42,1.3-2.85,1.13-.43,2.42,.15,2.85,1.3l11.02,29.39c.43,1.14-.15,2.42-1.3,2.85-.26,.1-.52,.14-.78,.14Z"/>
  </g>
  <g>
    <g>
      <path class="cls-1" d="M1443.13,586.06c2.74,18.81,24.98,138.8,152.77,194.75,.46,.2,.97,.25,1.46,.11,10.77-2.91,135.07-39.78,211.8-208.57,.6-1.31-.17-2.85-1.57-3.12-17.63-3.42-115.35-24.27-155.67-73.09-.95-1.15-2.71-1.09-3.54,.15-9.61,14.38-63.57,84.56-203.08,87.23-1.34,.03-2.36,1.21-2.17,2.54Z"/>
      <path d="M1596.79,783.21c-.61,0-1.22-.13-1.79-.37-127.56-55.85-150.73-173.45-154.07-196.45-.18-1.26,.18-2.53,1-3.5,.83-.97,2.04-1.55,3.32-1.57,138.49-2.65,191.96-72.31,201.28-86.25,.78-1.17,2.03-1.88,3.43-1.95,1.41-.06,2.75,.52,3.66,1.62,39.67,48.03,135.57,68.68,154.39,72.33,1.33,.26,2.45,1.1,3.07,2.31,.63,1.23,.67,2.65,.09,3.91-76.63,168.58-199.49,206.07-213.24,209.79-.37,.1-.76,.15-1.14,.15Zm53.41-285.67c-9.52,14.23-64.18,85.5-204.87,88.19,0,0-.02,.01-.02,.01,1.39,9.57,7.62,43.81,29.23,82.69,27.72,49.85,68.84,86.97,122.24,110.35,13.54-3.66,134.56-40.62,210.36-207.35-19.06-3.74-116.31-24.7-156.94-73.89Z"/>
    </g>
    <g>
      <path d="M1762.72,589.57c-.16,0-.32-.02-.48-.05-60.67-13.41-116.57-55.44-117.13-55.87-.97-.74-1.17-2.13-.43-3.1,.74-.97,2.12-1.17,3.1-.43,.55,.42,55.7,41.88,115.41,55.07,1.19,.26,1.95,1.45,1.68,2.64-.23,1.03-1.14,1.74-2.16,1.74Z"/>
      <path d="M1747.45,622.87c-.19,0-.37-.02-.56-.07-28.17-7.33-56.14-21.08-83.14-40.87-.99-.72-1.2-2.11-.48-3.09,.72-.99,2.11-1.2,3.09-.48,26.55,19.46,54.02,32.97,81.64,40.16,1.18,.31,1.89,1.52,1.58,2.7-.26,1-1.16,1.66-2.14,1.66Z"/>
      <path d="M1646.9,567.93c-.51,0-1.02-.18-1.44-.54-12.3-10.58-19.13-18.21-19.42-18.53-.81-.91-.73-2.31,.18-3.12,.91-.81,2.31-.74,3.13,.18,.07,.08,6.94,7.74,19,18.12,.93,.8,1.03,2.19,.23,3.12-.44,.51-1.06,.77-1.68,.77Z"/>
      <path d="M1720.74,653.96c-.29,0-.59-.06-.88-.18-76.3-32.93-114.49-88.44-114.87-89-.69-1.01-.42-2.39,.59-3.07,1.02-.69,2.39-.42,3.07,.59,.37,.55,37.9,55.03,112.96,87.42,1.12,.48,1.64,1.79,1.15,2.91-.36,.84-1.18,1.34-2.03,1.34Z"/>
      <path d="M1696.28,681.88c-.35,0-.71-.08-1.04-.26-79.17-42.13-113.6-104.94-113.94-105.57-.58-1.08-.18-2.42,.9-3,1.07-.58,2.42-.18,3,.9,.33,.62,34.19,62.29,112.12,103.76,1.08,.57,1.49,1.91,.91,2.99-.4,.75-1.16,1.17-1.96,1.17Z"/>
      <path d="M1664.82,707.65c-.35,0-.7-.08-1.02-.25-14.17-7.4-27.88-16.83-40.76-28.04-.92-.8-1.02-2.2-.22-3.12,.8-.92,2.2-1.02,3.12-.22,12.62,10.98,26.04,20.22,39.9,27.45,1.08,.57,1.5,1.9,.94,2.99-.4,.76-1.17,1.19-1.96,1.19Z"/>
      <path d="M1604.72,660.62c-.6,0-1.19-.24-1.63-.72-32.42-35.29-48-71.76-48.15-72.13-.47-1.13,.05-2.42,1.18-2.9,1.13-.48,2.42,.05,2.9,1.18,.15,.36,15.46,36.15,47.33,70.85,.83,.9,.77,2.3-.13,3.13-.43,.39-.96,.58-1.5,.58Z"/>
      <path d="M1592.73,730.16h-.03c-1.22-.02-2.2-1.03-2.18-2.25l.24-15.98c0-.55-.2-1.05-.6-1.42-.38-.36-.88-.53-1.41-.49l-22.36,1.85c-2.14,.18-4.18-.73-5.49-2.43-1.32-1.72-1.67-3.96-.94-6l1.09-3.03c.35-.98-.14-1.68-.37-1.93-.22-.25-.84-.79-1.81-.55-2.91,.72-5.76-.6-7.11-3.27-1.37-2.71-.71-5.83,1.63-7.76l4.36-3.6c.98-.81,.69-1.86,.58-2.16-.11-.29-.54-1.22-1.73-1.22-.01,0-.02,0-.03,0l-23.36,.31h-.03c-1.21,0-2.2-.97-2.21-2.18-.02-1.22,.96-2.23,2.18-2.24l23.36-.31s.06,0,.09,0c2.66,0,4.96,1.61,5.89,4.12,.94,2.57,.19,5.35-1.92,7.1l-4.35,3.6c-1.11,.91-.66,2.04-.5,2.36,.16,.31,.76,1.29,2.09,.96,2.24-.56,4.6,.16,6.16,1.88,1.56,1.73,2.05,4.18,1.26,6.39l-1.09,3.03c-.32,.89,.09,1.57,.28,1.82,.18,.24,.69,.79,1.61,.72l22.36-1.85c1.75-.14,3.5,.46,4.79,1.67,1.3,1.21,2.03,2.93,2,4.72l-.24,15.98c-.02,1.21-1.01,2.18-2.21,2.18Z"/>
    </g>
  </g>
  <g>
    <g>
      <g>
        <path class="cls-1" d="M1556.28,244.88c7.05,5.48,14.28,10.72,21.69,15.7l4.61,3.1c5.24,4.42,5.88,12.26,1.44,17.47l-26.6,31.37,17.1,12.88c7.67,7.07,6.45,19.52-2.45,24.97l-6.52,2.67c-30.37,12.45-58.38,30.02-82.81,51.95-6.14,3.75-13.98,3.22-19.56-1.34l-35.74-23.11c-31.59-20.42-60.84-44.26-87.21-71.08l-24.13-24.54c-5.01-4.05-5.78-11.34-1.86-16.34l18.6-27.15c24.47-36.55,53.28-70,85.81-99.61,4.37-5.33,12.26-6.05,17.52-1.61l29.54,29.96c11.93,12.1,24.64,23.4,38.05,33.83l52.52,40.86Z"/>
        <path d="M1473.9,409.69c-4.28,0-8.54-1.43-12.03-4.24l-35.65-23.04c-31.67-20.47-61.14-44.49-87.58-71.39l-24.04-24.45c-5.81-4.78-6.76-13.43-2.1-19.34l18.51-27.04c24.5-36.6,53.45-70.22,86.03-99.89,2.49-2.96,5.97-4.78,9.83-5.14,3.91-.36,7.72,.84,10.73,3.37l29.69,30.1c11.81,11.98,24.54,23.3,37.83,33.64l52.52,40.86c6.98,5.43,14.23,10.68,21.56,15.61l4.61,3.1c.06,.04,.13,.09,.19,.14,2.99,2.52,4.81,6.05,5.13,9.95s-.9,7.68-3.44,10.65l-25.08,29.58,15.23,11.47c4.34,3.99,6.42,9.43,5.86,15.08-.56,5.65-3.65,10.58-8.49,13.54-.1,.06-.21,.11-.32,.16l-6.52,2.67c-30.22,12.39-57.86,29.73-82.17,51.55-.1,.09-.21,.17-.32,.24-3.08,1.88-6.54,2.81-9.98,2.81Zm-45.67-270.16c-.32,0-.64,.01-.96,.04-2.72,.25-5.18,1.55-6.91,3.67-.07,.08-.14,.16-.22,.23-32.36,29.46-61.12,62.83-85.46,99.2l-18.61,27.17c-3.28,4.17-2.6,10.12,1.42,13.36,.07,.05,.13,.11,.19,.17l24.12,24.54c26.22,26.66,55.43,50.47,86.83,70.77l35.75,23.11c.07,.04,.14,.09,.2,.15,4.79,3.91,11.53,4.41,16.83,1.26,24.65-22.09,52.67-39.66,83.29-52.21l6.35-2.6c3.56-2.24,5.84-5.91,6.25-10.11,.42-4.25-1.15-8.35-4.29-11.25l-16.94-12.74c-.49-.37-.8-.92-.87-1.52-.07-.61,.12-1.21,.51-1.68l26.6-31.37c1.77-2.08,2.62-4.71,2.4-7.42-.22-2.67-1.46-5.1-3.49-6.85l-4.5-3.03c-7.41-4.99-14.75-10.3-21.81-15.79l-52.52-40.86c-13.44-10.46-26.31-21.9-38.26-34.02l-29.54-29.96c-1.71-1.44-3.98-2.25-6.37-2.25Z"/>
      </g>
      <path d="M1557.41,314.74c-.46,0-.93-.14-1.33-.45l-19.06-14.36c-26.66-20.07-50.99-43.26-72.33-68.91l-13.66-16.42c-3.81-3.45-8.06-3.94-15.62-1.83l-16.16,5.26c-25.27,8.22-49.25,19.92-71.27,34.79l-34.26,24.98c-.99,.72-2.37,.5-3.09-.48-.72-.99-.5-2.37,.48-3.09l34.33-25.02c22.43-15.14,46.78-27.03,72.44-35.37l16.25-5.28c6.76-1.89,13.79-2.82,20.01,2.91,.07,.07,.14,.14,.2,.21l13.76,16.54c21.12,25.39,45.21,48.33,71.59,68.2l19.06,14.36c.98,.74,1.17,2.12,.44,3.1-.43,.58-1.1,.88-1.77,.88Z"/>
    </g>
    <g>
      <g>
        <path class="cls-1" d="M1592.68,129.51l-24.32-20.9c-5.91-5.07-14.69-4.87-20.35,.48l-12.26,11.58c-18.22,17.22-33.64,37.18-45.68,59.17l-15.05,27.47c-1.56,2.85-1.01,6.39,1.35,8.62,10.99,10.36,40.31,44.25,66.64,59.73,4.48,2.63,10.25,1.03,12.85-3.47l17.44-30.25c10.22-17.74,22.67-34.1,37.05-48.68l16.17-16.4c6.54-6.63,5.59-17.53-1.98-22.95l-7.98-5.7c-8.23-5.88-16.19-12.12-23.86-18.71Z"/>
        <path d="M1547.65,279.16c-2.02,0-4-.53-5.78-1.58-20.58-12.1-42.48-34.81-56.98-49.83-4.07-4.22-7.59-7.87-10.06-10.2-3.09-2.92-3.82-7.56-1.78-11.3l15.05-27.47c12.17-22.22,27.68-42.31,46.11-59.71l12.26-11.58c6.51-6.15,16.53-6.38,23.31-.55l24.33,20.9c7.59,6.52,15.56,12.77,23.7,18.59l7.98,5.7c4.14,2.96,6.76,7.56,7.2,12.62,.44,5.07-1.36,10.05-4.93,13.68l-16.17,16.4c-14.23,14.44-26.58,30.67-36.7,48.23l-17.44,30.25c-1.57,2.72-4.1,4.66-7.14,5.46-.98,.26-1.98,.39-2.97,.39Zm10.79-172.02c-3.21,0-6.42,1.19-8.92,3.56l-12.26,11.58c-18.08,17.09-33.31,36.81-45.26,58.62l-15.05,27.47c-1.08,1.97-.7,4.42,.93,5.95,2.55,2.4,6.1,6.08,10.21,10.35,14.32,14.85,35.97,37.29,56.03,49.09,1.63,.96,3.53,1.21,5.38,.73,1.88-.5,3.46-1.7,4.43-3.39l17.44-30.25c10.31-17.89,22.89-34.42,37.39-49.13l16.17-16.4c2.66-2.7,4-6.41,3.67-10.19-.33-3.77-2.28-7.2-5.36-9.4l-7.98-5.7c-8.25-5.89-16.33-12.23-24.01-18.83l-24.33-20.9c-2.45-2.1-5.46-3.15-8.47-3.15Z"/>
      </g>
      <path d="M1610.32,195.48c-.46,0-.93-.14-1.33-.44l-18.87-14.15c-3.66-2.75-5.99-6.76-6.56-11.3-.57-4.54,.71-9,3.58-12.57l13.89-17.2c.77-.95,2.16-1.1,3.11-.33,.95,.77,1.1,2.16,.33,3.11l-13.89,17.2c-2.11,2.62-3.05,5.9-2.63,9.24,.42,3.34,2.13,6.29,4.82,8.31l18.87,14.15c.98,.73,1.18,2.12,.44,3.1-.43,.58-1.1,.89-1.77,.89Z"/>
      <path d="M1582.73,196.56c-.42,0-.85-.12-1.23-.37-19.41-13-46.76-45.74-47.92-47.12-.78-.94-.65-2.33,.29-3.12,.94-.78,2.33-.65,3.12,.28,.28,.33,28.1,33.63,46.98,46.28,1.02,.68,1.29,2.06,.61,3.07-.43,.64-1.13,.98-1.84,.98Z"/>
      <path d="M1565.33,215.32c-.47,0-.94-.15-1.35-.46-31.48-24.17-45.27-43.28-45.84-44.08-.71-.99-.48-2.38,.52-3.09,.99-.71,2.38-.48,3.09,.51,.14,.19,14.03,19.41,44.93,43.14,.97,.74,1.15,2.13,.41,3.1-.43,.57-1.09,.87-1.76,.87Z"/>
    </g>
  </g>
  <g>
    <ellipse cx="488.2" cy="135.85" rx="130.65" ry="131.4" transform="translate(-18.52 130.87) rotate(-14.99)"/>
    <g>
      <g>
        <ellipse class="cls-1" cx="471.21" cy="139.03" rx="130.65" ry="131.4" transform="translate(-19.92 126.57) rotate(-14.99)"/>
        <path d="M471.68,272.66c-14.78,0-29.61-2.51-43.98-7.55-33.67-11.82-60.74-36.12-76.22-68.42-31.83-66.43-4.01-146.34,62-178.14,31.86-15.35,67.82-17.34,101.24-5.61,33.67,11.82,60.74,36.12,76.22,68.42,31.83,66.43,4.02,146.34-62,178.14-18.16,8.75-37.66,13.16-57.26,13.16Zm-.93-262.84c-18.94,0-37.78,4.26-55.34,12.72-63.82,30.74-90.71,108.01-59.93,172.24,14.96,31.23,41.14,54.73,73.69,66.15,32.31,11.34,67.06,9.41,97.85-5.42,63.82-30.74,90.71-108.01,59.93-172.24-14.96-31.23-41.14-54.73-73.69-66.15-13.89-4.87-28.23-7.3-42.51-7.3Z"/>
      </g>
      <path d="M538.71,186.08c-.42,0-.85-.12-1.22-.37l-67.49-44.84c-.47-.31-.8-.79-.93-1.34l-14.21-60.35c-.28-1.19,.46-2.38,1.65-2.66,1.18-.28,2.38,.46,2.66,1.65l14.01,59.5,66.76,44.35c1.02,.68,1.3,2.05,.62,3.07-.43,.64-1.13,.99-1.85,.99Z"/>
      <g>
        <path d="M432.97,41.54c2,4.18,.26,9.19-3.89,11.19s-9.14,.23-11.14-3.94c-2-4.18-.26-9.19,3.89-11.19s9.14-.23,11.14,3.94Z"/>
        <path d="M389.65,73.68c3.81,2.62,4.79,7.84,2.2,11.66-2.59,3.82-7.79,4.8-11.6,2.18-3.81-2.62-4.79-7.84-2.2-11.66,2.59-3.82,7.79-4.8,11.6-2.18Z"/>
        <ellipse cx="368.46" cy="130.79" rx="8.34" ry="8.39" transform="translate(-21.29 99.72) rotate(-14.99)"/>
        <path d="M374.32,177.18c4.15-2,9.14-.23,11.14,3.94,2,4.18,.26,9.19-3.89,11.19s-9.14,.23-11.14-3.94c-2-4.18-.26-9.19,3.89-11.19Z"/>
        <path d="M407.32,219.91c2.59-3.82,7.79-4.8,11.6-2.18,3.81,2.62,4.79,7.84,2.2,11.66s-7.79,4.8-11.6,2.18-4.79-7.84-2.2-11.66Z"/>
        <path d="M456.79,241.63c.34-4.62,4.35-8.07,8.94-7.72s8.05,4.39,7.7,9.01c-.34,4.62-4.35,8.07-8.94,7.72s-8.05-4.39-7.7-9.01Z"/>
        <path d="M510.36,235.62c-2-4.18-.26-9.19,3.89-11.19,4.15-2,9.14-.23,11.14,3.94,2,4.18,.26,9.19-3.89,11.19-4.15,2-9.14,.23-11.14-3.94Z"/>
        <path d="M553.69,203.48c-3.81-2.62-4.79-7.84-2.2-11.66s7.79-4.8,11.6-2.18c3.81,2.62,4.79,7.84,2.2,11.66-2.59,3.82-7.79,4.8-11.6,2.18Z"/>
        <path d="M574.25,154.73c-4.6-.36-8.05-4.39-7.7-9.01,.34-4.62,4.35-8.07,8.94-7.72,4.6,.36,8.05,4.39,7.7,9.01-.34,4.62-4.35,8.07-8.94,7.72Z"/>
        <path d="M568.11,100.88c-4.15,2-9.14,.23-11.14-3.94s-.26-9.19,3.89-11.19c4.15-2,9.14-.23,11.14,3.94,2,4.18,.26,9.19-3.89,11.19Z"/>
        <path d="M536.01,57.24c-2.59,3.82-7.79,4.8-11.6,2.18-3.81-2.62-4.79-7.84-2.2-11.66,2.59-3.82,7.79-4.8,11.6-2.18,3.81,2.62,4.79,7.84,2.2,11.66Z"/>
        <path d="M486.55,35.52c-.34,4.62-4.35,8.07-8.94,7.72-4.6-.36-8.05-4.39-7.7-9.01,.34-4.62,4.35-8.07,8.94-7.72,4.6,.36,8.05,4.39,7.7,9.01Z"/>
      </g>
    </g>
  </g>
  <g>
    <g>
      <path d="M1221.54,1696.27c-.55,0-1.1-.2-1.53-.61-.88-.85-.91-2.25-.07-3.13l10.45-10.92c.84-.88,2.24-.91,3.13-.07,.88,.85,.91,2.25,.07,3.13l-10.45,10.92c-.43,.45-1.02,.68-1.6,.68Z"/>
      <path d="M1184.97,1734.49c-.55,0-1.1-.2-1.53-.61-.88-.85-.91-2.25-.07-3.13l10.45-10.92c.85-.88,2.25-.91,3.13-.07,.88,.85,.91,2.25,.07,3.13l-10.45,10.92c-.43,.45-1.02,.68-1.6,.68Z"/>
      <path d="M1195.22,1696.86c-.56,0-1.12-.21-1.55-.64l-10.61-10.45c-.87-.86-.88-2.26-.02-3.13,.86-.87,2.26-.88,3.13-.02l10.61,10.45c.87,.86,.88,2.26,.02,3.13-.43,.44-1,.66-1.58,.66Z"/>
      <path d="M1232.34,1733.44c-.56,0-1.12-.21-1.55-.64l-10.61-10.45c-.87-.86-.88-2.26-.02-3.13,.86-.87,2.26-.88,3.13-.02l10.61,10.45c.87,.86,.88,2.26,.02,3.13-.43,.44-1,.66-1.58,.66Z"/>
    </g>
    <g>
      <path d="M150.55,122.49c-1.2,0-2.19-.96-2.21-2.16l-.33-15.11c-.03-1.22,.94-2.23,2.16-2.26,1.18-.02,2.24,.94,2.26,2.16l.33,15.11c.03,1.22-.94,2.23-2.16,2.26-.02,0-.03,0-.05,0Z"/>
      <path d="M151.72,175.37c-1.2,0-2.19-.96-2.21-2.16l-.33-15.11c-.03-1.22,.94-2.23,2.16-2.26,1.23-.02,2.23,.94,2.26,2.16l.33,15.11c.03,1.22-.94,2.23-2.16,2.26-.02,0-.03,0-.05,0Z"/>
      <path d="M117.47,141.62c-1.21,0-2.2-.98-2.21-2.2,0-1.22,.97-2.22,2.2-2.23l14.89-.11c1.19-.03,2.22,.97,2.23,2.2,0,1.22-.97,2.22-2.2,2.23l-14.89,.11h-.02Z"/>
      <path d="M169.59,141.24c-1.21,0-2.2-.98-2.21-2.2,0-1.22,.97-2.22,2.2-2.23l14.89-.11h.02c1.21,0,2.2,.98,2.21,2.2,0,1.22-.97,2.22-2.2,2.23l-14.89,.11h-.02Z"/>
    </g>
    <path d="M1377.14,1663c-10.76,0-19.52-8.76-19.52-19.52s8.76-19.52,19.52-19.52,19.52,8.76,19.52,19.52-8.76,19.52-19.52,19.52Zm0-34.61c-8.32,0-15.09,6.77-15.09,15.09s6.77,15.09,15.09,15.09,15.09-6.77,15.09-15.09-6.77-15.09-15.09-15.09Z"/>
    <path d="M1720.38,409.71c-10.76,0-19.52-8.76-19.52-19.52s8.76-19.52,19.52-19.52,19.52,8.76,19.52,19.52-8.76,19.52-19.52,19.52Zm0-34.61c-8.32,0-15.09,6.77-15.09,15.09s6.77,15.09,15.09,15.09,15.09-6.77,15.09-15.09-6.77-15.09-15.09-15.09Z"/>
    <circle cx="1717.5" cy="267.61" r="14.64" transform="translate(313.82 1292.84) rotate(-45)"/>
  </g>
  <path d="M169.29,444.45c17.27,30.48,39.87,70.59,57.14,101.07-4.07,.07-10.35,.69-13.64,.32-15.49-.17-32.45-1.19-47.16-1.81-12.97,.64-18.29,3.92-23.95,13.84-9.18,16.39-19.06,31.49-28.24,47.88,0,0-3.78,4.44-4.07,5.73-28.31-49.96-59.14-104.07-87.45-154.03,11.65-6.6,24.52-13.76,36.17-20.36,9.32-5.28,25.62-14.52,34.94-19.8l-9.52-18.32c-8.54,4.84-26.4,14.96-35.72,20.24-13.98,7.92-27.95,15.84-41.93,23.76-6.21,3.52-7.7,9.95-3.38,17.57,16.31,28.79,32.63,57.58,48.94,86.37,16.31,28.79,32.63,57.58,49.42,87.21,5.76,10.16,15.15,10.43,20.51,1.8,11.62-21.13,22.72-42.41,34.35-63.54,3.22-5.18,8.1-8.38,14.2-8.48,24.1,.89,48.19,3.77,71.81,3.81,2.03-.03,4.07-.07,6.4-1.39,6.69-2.67,7.7-9.95,3.38-17.57-20.15-35.56-45.1-79.59-65.26-115.16l-16.93,10.85Z"/>
  <path d="M174.11,410.28l-15.84-27.95,30.48-17.27-11-19.41-30.48,17.27-15.4-27.18-20.32,11.52,15.4,27.18-30.48,17.27,11,19.41,30.48-17.27,15.84,27.95,20.32-11.52Z"/>
</svg>