<svg width="142" height="54" viewBox="0 0 142 54" fill="none" xmlns="http://www.w3.org/2000/svg">
<path d="M17.9164 33.9863H15.677C15.2435 33.9863 14.9545 34.3501 14.9545 34.714C14.9545 35.1507 15.3158 35.4418 15.677 35.4418H17.2663H18.4221C18.8556 35.4418 19.1446 35.0779 19.1446 34.714C19.1446 34.2774 18.7833 33.9863 18.4221 33.9863H17.9164ZM14.1599 31.0024C14.0877 31.0024 14.0877 31.0024 14.0154 31.0024C13.6542 31.0752 13.4375 31.3663 13.4375 31.7302C13.4375 32.0213 13.6542 32.3124 13.8709 32.3852C13.9432 32.458 14.0877 32.458 14.1599 32.458H19.3613C19.7947 32.458 20.0837 32.0941 20.0837 31.7302C20.0837 31.2935 19.7225 31.0024 19.3613 31.0024H14.1599ZM21.0951 31.7302C21.0951 32.1668 21.4563 32.458 21.8175 32.458C22.2509 32.458 22.5399 32.0941 22.5399 31.7302C22.5399 31.2935 22.1787 31.0024 21.8175 31.0024C21.4563 31.0024 21.0951 31.3663 21.0951 31.7302ZM17.9887 28.0186H12.6428C12.2094 28.0186 11.9204 28.3825 11.9204 28.7464C11.9204 29.183 12.2816 29.4741 12.6428 29.4741H15.0268H24.7794C25.2128 29.4741 25.5018 29.1102 25.5018 28.7464C25.5018 28.3097 25.1406 28.0186 24.7794 28.0186H17.9887ZM17.6275 26.5631H28.0302C28.3192 26.6359 28.5359 26.927 28.5359 27.2908C28.5359 27.7275 28.1747 28.0186 27.8135 28.0186H27.0911C26.6577 28.0186 26.3687 28.3825 26.3687 28.7464C26.3687 29.183 26.7299 29.4741 27.0911 29.4741H32.2925C32.7259 29.4741 33.0149 29.838 33.0149 30.2019C33.0149 30.5658 32.6537 30.9297 32.2925 30.9297H24.1292C23.6958 30.9297 23.4068 31.2935 23.4068 31.6574C23.4068 32.0941 23.768 32.3852 24.1292 32.3852H29.764C30.1975 32.3852 30.4865 32.7491 30.4865 33.1129C30.4865 33.5496 30.1252 33.8407 29.764 33.8407H20.5894C20.1559 33.8407 19.867 34.2046 19.867 34.5685C19.867 35.0051 20.2282 35.2962 20.5894 35.2962H35.4711C38.722 35.2962 41.3227 32.6763 41.3227 29.4014C41.3227 28.3097 41.0337 27.2908 40.528 26.3448H40.6003C39.5889 24.5981 37.6383 23.4337 35.4711 23.4337C35.0377 23.4337 34.532 23.5065 34.0985 23.5793C33.5928 22.4148 32.8704 21.396 32.0035 20.5954C31.9313 20.5227 31.859 20.4499 31.7868 20.4499C31.7146 20.3771 31.6423 20.3043 31.5701 20.2316C30.1252 18.9944 28.247 18.2666 26.152 18.2666C21.6008 18.4849 17.8442 22.051 17.6275 26.5631Z" fill="#3D4DB6"/>
<path d="M0 26.9998L2.38397 26.1993V23.5793L3.90104 25.6899L6.35724 24.8893L4.84018 26.9998L6.35724 29.0376L3.90104 28.3098L2.38397 30.3475V27.8004L0 26.9998Z" fill="#3D4DB6"/>
<path d="M3.17871 38.9353L5.56268 38.2076V35.5876L7.07975 37.6982L9.46371 36.8248L8.01889 38.9353L9.46371 41.0459L7.07975 40.2453L5.56268 42.2831V39.7359L3.17871 38.9353Z" fill="#3D4DB6"/>
<path d="M11.8472 47.741L14.2311 46.9405V44.3206L15.7482 46.4311L18.1322 45.6305L16.6873 47.6683L18.1322 49.7788L15.7482 48.9782L14.2311 51.0887V48.4688L11.8472 47.741Z" fill="#3D4DB6"/>
<path d="M3.17871 15.0648L5.63492 14.1915V11.6443L7.15199 13.7548L9.53596 12.9543L8.01889 15.0648L9.53596 17.1025L7.15199 16.302L5.63492 18.4125V15.8653L3.17871 15.0648Z" fill="#3D4DB6"/>
<path d="M14.0871 3.2749L15.6042 5.38541L17.9881 4.58487L16.4711 6.62261L17.9881 8.73312L15.6042 7.93258L14.0871 10.0431V7.42314L11.7031 6.69538L14.0871 5.89485V3.2749Z" fill="#3D4DB6"/>
<path d="M26.0075 0L27.4523 2.11051L29.9085 1.30997L28.3914 3.3477L29.9085 5.45821L27.4523 4.65768L25.9352 6.69541V4.14824L23.5513 3.3477L25.9352 2.54717L26.0075 0Z" fill="#3D4DB6"/>
<path d="M41.3221 4.36659L39.805 6.4771L41.3221 8.51483L38.9381 7.71429L37.4211 9.8248V7.27764L35.0371 6.4771L37.4211 5.67656V3.12939L38.9381 5.16713L41.3221 4.36659Z" fill="#3D4DB6"/>
<path d="M53.3143 28.8195L50.8581 28.0918L49.341 30.1295V27.5823L46.957 26.7818L49.341 25.9812V23.4341L50.8581 25.4718L53.3143 24.7441L51.7972 26.7818L53.3143 28.8195Z" fill="#3D4DB6"/>
<path d="M50.1351 40.8276L47.6789 40.027L46.234 42.1375V39.5176L43.7778 38.7898L46.234 37.9893L46.1618 35.4421L47.6789 37.4799L50.1351 36.6793L48.618 38.7898L50.1351 40.8276Z" fill="#3D4DB6"/>
<path d="M50.0628 13.0995L48.618 15.21L50.0628 17.2477L47.6066 16.4472L46.1618 18.5577V15.9378L43.7778 15.21L46.1618 14.4095V11.8623L47.6789 13.9L50.0628 13.0995Z" fill="#3D4DB6"/>
<path d="M26.0793 54.0001V51.4529L23.623 50.5796L26.0793 49.7791L26.007 47.2319L27.5241 49.3424L29.9081 48.5419L28.4632 50.5796L29.9803 52.6901L27.5241 51.8896L26.0793 54.0001Z" fill="#3D4DB6"/>
<path d="M41.3221 49.5605L38.9381 48.7599L37.4211 50.8705V48.3233L34.9648 47.5228L37.4211 46.7222V44.175L38.9381 46.2128L41.3221 45.4122L39.805 47.5228L41.3221 49.5605Z" fill="#3D4DB6"/>
<path d="M64.2947 23.1429H67.1121V24.8168H62.0552V16.4475H67.0398V18.0486H64.2947V19.7952H66.6064V21.3963H64.2947V23.1429Z" fill="#3D4DB6"/>
<path d="M71.303 16.4475H73.5425V23.2157C73.5425 24.3073 72.8923 24.8168 71.6642 24.8168H69.7137C68.4134 24.8168 67.8354 24.3073 67.8354 23.2157V16.4475H70.0749V22.9246C70.0749 23.1429 70.1472 23.2157 70.3639 23.2157H70.9418C71.1586 23.2157 71.2308 23.1429 71.2308 22.9246V16.4475H71.303Z" fill="#3D4DB6"/>
<path d="M77.8036 18.0486H76.9367V20.3046H77.8036C78.0203 20.3046 78.0926 20.2319 78.0926 20.0135V18.3397C78.0926 18.1214 78.0203 18.0486 77.8036 18.0486ZM76.8645 21.8329V24.8168H74.625V16.4475H78.4538C79.7541 16.4475 80.3321 16.9569 80.3321 18.0486V20.2319C80.3321 21.0324 79.9709 21.5418 79.2484 21.7602L80.7655 24.8168H78.3093L77.009 21.8329H76.8645Z" fill="#3D4DB6"/>
<path d="M84.7396 22.9246V18.3397C84.7396 18.1214 84.5951 18.0486 84.4506 18.0486H83.8727C83.6559 18.0486 83.5837 18.1214 83.5837 18.3397V22.9246C83.5837 23.1429 83.6559 23.2157 83.8727 23.2157H84.4506C84.5951 23.1429 84.7396 23.0701 84.7396 22.9246ZM83.1502 16.4475H85.1008C86.4011 16.4475 86.979 16.9569 86.979 18.0486V23.2157C86.979 24.3073 86.3289 24.8168 85.1008 24.8168H83.1502C81.8499 24.8168 81.272 24.3073 81.272 23.2157V18.0486C81.272 16.9569 81.9221 16.4475 83.1502 16.4475Z" fill="#3D4DB6"/>
<path d="M91.4568 20.1591V18.3397C91.4568 18.1214 91.3124 18.0486 91.1679 18.0486H90.301V20.4502H91.1679C91.3846 20.4502 91.4568 20.3046 91.4568 20.1591ZM87.9893 16.4475H91.818C93.1184 16.4475 93.6963 16.9569 93.6963 18.0486V20.4502C93.6963 21.5418 93.0462 22.0513 91.818 22.0513H90.2287V24.8168H87.9893V16.4475Z" fill="#3D4DB6"/>
<path d="M96.8035 23.1429H99.6209V24.8168H94.564V16.4475H99.5486V18.0486H96.8035V19.7952H99.1152V21.3963H96.8035V23.1429Z" fill="#3D4DB6"/>
<path d="M102.728 21.9057H104.028L103.378 18.8491L102.728 21.9057ZM104.606 24.8168L104.317 23.5796H102.294L102.005 24.8168H99.7656L101.933 16.4475H104.678L106.845 24.8168H104.606Z" fill="#3D4DB6"/>
<path d="M111.179 16.4475H113.274V24.8168H111.324L109.446 20.3774V24.8168H107.423V16.4475H109.373L111.179 20.8869V16.4475Z" fill="#3D4DB6"/>
<path d="M120.355 22.9246V18.3397C120.355 18.1214 120.21 18.0486 120.066 18.0486H119.488C119.271 18.0486 119.199 18.1214 119.199 18.3397V22.9246C119.199 23.1429 119.271 23.2157 119.488 23.2157H120.066C120.21 23.1429 120.355 23.0701 120.355 22.9246ZM118.765 16.4475H120.716C122.016 16.4475 122.594 16.9569 122.594 18.0486V23.2157C122.594 24.3073 121.944 24.8168 120.716 24.8168H118.765C117.465 24.8168 116.887 24.3073 116.887 23.2157V18.0486C116.887 16.9569 117.537 16.4475 118.765 16.4475Z" fill="#3D4DB6"/>
<path d="M127.073 20.1591V18.3397C127.073 18.1214 126.928 18.0486 126.784 18.0486H125.917V20.4502H126.784C127 20.4502 127.073 20.3046 127.073 20.1591ZM123.605 16.4475H127.434C128.734 16.4475 129.312 16.9569 129.312 18.0486V20.4502C129.312 21.5418 128.662 22.0513 127.434 22.0513H125.844V24.8168H123.605V16.4475Z" fill="#3D4DB6"/>
<path d="M132.419 23.1429H135.236V24.8168H130.179V16.4475H135.164V18.0486H132.419V19.7952H134.803V21.3963H132.419V23.1429Z" fill="#3D4DB6"/>
<path d="M139.787 16.4475H141.882V24.8168H139.932L138.054 20.3774V24.8168H135.958V16.4475H137.909L139.787 20.8869V16.4475Z" fill="#3D4DB6"/>
<path d="M65.4509 35.5146V34.2046C65.4509 33.9863 65.3065 33.9135 65.0897 33.9135H63.7894C63.1392 33.9135 62.6335 33.7679 62.3446 33.4768C62.0556 33.1857 61.9111 32.7491 61.9111 32.1669V30.3475C61.9111 29.183 62.5613 28.6008 63.9339 28.6008H65.8121C67.1847 28.6008 67.8349 29.183 67.8349 30.3475V31.4391H65.3787V30.7113C65.3787 30.493 65.2342 30.4202 65.0175 30.4202H64.584C64.3673 30.4202 64.2228 30.493 64.2228 30.7113V32.0213C64.2228 32.2396 64.3673 32.3124 64.584 32.3124H65.8844C66.5346 32.3124 67.0402 32.458 67.3292 32.7491C67.6182 33.0402 67.7627 33.4768 67.7627 33.9863V35.8057C67.7627 36.9701 67.1125 37.5523 65.7399 37.5523H63.8616C62.489 37.5523 61.8389 36.9701 61.8389 35.8057V34.714H64.2951V35.4418C64.2951 35.6601 64.4396 35.7329 64.6563 35.7329H65.0897C65.3065 35.8057 65.4509 35.7329 65.4509 35.5146Z" fill="#3D4DB6"/>
<path d="M74.77 31.9488H72.3138V30.4933C72.3138 30.2749 72.1693 30.2022 71.9525 30.2022H71.5191C71.3024 30.2022 71.1579 30.2749 71.1579 30.4933V35.6604C71.1579 35.8787 71.3024 35.9515 71.5191 35.9515H72.0248C72.2415 35.9515 72.386 35.8787 72.386 35.6604V34.2776H74.8422V35.8059C74.8422 36.9704 74.192 37.5526 72.8194 37.5526H70.7967C69.4241 37.5526 68.7739 36.9704 68.7739 35.8059V30.2749C68.7739 29.1105 69.4241 28.5283 70.7967 28.5283H72.7472C74.1198 28.5283 74.77 29.1105 74.77 30.2749V31.9488Z" fill="#3D4DB6"/>
<path d="M78.0929 28.6008H75.6367V37.5523H78.0929V28.6008Z" fill="#3D4DB6"/>
<path d="M81.6325 35.8057H84.6666V37.5523H79.1763V28.6008H84.5221V30.3475H81.6325V32.1669H84.1609V33.9135H81.6325V35.8057Z" fill="#3D4DB6"/>
<path d="M89.5074 28.6008H91.6747V37.5523H89.6519L87.6291 32.8218V37.5523H85.3896V28.6008H87.4847L89.5074 33.4041V28.6008Z" fill="#3D4DB6"/>
<path d="M98.7539 31.9488H96.2976V30.4933C96.2976 30.2749 96.1532 30.2022 95.9364 30.2022H95.4308C95.214 30.2022 95.0695 30.2749 95.0695 30.4933V35.6604C95.0695 35.8787 95.214 35.9515 95.4308 35.9515H95.9364C96.1532 35.9515 96.2976 35.8787 96.2976 35.6604V34.2776H98.7539V35.8059C98.7539 36.9704 98.1037 37.5526 96.7311 37.5526H94.7806C93.408 37.5526 92.7578 36.9704 92.7578 35.8059V30.2749C92.7578 29.1105 93.408 28.5283 94.7806 28.5283H96.7311C98.1037 28.5283 98.7539 29.1105 98.7539 30.2749V31.9488Z" fill="#3D4DB6"/>
<path d="M102.077 35.8057H105.111V37.5523H99.6211V28.6008H104.967V30.3475H102.077V32.1669H104.606V33.9135H102.077V35.8057Z" fill="#3D4DB6"/>
<path d="M114.575 31.9488H112.118V30.4933C112.118 30.2749 111.974 30.2022 111.757 30.2022H111.252C111.035 30.2022 110.89 30.2749 110.89 30.4933V35.6604C110.89 35.8787 111.035 35.9515 111.252 35.9515H111.757C111.974 35.9515 112.118 35.8787 112.118 35.6604V34.2776H114.575V35.8059C114.575 36.9704 113.924 37.5526 112.552 37.5526H110.601C109.229 37.5526 108.579 36.9704 108.579 35.8059V30.2749C108.579 29.1105 109.229 28.5283 110.601 28.5283H112.552C113.924 28.5283 114.575 29.1105 114.575 30.2749V31.9488Z" fill="#3D4DB6"/>
<path d="M117.898 35.8057H120.643V37.5523H115.514V28.6008H117.898V35.8057Z" fill="#3D4DB6"/>
<path d="M124.905 35.5146V30.6386C124.905 30.4202 124.761 30.3475 124.544 30.3475H123.966C123.75 30.3475 123.605 30.4202 123.605 30.6386V35.5146C123.605 35.7329 123.75 35.8057 123.966 35.8057H124.544C124.761 35.8057 124.905 35.7329 124.905 35.5146ZM123.244 28.6008H125.267C126.639 28.6008 127.289 29.183 127.289 30.3475V35.8784C127.289 37.0429 126.639 37.6251 125.267 37.6251H123.244C121.871 37.6251 121.221 37.0429 121.221 35.8784V30.3475C121.221 29.183 121.871 28.6008 123.244 28.6008Z" fill="#3D4DB6"/>
<path d="M132.057 28.6008H134.514V35.8057C134.514 36.9701 133.863 37.5523 132.491 37.5523H130.468C129.095 37.5523 128.445 36.9701 128.445 35.8057V28.6008H130.902V35.5146C130.902 35.7329 131.046 35.8057 131.263 35.8057H131.841C132.057 35.8057 132.202 35.7329 132.202 35.5146V28.6008H132.057Z" fill="#3D4DB6"/>
<path d="M139.427 35.6601V30.493C139.427 30.2747 139.282 30.2019 139.065 30.2019H138.126V35.9512H139.065C139.354 35.9512 139.427 35.8784 139.427 35.6601ZM135.742 28.6008H139.86C141.233 28.6008 141.883 29.183 141.883 30.3475V35.8784C141.883 37.0429 141.233 37.6251 139.86 37.6251H135.742V28.6008Z" fill="#3D4DB6"/>
</svg>
