<svg width="16" height="16" viewBox="0 0 16 16" fill="none" xmlns="http://www.w3.org/2000/svg">
<path d="M8.99487 4.25017C8.99487 3.70057 8.99487 3.15097 8.99487 2.60137C8.99947 1.9049 9.46792 1.42163 10.143 1.42163C11.2131 1.42163 12.2832 1.42163 13.3579 1.42163C14.0239 1.42163 14.4969 1.9049 14.4969 2.5919C14.5015 3.70057 14.5015 4.81398 14.4969 5.92265C14.4969 6.60965 14.0239 7.09292 13.3579 7.09766C12.2878 7.1024 11.2177 7.09766 10.143 7.09766C9.46792 7.09766 8.99487 6.61439 8.99487 5.91792C8.99487 5.36358 8.99487 4.80924 8.99487 4.25017ZM13.9458 4.27386C13.9458 3.72426 13.9458 3.17466 13.9458 2.62506C13.9458 2.2176 13.7253 1.99018 13.3304 1.99018C12.2741 1.99018 11.2223 1.99018 10.166 1.99018C9.76645 1.99018 9.546 2.21286 9.546 2.62032C9.546 3.71478 9.546 4.80924 9.546 5.9037C9.546 6.30169 9.77104 6.52911 10.1522 6.53385C11.2131 6.53385 12.2741 6.53385 13.3304 6.53385C13.7253 6.53385 13.9412 6.30643 13.9412 5.89423C13.9458 5.34937 13.9458 4.81398 13.9458 4.27386Z" fill="#4F4F4F" stroke="#4F4F4F" stroke-width="0.3"/>
<path d="M4.32106 7.0977C3.34281 7.0977 2.36457 7.0977 1.38173 7.0977C1.01891 7.0977 0.904094 6.90345 1.08321 6.57653C2.06605 4.79507 3.04888 3.01835 4.03172 1.2369C4.10061 1.11371 4.1695 1 4.32565 1C4.4818 1 4.55069 1.11371 4.61958 1.2369C5.60701 3.02309 6.58985 4.80455 7.57728 6.59075C7.7518 6.90345 7.63698 7.10244 7.28334 7.10244C6.29132 7.0977 5.30849 7.0977 4.32106 7.0977ZM6.89756 6.52441C6.03413 4.95616 5.18448 3.41634 4.32106 1.84809C3.45304 3.42108 2.60798 4.96564 1.74915 6.52441C3.476 6.52441 5.17071 6.52441 6.89756 6.52441Z" fill="#4F4F4F" stroke="#4F4F4F" stroke-width="0.3"/>
<path d="M14.9999 11.6745C14.9953 11.9351 14.8988 12.1957 14.6967 12.4041C13.9619 13.1669 13.2271 13.9298 12.4831 14.6831C12.0605 15.1095 11.4359 15.1048 11.0134 14.6736C10.274 13.925 9.53914 13.1669 8.81349 12.4041C8.38637 11.9588 8.39097 11.3049 8.81349 10.8596C9.53914 10.1015 10.2648 9.34819 10.9996 8.60433C11.4313 8.16371 12.0605 8.15897 12.4968 8.5996C13.2317 9.34345 13.9573 10.1015 14.6875 10.8548C14.8896 11.0728 14.9953 11.3381 14.9999 11.6745ZM14.4901 11.6461C14.4166 11.5039 14.3752 11.3618 14.288 11.267C13.5715 10.5185 12.8505 9.7746 12.1294 9.03075C11.8952 8.78911 11.6013 8.79385 11.367 9.03548C10.646 9.7746 9.92952 10.5137 9.21765 11.2528C8.98802 11.4897 8.98802 11.7882 9.21765 12.0251C9.93411 12.7737 10.6552 13.5176 11.3808 14.2567C11.6104 14.4888 11.8998 14.4888 12.1294 14.2567C12.8551 13.5176 13.5761 12.7737 14.288 12.0204C14.3752 11.9256 14.4166 11.7835 14.4901 11.6461Z" fill="#4F4F4F" stroke="#4F4F4F" stroke-width="0.3"/>
<path d="M1.29518 11.6319C1.29058 9.91203 2.65461 8.51908 4.33095 8.51434C5.97972 8.51434 7.34375 9.91203 7.34835 11.6129C7.35294 13.3423 6.00269 14.7542 4.34013 14.7542C2.65461 14.7637 1.29977 13.3707 1.29518 11.6319Z" fill="#4F4F4F" stroke="#4F4F4F" stroke-width="0.3"/>
</svg>
