<svg width="15" height="18" viewBox="0 0 15 18" fill="none" xmlns="http://www.w3.org/2000/svg">
<path d="M11.0217 7.68062C11.0217 9.98481 11.0217 12.865 11.0217 15.1692C10.7609 15.0412 10.5652 14.9132 10.3696 14.7852C9.3913 14.2732 8.41304 13.6971 7.5 13.1851C6.65217 12.801 5.86957 12.801 5.15217 13.1851C3.97826 13.8251 2.86957 14.4012 1.69565 15.0412C1.69565 15.0412 1.63043 15.0412 1.56522 15.1052C1.56522 11.3289 1.56522 7.61661 1.56522 3.84031C2.54348 3.84031 3.45652 3.84031 4.43478 3.84031C5.21739 3.84031 6.58696 3.84031 7.36957 3.84031V2.30418C6.65217 2.30418 5.15217 2.30418 4.36957 2.30418C3.19565 2.30418 2.02174 2.30418 0.847826 2.30418C0.326087 2.30418 0 2.62421 0 3.20026C0 5.37643 0 7.55261 0 9.72879C0 11.905 0 14.0811 0 16.3213C0 17.0894 0.586957 17.4094 1.23913 17.0894C2.73913 16.2573 4.23913 15.4893 5.73913 14.6572C6.13043 14.4652 6.45652 14.4652 6.84783 14.6572C8.34783 15.4893 9.84783 16.3213 11.3478 17.0894C11.4783 17.1534 11.6087 17.2174 11.8043 17.2174C12.3261 17.2814 12.6522 16.8974 12.6522 16.3213C12.6522 13.6331 12.6522 10.3048 12.6522 7.61661L11.0217 7.68062Z" fill="#144B9E"/>
<path d="M15.0001 2.30419H12.6523V0H11.0219V2.30419H8.73926V3.84031H11.0219V6.1445H12.6523V3.84031H15.0001V2.30419Z" fill="#144B9E"/>
</svg>
