<svg width="169" height="64" viewBox="0 0 169 64" fill="none" xmlns="http://www.w3.org/2000/svg">
<path d="M21.2334 40.2804H18.5792C18.0655 40.2804 17.723 40.7117 17.723 41.1429C17.723 41.6604 18.1511 42.0055 18.5792 42.0055H20.4628H21.8327C22.3464 42.0055 22.6889 41.5742 22.6889 41.1429C22.6889 40.6254 22.2608 40.2804 21.8327 40.2804H21.2334ZM16.7812 36.744C16.6955 36.744 16.6955 36.744 16.6099 36.744C16.1818 36.8302 15.925 37.1753 15.925 37.6065C15.925 37.9515 16.1818 38.2966 16.4387 38.3828C16.5243 38.4691 16.6955 38.4691 16.7812 38.4691H22.9458C23.4595 38.4691 23.802 38.0378 23.802 37.6065C23.802 37.089 23.3739 36.744 22.9458 36.744H16.7812ZM25.0006 37.6065C25.0006 38.1241 25.4287 38.4691 25.8568 38.4691C26.3706 38.4691 26.713 38.0378 26.713 37.6065C26.713 37.089 26.2849 36.744 25.8568 36.744C25.4287 36.744 25.0006 37.1753 25.0006 37.6065ZM21.319 33.2076H14.9831C14.4694 33.2076 14.127 33.6389 14.127 34.0701C14.127 34.5877 14.5551 34.9327 14.9831 34.9327H17.8086H29.3672C29.881 34.9327 30.2234 34.5014 30.2234 34.0701C30.2234 33.5526 29.7953 33.2076 29.3672 33.2076H21.319ZM20.8909 31.4825H33.2201C33.5626 31.5688 33.8195 31.9138 33.8195 32.3451C33.8195 32.8626 33.3914 33.2076 32.9633 33.2076H32.1071C31.5933 33.2076 31.2509 33.6389 31.2509 34.0701C31.2509 34.5877 31.679 34.9327 32.1071 34.9327H38.2717C38.7854 34.9327 39.1279 35.3639 39.1279 35.7952C39.1279 36.2265 38.6998 36.6577 38.2717 36.6577H28.5967C28.0829 36.6577 27.7405 37.089 27.7405 37.5203C27.7405 38.0378 28.1686 38.3828 28.5967 38.3828H35.275C35.7887 38.3828 36.1312 38.8141 36.1312 39.2453C36.1312 39.7629 35.7031 40.1079 35.275 40.1079H24.4013C23.8876 40.1079 23.5451 40.5391 23.5451 40.9704C23.5451 41.4879 23.9732 41.8329 24.4013 41.8329H42.0389C45.8918 41.8329 48.9741 38.7278 48.9741 34.8464C48.9741 33.5526 48.6316 32.3451 48.0323 31.2238H48.1179C46.9193 29.1537 44.6075 27.7736 42.0389 27.7736C41.5252 27.7736 40.9259 27.8599 40.4122 27.9462C39.8128 26.5661 38.9566 25.3586 37.9292 24.4098C37.8436 24.3235 37.758 24.2373 37.6723 24.2373C37.5867 24.151 37.5011 24.0648 37.4155 23.9785C35.7031 22.5122 33.477 21.6497 30.994 21.6497C25.6 21.9084 21.1478 26.1348 20.8909 31.4825Z" fill="#F2F2F2"/>
<path d="M0 32L2.82545 31.0512V27.946L4.62346 30.4474L7.53452 29.4986L5.73651 32L7.53452 34.415L4.62346 33.5525L2.82545 35.9676V32.9487L0 32Z" fill="#F2F2F2"/>
<path d="M3.76758 46.1455L6.59302 45.283V42.1779L8.39104 44.6792L11.2165 43.6442L9.50409 46.1455L11.2165 48.6469L8.39104 47.6981L6.59302 50.1132V47.0943L3.76758 46.1455Z" fill="#F2F2F2"/>
<path d="M14.041 56.5822L16.8665 55.6334V52.5283L18.6645 55.0297L21.4899 54.0809L19.7775 56.496L21.4899 58.9973L18.6645 58.0485L16.8665 60.5499V57.4448L14.041 56.5822Z" fill="#F2F2F2"/>
<path d="M3.76758 17.8544L6.67864 16.8194V13.8005L8.47666 16.3019L11.3021 15.3531L9.50409 17.8544L11.3021 20.2695L8.47666 19.3208L6.67864 21.8221V18.8032L3.76758 17.8544Z" fill="#F2F2F2"/>
<path d="M16.6965 3.88135L18.4946 6.3827L21.32 5.43391L19.522 7.849L21.32 10.3504L18.4946 9.40156L16.6965 11.9029V8.79779L13.8711 7.93526L16.6965 6.98647V3.88135Z" fill="#F2F2F2"/>
<path d="M30.8232 0L32.5356 2.50135L35.4466 1.55256L33.6486 3.96765L35.4466 6.469L32.5356 5.52022L30.7376 7.93531V4.91644L27.9121 3.96765L30.7376 3.01887L30.8232 0Z" fill="#F2F2F2"/>
<path d="M48.9743 5.17517L47.1763 7.67652L48.9743 10.0916L46.1488 9.14282L44.3508 11.6442V8.6253L41.5254 7.67652L44.3508 6.72773V3.70886L46.1488 6.12396L48.9743 5.17517Z" fill="#F2F2F2"/>
<path d="M63.1869 34.1563L60.2758 33.2938L58.4778 35.7089V32.69L55.6523 31.7412L58.4778 30.7924V27.7736L60.2758 30.1887L63.1869 29.3261L61.3889 31.7412L63.1869 34.1563Z" fill="#F2F2F2"/>
<path d="M59.4193 48.3881L56.5082 47.4393L54.7958 49.9407V46.8356L51.8848 45.973L54.7958 45.0242L54.7102 42.0054L56.5082 44.4205L59.4193 43.4717L57.6213 45.973L59.4193 48.3881Z" fill="#F2F2F2"/>
<path d="M59.3337 15.5256L57.6213 18.027L59.3337 20.4421L56.4226 19.4933L54.7102 21.9946V18.8895L51.8848 18.027L54.7102 17.0782V14.0593L56.5082 16.4744L59.3337 15.5256Z" fill="#F2F2F2"/>
<path d="M30.9091 64V60.9811L27.998 59.946L30.9091 58.9973L30.8235 55.9784L32.6215 58.4797L35.447 57.531L33.7346 59.946L35.5326 62.4474L32.6215 61.4986L30.9091 64Z" fill="#F2F2F2"/>
<path d="M48.974 58.7386L46.1485 57.7898L44.3505 60.2911V57.2723L41.4395 56.3235L44.3505 55.3747V52.3558L46.1485 54.7709L48.974 53.8221L47.176 56.3235L48.974 58.7386Z" fill="#F2F2F2"/>
<path d="M76.2011 27.4286H79.5402V29.4124H73.5469V19.4933H79.4546V21.3909H76.2011V23.4609H78.9409V25.3585H76.2011V27.4286Z" fill="#F2F2F2"/>
<path d="M84.5062 19.4933H87.1604V27.5148C87.1604 28.8086 86.3899 29.4124 84.9343 29.4124H82.6226C81.0814 29.4124 80.3965 28.8086 80.3965 27.5148V19.4933H83.0507V27.1698C83.0507 27.4286 83.1363 27.5148 83.3932 27.5148H84.0781C84.335 27.5148 84.4206 27.4286 84.4206 27.1698V19.4933H84.5062Z" fill="#F2F2F2"/>
<path d="M92.2126 21.3909H91.1851V24.0647H92.2126C92.4694 24.0647 92.555 23.9785 92.555 23.7197V21.7359C92.555 21.4771 92.4694 21.3909 92.2126 21.3909ZM91.0995 25.876V29.4124H88.4453V19.4933H92.9831C94.5243 19.4933 95.2093 20.0971 95.2093 21.3909V23.9785C95.2093 24.9272 94.7812 25.531 93.925 25.7898L95.723 29.4124H92.8119L91.2708 25.876H91.0995Z" fill="#F2F2F2"/>
<path d="M100.432 27.1698V21.7359C100.432 21.4771 100.261 21.3909 100.09 21.3909H99.4046C99.1477 21.3909 99.0621 21.4771 99.0621 21.7359V27.1698C99.0621 27.4286 99.1477 27.5148 99.4046 27.5148H100.09C100.261 27.4286 100.432 27.3423 100.432 27.1698ZM98.5484 19.4933H100.86C102.401 19.4933 103.086 20.0971 103.086 21.3909V27.5148C103.086 28.8086 102.316 29.4124 100.86 29.4124H98.5484C97.0072 29.4124 96.3223 28.8086 96.3223 27.5148V21.3909C96.3223 20.0971 97.0928 19.4933 98.5484 19.4933Z" fill="#F2F2F2"/>
<path d="M108.395 23.8922V21.7359C108.395 21.4771 108.224 21.3909 108.052 21.3909H107.025V24.2372H108.052C108.309 24.2372 108.395 24.0647 108.395 23.8922ZM104.285 19.4933H108.823C110.364 19.4933 111.049 20.0971 111.049 21.3909V24.2372C111.049 25.531 110.279 26.1348 108.823 26.1348H106.939V29.4124H104.285V19.4933Z" fill="#F2F2F2"/>
<path d="M114.73 27.4286H118.07V29.4124H112.076V19.4933H117.984V21.3909H114.73V23.4609H117.47V25.3585H114.73V27.4286Z" fill="#F2F2F2"/>
<path d="M121.751 25.9623H123.292L122.521 22.3396L121.751 25.9623ZM123.977 29.4124L123.634 27.9461H121.237L120.894 29.4124H118.24L120.809 19.4933H124.062L126.631 29.4124H123.977Z" fill="#F2F2F2"/>
<path d="M131.769 19.4933H134.252V29.4124H131.94L129.714 24.151V29.4124H127.316V19.4933H129.628L131.769 24.7547V19.4933Z" fill="#F2F2F2"/>
<path d="M142.643 27.1698V21.7359C142.643 21.4771 142.472 21.3909 142.3 21.3909H141.616C141.359 21.3909 141.273 21.4771 141.273 21.7359V27.1698C141.273 27.4286 141.359 27.5148 141.616 27.5148H142.3C142.472 27.4286 142.643 27.3423 142.643 27.1698ZM140.759 19.4933H143.071C144.612 19.4933 145.297 20.0971 145.297 21.3909V27.5148C145.297 28.8086 144.527 29.4124 143.071 29.4124H140.759C139.218 29.4124 138.533 28.8086 138.533 27.5148V21.3909C138.533 20.0971 139.304 19.4933 140.759 19.4933Z" fill="#F2F2F2"/>
<path d="M150.606 23.8922V21.7359C150.606 21.4771 150.435 21.3909 150.263 21.3909H149.236V24.2372H150.263C150.52 24.2372 150.606 24.0647 150.606 23.8922ZM146.496 19.4933H151.034C152.575 19.4933 153.26 20.0971 153.26 21.3909V24.2372C153.26 25.531 152.489 26.1348 151.034 26.1348H149.15V29.4124H146.496V19.4933Z" fill="#F2F2F2"/>
<path d="M156.941 27.4286H160.28V29.4124H154.287V19.4933H160.195V21.3909H156.941V23.4609H159.767V25.3585H156.941V27.4286Z" fill="#F2F2F2"/>
<path d="M165.675 19.4933H168.158V29.4124H165.846L163.62 24.151V29.4124H161.137V19.4933H163.448L165.675 24.7547V19.4933Z" fill="#F2F2F2"/>
<path d="M77.572 42.0917V40.5391C77.572 40.2803 77.4008 40.1941 77.1439 40.1941H75.6027C74.8322 40.1941 74.2328 40.0216 73.8904 39.6766C73.5479 39.3315 73.3766 38.814 73.3766 38.124V35.9677C73.3766 34.5876 74.1472 33.8976 75.774 33.8976H78.0001C79.6269 33.8976 80.3974 34.5876 80.3974 35.9677V37.2615H77.4864V36.3989C77.4864 36.1402 77.3151 36.0539 77.0583 36.0539H76.5446C76.2877 36.0539 76.1165 36.1402 76.1165 36.3989V37.9515C76.1165 38.2103 76.2877 38.2965 76.5446 38.2965H78.0857C78.8563 38.2965 79.4556 38.469 79.7981 38.814C80.1406 39.159 80.3118 39.6766 80.3118 40.2803V42.4367C80.3118 43.8167 79.5412 44.5067 77.9145 44.5067H75.6884C74.0616 44.5067 73.291 43.8167 73.291 42.4367V41.1429H76.2021V42.0054C76.2021 42.2642 76.3733 42.3504 76.6302 42.3504H77.1439C77.4008 42.4367 77.572 42.3504 77.572 42.0917Z" fill="#F2F2F2"/>
<path d="M88.6162 37.8652H85.7051V36.1401C85.7051 35.8814 85.5339 35.7951 85.277 35.7951H84.7633C84.5065 35.7951 84.3352 35.8814 84.3352 36.1401V42.2641C84.3352 42.5229 84.5065 42.6091 84.7633 42.6091H85.3626C85.6195 42.6091 85.7907 42.5229 85.7907 42.2641V40.6253H88.7018V42.4366C88.7018 43.8167 87.9312 44.5067 86.3045 44.5067H83.9071C82.2803 44.5067 81.5098 43.8167 81.5098 42.4366V35.8814C81.5098 34.5013 82.2803 33.8113 83.9071 33.8113H86.2188C87.8456 33.8113 88.6162 34.5013 88.6162 35.8814V37.8652Z" fill="#F2F2F2"/>
<path d="M92.5556 33.8976H89.6445V44.5067H92.5556V33.8976Z" fill="#F2F2F2"/>
<path d="M96.7509 42.4367H100.347V44.5067H93.8398V33.8976H100.176V35.9677H96.7509V38.124H99.7476V40.1941H96.7509V42.4367Z" fill="#F2F2F2"/>
<path d="M106.083 33.8976H108.652V44.5067H106.255L103.857 38.9003V44.5067H101.203V33.8976H103.686L106.083 39.5903V33.8976Z" fill="#F2F2F2"/>
<path d="M117.042 37.8652H114.131V36.1401C114.131 35.8814 113.96 35.7951 113.703 35.7951H113.103C112.847 35.7951 112.675 35.8814 112.675 36.1401V42.2641C112.675 42.5229 112.847 42.6091 113.103 42.6091H113.703C113.96 42.6091 114.131 42.5229 114.131 42.2641V40.6253H117.042V42.4366C117.042 43.8167 116.271 44.5067 114.645 44.5067H112.333C110.706 44.5067 109.936 43.8167 109.936 42.4366V35.8814C109.936 34.5013 110.706 33.8113 112.333 33.8113H114.645C116.271 33.8113 117.042 34.5013 117.042 35.8814V37.8652Z" fill="#F2F2F2"/>
<path d="M120.981 42.4367H124.577V44.5067H118.07V33.8976H124.406V35.9677H120.981V38.124H123.978V40.1941H120.981V42.4367Z" fill="#F2F2F2"/>
<path d="M135.792 37.8652H132.881V36.1401C132.881 35.8814 132.71 35.7951 132.453 35.7951H131.853C131.597 35.7951 131.425 35.8814 131.425 36.1401V42.2641C131.425 42.5229 131.597 42.6091 131.853 42.6091H132.453C132.71 42.6091 132.881 42.5229 132.881 42.2641V40.6253H135.792V42.4366C135.792 43.8167 135.021 44.5067 133.395 44.5067H131.083C129.456 44.5067 128.686 43.8167 128.686 42.4366V35.8814C128.686 34.5013 129.456 33.8113 131.083 33.8113H133.395C135.021 33.8113 135.792 34.5013 135.792 35.8814V37.8652Z" fill="#F2F2F2"/>
<path d="M139.732 42.4367H142.985V44.5067H136.906V33.8976H139.732V42.4367Z" fill="#F2F2F2"/>
<path d="M148.037 42.0917V36.3127C148.037 36.0539 147.865 35.9677 147.608 35.9677H146.923C146.667 35.9677 146.495 36.0539 146.495 36.3127V42.0917C146.495 42.3504 146.667 42.4367 146.923 42.4367H147.608C147.865 42.4367 148.037 42.3504 148.037 42.0917ZM146.067 33.8976H148.465C150.091 33.8976 150.862 34.5876 150.862 35.9677V42.5229C150.862 43.903 150.091 44.593 148.465 44.593H146.067C144.441 44.593 143.67 43.903 143.67 42.5229V35.9677C143.67 34.5876 144.441 33.8976 146.067 33.8976Z" fill="#F2F2F2"/>
<path d="M156.513 33.8976H159.424V42.4367C159.424 43.8167 158.654 44.5067 157.027 44.5067H154.63C153.003 44.5067 152.232 43.8167 152.232 42.4367V33.8976H155.143V42.0917C155.143 42.3504 155.315 42.4367 155.572 42.4367H156.257C156.513 42.4367 156.685 42.3504 156.685 42.0917V33.8976H156.513Z" fill="#F2F2F2"/>
<path d="M165.246 42.2642V36.1402C165.246 35.8814 165.074 35.7952 164.817 35.7952H163.704V42.6092H164.817C165.16 42.6092 165.246 42.5229 165.246 42.2642ZM160.879 33.8976H165.759C167.386 33.8976 168.157 34.5876 168.157 35.9677V42.5229C168.157 43.903 167.386 44.593 165.759 44.593H160.879V33.8976Z" fill="#F2F2F2"/>
</svg>
