<svg width="81" height="73" viewBox="0 0 81 73" fill="none" xmlns="http://www.w3.org/2000/svg">
<g clip-path="url(#clip0_583_28870)">
<path d="M78.1508 73H2.84925C1.22111 73 0 71.6596 0 70.113V2.88701C0 1.23729 1.32286 0 2.84925 0H78.1508C79.7789 0 81 1.3404 81 2.88701V70.113C81 71.7627 79.7789 73 78.1508 73Z" fill="#E6E9EE"/>
<path d="M75.8103 10.7231H5.1897V26.911H75.8103V10.7231Z" fill="#606060"/>
<path d="M5.1897 26.9111V67.7416H64.9221V56.7092H75.8103V26.9111H5.1897Z" fill="white"/>
<path d="M64.9221 67.7415L75.8103 56.709H64.9221V67.7415Z" fill="#CED5E0"/>
<path d="M30.8329 30.7261H22.5905V39.0778H30.8329V30.7261Z" fill="#84DBFF" fill-opacity="0.3"/>
<path d="M43.9598 30.7261H35.7173V39.0778H43.9598V30.7261Z" fill="#84DBFF" fill-opacity="0.3"/>
<path d="M57.1884 30.7261H48.946V39.0778H57.1884V30.7261Z" fill="#84DBFF" fill-opacity="0.3"/>
<path d="M70.3153 30.7261H62.0729V39.0778H70.3153V30.7261Z" fill="#84DBFF" fill-opacity="0.3"/>
<path d="M17.706 42.6865H9.46356V51.0382H17.706V42.6865Z" fill="#84DBFF" fill-opacity="0.3"/>
<path d="M30.8329 42.6865H22.5905V51.0382H30.8329V42.6865Z" fill="#84DBFF" fill-opacity="0.3"/>
<path d="M43.9598 42.6865H35.7173V51.0382H43.9598V42.6865Z" fill="#84DBFF" fill-opacity="0.3"/>
<path d="M57.1884 42.6865H48.946V51.0382H57.1884V42.6865Z" fill="#84DBFF" fill-opacity="0.3"/>
<path d="M70.3153 42.6865H62.0729V51.0382H70.3153V42.6865Z" fill="#84DBFF" fill-opacity="0.3"/>
<path d="M17.706 54.647H9.46356V62.9987H17.706V54.647Z" fill="#84DBFF" fill-opacity="0.3"/>
<path d="M30.8329 54.647H22.5905V62.9987H30.8329V54.647Z" fill="#84DBFF" fill-opacity="0.3"/>
<path d="M43.9598 54.647H35.7173V62.9987H43.9598V54.647Z" fill="#84DBFF" fill-opacity="0.3"/>
<path d="M57.1884 54.647H48.946V62.9987H57.1884V54.647Z" fill="#84DBFF" fill-opacity="0.3"/>
<path d="M65.3291 6.18652H61.2588V14.332H65.3291V6.18652Z" fill="#324A5E"/>
<path d="M50.1671 6.18652H46.0967V14.332H50.1671V6.18652Z" fill="#324A5E"/>
<path d="M34.9033 6.18652H30.8329V14.332H34.9033V6.18652Z" fill="#324A5E"/>
<path d="M19.7412 6.18652H15.6709V14.332H19.7412V6.18652Z" fill="#324A5E"/>
</g>
<defs>
<clipPath id="clip0_583_28870">
<rect width="81" height="73" fill="white"/>
</clipPath>
</defs>
</svg>
