<svg width="24" height="30" viewBox="0 0 24 30" fill="none" xmlns="http://www.w3.org/2000/svg">
<path d="M20.3191 10.9669L19.5738 11.0515L20.3191 10.9669ZM20.9153 16.2203L21.6605 16.1357L20.9153 16.2203ZM3.08404 16.2203L2.33883 16.1357L3.08404 16.2203ZM3.68029 10.9669L4.42551 11.0515L3.68029 10.9669ZM1.93006 18.8295L1.35895 18.3433H1.35895L1.93006 18.8295ZM22.0693 18.8295L21.4982 19.3156L22.0693 18.8295ZM15.0263 4.83151H14.2763C14.2763 5.15209 14.48 5.43723 14.7833 5.54107L15.0263 4.83151ZM8.97308 4.83151L9.21603 5.54107C9.51932 5.43722 9.72308 5.15209 9.72308 4.83151H8.97308ZM16.702 25.9298C16.8473 25.542 16.6507 25.1097 16.2629 24.9643C15.875 24.819 15.4427 25.0156 15.2974 25.4034L16.702 25.9298ZM8.70197 25.4034C8.55661 25.0156 8.12434 24.819 7.73647 24.9643C7.3486 25.1097 7.15201 25.542 7.29738 25.9298L8.70197 25.4034ZM19.7026 22.25H4.29676V23.75H19.7026V22.25ZM19.5738 11.0515L20.1701 16.3049L21.6605 16.1357L21.0643 10.8823L19.5738 11.0515ZM3.82926 16.3049L4.42551 11.0515L2.93508 10.8823L2.33883 16.1357L3.82926 16.3049ZM2.50116 19.3156C3.24036 18.4472 3.7042 17.4067 3.82926 16.3049L2.33883 16.1357C2.24911 16.9262 1.91483 17.6903 1.35895 18.3433L2.50116 19.3156ZM20.1701 16.3049C20.2951 17.4067 20.759 18.4472 21.4982 19.3156L22.6404 18.3433C22.0845 17.6903 21.7502 16.9262 21.6605 16.1357L20.1701 16.3049ZM4.29676 22.25C3.33699 22.25 2.6343 21.7727 2.30299 21.1889C1.97908 20.6181 1.98657 19.9201 2.50116 19.3156L1.35895 18.3433C0.410838 19.4571 0.382759 20.8444 0.998416 21.9293C1.60667 23.0011 2.81869 23.75 4.29676 23.75V22.25ZM19.7026 23.75C21.1807 23.75 22.3927 23.0011 23.0009 21.9293C23.6166 20.8444 23.5885 19.4571 22.6404 18.3433L21.4982 19.3156C22.0128 19.9201 22.0203 20.6181 21.6964 21.1889C21.365 21.7727 20.6624 22.25 19.7026 22.25V23.75ZM15.7763 4.83151V4.69322H14.2763V4.83151H15.7763ZM21.0643 10.8823C20.7047 7.71376 18.351 5.17712 15.2692 4.12195L14.7833 5.54107C17.4146 6.44198 19.2904 8.55451 19.5738 11.0515L21.0643 10.8823ZM9.72308 4.83151V4.69322H8.22308V4.83151H9.72308ZM4.42551 11.0515C4.70891 8.55451 6.58477 6.44198 9.21603 5.54107L8.73014 4.12195C5.64834 5.17712 3.2947 7.71376 2.93508 10.8823L4.42551 11.0515ZM11.9997 2.41663C13.257 2.41663 14.2763 3.43589 14.2763 4.69322H15.7763C15.7763 2.60746 14.0854 0.916626 11.9997 0.916626V2.41663ZM11.9997 0.916626C9.91392 0.916626 8.22308 2.60746 8.22308 4.69322H9.72308C9.72308 3.43589 10.7423 2.41663 11.9997 2.41663V0.916626ZM15.2974 25.4034C14.8291 26.6529 13.5459 27.5833 11.9997 27.5833V29.0833C14.1468 29.0833 16.0058 27.7875 16.702 25.9298L15.2974 25.4034ZM11.9997 27.5833C10.4534 27.5833 9.17025 26.6529 8.70197 25.4034L7.29738 25.9298C7.99359 27.7875 9.85252 29.0833 11.9997 29.0833V27.5833Z" fill="#232C34"/>
</svg>
