<svg width="13" height="19" viewBox="0 0 13 19" fill="none" xmlns="http://www.w3.org/2000/svg">
<path d="M2.68735 7.37607V4.62497C2.6549 4.06743 2.70119 3.50819 2.82493 2.96286C3.05479 2.14267 3.56772 1.42422 4.27773 0.927931C4.98773 0.431642 5.85167 0.187683 6.72471 0.236944C7.59776 0.286206 8.42685 0.625695 9.07302 1.19851C9.71918 1.77132 10.1431 2.54263 10.2738 3.38316C10.2843 3.54858 10.2843 3.71447 10.2738 3.87989C10.2821 3.94315 10.2766 4.00739 10.2579 4.0685C10.2391 4.12961 10.2075 4.18625 10.1649 4.23479C10.1224 4.28334 10.0699 4.32272 10.0108 4.35043C9.95174 4.37814 9.88735 4.39356 9.82179 4.39572C9.54663 4.39572 9.36974 4.20467 9.35009 3.89899C9.35009 3.15416 9.0457 2.43983 8.50388 1.91315C7.96206 1.38647 7.22719 1.09058 6.46094 1.09058C5.69469 1.09058 4.95982 1.38647 4.418 1.91315C3.87618 2.43983 3.57179 3.15416 3.57179 3.89899C3.57179 4.98796 3.57179 6.09604 3.57179 7.20412V7.35696H10.8045C11.0694 7.32994 11.3372 7.36078 11.5883 7.44724C11.8394 7.53369 12.0675 7.67358 12.2558 7.85667C12.4442 8.03977 12.5881 8.26145 12.677 8.50553C12.766 8.74961 12.7977 9.00992 12.7699 9.26744V15.935C12.7941 16.1918 12.7598 16.4506 12.6696 16.693C12.5794 16.9355 12.4354 17.1557 12.2478 17.338C12.0603 17.5203 11.8337 17.6603 11.5843 17.748C11.3349 17.8357 11.0686 17.869 10.8045 17.8455H2.17635C1.9122 17.869 1.64597 17.8357 1.39654 17.748C1.14711 17.6603 0.920579 17.5203 0.733019 17.338C0.545459 17.1557 0.401461 16.9355 0.311237 16.693C0.221012 16.4506 0.18677 16.1918 0.210939 15.935V9.22923C0.183139 8.97171 0.214867 8.7114 0.303808 8.46732C0.39275 8.22324 0.536657 8.00156 0.725017 7.81846C0.913378 7.63537 1.14144 7.49548 1.39253 7.40903C1.64363 7.32257 1.91142 7.29173 2.17635 7.31875L2.68735 7.37607ZM6.61817 8.25489H2.13704C2.00418 8.23953 1.86947 8.25366 1.74305 8.29624C1.61663 8.33881 1.50179 8.40871 1.40719 8.50067C1.31258 8.59264 1.24067 8.70426 1.19688 8.82715C1.15308 8.95004 1.13853 9.08098 1.15433 9.21013V15.9159C1.14172 16.0436 1.15865 16.1723 1.20387 16.2928C1.24909 16.4133 1.32146 16.5224 1.41568 16.6121C1.5099 16.7019 1.62358 16.77 1.7484 16.8115C1.87321 16.853 2.006 16.8669 2.13704 16.852H10.8635C10.9963 16.8674 11.131 16.8533 11.2574 16.8107C11.3839 16.7681 11.4987 16.6982 11.5933 16.6063C11.6879 16.5143 11.7598 16.4027 11.8036 16.2798C11.8474 16.1569 11.862 16.026 11.8462 15.8968V9.21013C11.862 9.08098 11.8474 8.95004 11.8036 8.82715C11.7598 8.70426 11.6879 8.59264 11.5933 8.50067C11.4987 8.40871 11.3839 8.33881 11.2574 8.29624C11.131 8.25366 10.9963 8.23953 10.8635 8.25489H6.61817Z" fill="#27AE60" stroke="#27AE60" stroke-width="0.4"/>
</svg>
