<svg width="16" height="21" viewBox="0 0 16 21" fill="none" xmlns="http://www.w3.org/2000/svg">
<path d="M13.0098 8.10205H12.4726V5.0125C12.5101 4.38125 12.4582 3.74798 12.3185 3.13053C12.1223 2.4228 11.7396 1.77747 11.2087 1.25864C10.6776 0.739829 10.0167 0.365599 9.29149 0.173138C9.15769 0.137297 9.02203 0.108396 8.8851 0.0865576H8.8524C8.73561 0.0865576 8.61417 0.0592164 8.49738 0.0501028H8.40862H7.9415C7.87306 0.0457991 7.80441 0.0457991 7.73597 0.0501028L7.49773 0.0728871L7.35293 0.100228C7.25847 0.116956 7.16494 0.138248 7.07265 0.164024H7.0306H6.96989C6.2546 0.363917 5.60479 0.741542 5.08402 1.25994C4.56325 1.77834 4.18937 2.41977 3.99897 3.12142C3.85942 3.74199 3.806 4.37805 3.84015 5.0125V8.12939H3.80278H3.25157C2.719 8.07582 2.1864 8.23039 1.77048 8.55925C1.35455 8.88812 1.08925 9.36443 1.03273 9.88378C1.01871 10.0201 1.01871 10.1575 1.03273 10.2939V17.8538C1.01871 17.9688 1.01871 18.085 1.03273 18.2C1.05446 18.4623 1.12928 18.7178 1.25283 18.9516C1.37636 19.1855 1.5462 19.3933 1.75252 19.5628C1.95884 19.7323 2.19755 19.8601 2.45485 19.9391C2.71215 20.018 2.98294 20.0465 3.25157 20.0228H13.0098C13.1341 20.0319 13.2592 20.0319 13.3835 20.0228C13.6524 20.0015 13.9142 19.9286 14.154 19.808C14.3938 19.6875 14.6067 19.5219 14.7805 19.3206C14.9542 19.1194 15.0853 18.8865 15.1663 18.6355C15.2472 18.3845 15.2764 18.1203 15.252 17.8583V10.2711C15.266 10.1332 15.266 9.99433 15.252 9.85644C15.2236 9.59737 15.1428 9.34634 15.0146 9.11778C14.8863 8.88923 14.7131 8.68764 14.5048 8.52462C14.2964 8.36159 14.057 8.24033 13.8005 8.16782C13.544 8.0953 13.2752 8.07295 13.0098 8.10205ZM4.83979 8.05193V4.18317C4.83977 3.34189 5.18042 2.53468 5.78758 1.93725C6.39476 1.33983 7.21928 1.00058 8.08164 0.993371H8.11434C8.48588 0.989981 8.85586 1.04066 9.21208 1.14375L9.30084 1.17564C9.38025 1.20299 9.45499 1.23033 9.52506 1.26223C10.1037 1.51173 10.5957 1.91963 10.9415 2.43647C11.2872 2.9533 11.4718 3.55689 11.473 4.17405V8.09294H4.83979V8.05193ZM13.2854 18.8699C13.2079 18.879 13.1295 18.879 13.0518 18.8699H3.2142C2.95096 18.8994 2.68649 18.8258 2.47889 18.6651C2.2713 18.5044 2.13758 18.27 2.10712 18.0133C2.10012 17.945 2.10012 17.8764 2.10712 17.8081V10.2073C2.09078 10.0795 2.10041 9.94988 2.13547 9.82574C2.17054 9.7016 2.23036 9.58543 2.31148 9.48385C2.3926 9.38228 2.49347 9.2973 2.60828 9.23378C2.72311 9.17027 2.84964 9.12945 2.98064 9.11367C3.05821 9.10455 3.13663 9.10455 3.2142 9.11367H13.0518C13.3143 9.08412 13.5782 9.15717 13.7857 9.31685C13.9931 9.47654 14.1274 9.70985 14.1589 9.9658C14.1683 10.043 14.1683 10.121 14.1589 10.1982V17.7716C14.1772 17.9 14.169 18.0306 14.1348 18.1558C14.1005 18.2809 14.0409 18.3981 13.9595 18.5005C13.8781 18.6028 13.7766 18.6883 13.6608 18.7516C13.545 18.8151 13.4174 18.8553 13.2854 18.8699Z" fill="#F97500" stroke="#F2994A" stroke-width="0.2"/>
<path d="M8.13771 11.8477C7.69715 11.8441 7.26544 11.9683 6.89734 12.2044C6.52923 12.4405 6.24133 12.7781 6.07017 13.1741C5.89902 13.5701 5.85231 14.0067 5.93598 14.4287C6.01966 14.8506 6.22994 15.2388 6.54014 15.5439C6.85035 15.8492 7.24649 16.0576 7.67832 16.1427C8.11013 16.2279 8.55816 16.1861 8.96556 16.0224C9.37294 15.8588 9.72131 15.5808 9.96647 15.2237C10.2116 14.8667 10.3426 14.4466 10.3426 14.0168C10.3426 13.4447 10.1108 12.8957 9.6979 12.4894C9.28495 12.0832 8.72417 11.8525 8.13771 11.8477ZM8.13771 15.1833C7.82012 15.1833 7.51547 15.0606 7.29046 14.8419C7.06546 14.6233 6.93843 14.3266 6.9372 14.0168C6.9372 13.7852 7.0076 13.5587 7.13952 13.3662C7.27143 13.1736 7.45892 13.0234 7.67829 12.9348C7.89766 12.8462 8.13904 12.8229 8.37191 12.8682C8.60479 12.9133 8.81871 13.0249 8.9866 13.1887C9.15449 13.3524 9.26882 13.5612 9.31514 13.7883C9.36148 14.0154 9.33769 14.2509 9.24683 14.4649C9.15597 14.6789 9.0021 14.8618 8.80467 14.9906C8.60724 15.1192 8.37514 15.1879 8.13771 15.1879V15.1833Z" fill="#F97500" stroke="#F2994A" stroke-width="0.2"/>
</svg>
