<svg width="94" height="93" viewBox="0 0 94 93" fill="none" xmlns="http://www.w3.org/2000/svg">
<path d="M57.7726 48.5082C57.513 48.5082 57.264 48.406 57.08 48.2239C56.896 48.0417 56.7921 47.7945 56.7908 47.5364L56.7768 44.4674C55.0247 44.0909 53.3533 43.4094 51.8397 42.4544L49.6659 44.6399C49.5751 44.731 49.4673 44.8034 49.3484 44.8531C49.2295 44.9027 49.1019 44.9286 48.973 44.9292C48.8441 44.9298 48.7163 44.9051 48.5969 44.8566C48.4776 44.8081 48.369 44.7367 48.2774 44.6464L45.0574 41.4728C44.8725 41.2905 44.768 41.0427 44.7668 40.7838C44.7655 40.5249 44.8677 40.2762 45.0508 40.0922L47.2251 37.9095C46.2521 36.4118 45.553 34.7547 45.1602 33.0149L42.0748 33.0293H42.0701C41.8106 33.0293 41.5616 32.9271 41.3776 32.7449C41.1936 32.5628 41.0897 32.3156 41.0884 32.0574L41.0674 27.5469C41.0668 27.4187 41.0917 27.2916 41.1405 27.1729C41.1893 27.0543 41.2612 26.9463 41.352 26.8552C41.4427 26.7642 41.5506 26.6918 41.6695 26.6422C41.7884 26.5926 41.916 26.5668 42.0449 26.5663L45.1303 26.5519C45.5074 24.8095 46.1911 23.1471 47.1499 21.6415L44.955 19.4834C44.8634 19.3931 44.7906 19.2858 44.7407 19.1676C44.6908 19.0493 44.6648 18.9225 44.6642 18.7942C44.6635 18.666 44.6883 18.5389 44.7371 18.4201C44.7859 18.3014 44.8577 18.1934 44.9485 18.1023L48.1391 14.8994C48.2298 14.8083 48.3377 14.7359 48.4566 14.6862C48.5754 14.6366 48.703 14.6107 48.8319 14.6101C48.9609 14.6095 49.0886 14.6342 49.208 14.6827C49.3273 14.7312 49.4359 14.8026 49.5275 14.8929L51.7214 17.0552C53.2265 16.0881 54.8913 15.3928 56.6394 15.0013L56.6253 11.9323C56.6247 11.804 56.6495 11.6769 56.6983 11.5582C56.7471 11.4395 56.8188 11.3315 56.9096 11.2404C57.0003 11.1493 57.1082 11.0768 57.2271 11.0272C57.3459 10.9776 57.4735 10.9517 57.6024 10.9511L62.137 10.9302H62.1417C62.4012 10.9302 62.6502 11.0324 62.8342 11.2145C63.0182 11.3967 63.1222 11.6438 63.1234 11.902L63.1374 14.971C64.8891 15.3461 66.5604 16.0262 68.0741 16.9798L70.2484 14.7971C70.4316 14.6131 70.6808 14.5091 70.9412 14.5079H70.9459C71.2046 14.5079 71.453 14.6095 71.6368 14.7906L74.8564 17.9638C74.948 18.054 75.0208 18.1613 75.0707 18.2796C75.1206 18.3978 75.1466 18.5247 75.1472 18.6529C75.1478 18.7812 75.1231 18.9083 75.0743 19.027C75.0255 19.1457 74.9537 19.2537 74.8629 19.3448L72.6873 21.5294C73.66 23.0262 74.359 24.6823 74.7521 26.4212L77.8376 26.4068C77.9665 26.4062 78.0943 26.4308 78.2136 26.4793C78.3329 26.5278 78.4415 26.5992 78.5331 26.6895C78.6247 26.7797 78.6975 26.887 78.7474 27.0053C78.7973 27.1235 78.8233 27.2504 78.8239 27.3786L78.8445 31.8891C78.8456 32.148 78.7433 32.3968 78.5601 32.5807C78.3769 32.7646 78.1278 32.8686 77.8675 32.8698L74.7821 32.8842C74.4053 34.6266 73.7218 36.289 72.763 37.7946L74.9574 39.9569C75.0489 40.0472 75.1217 40.1545 75.1716 40.2728C75.2215 40.391 75.2474 40.5179 75.248 40.6461C75.2485 40.7744 75.2237 40.9015 75.1749 41.0202C75.1261 41.1389 75.0542 41.2468 74.9634 41.3379L71.7733 44.5408C71.5901 44.7248 71.3409 44.8289 71.0805 44.8301H71.0758C70.8171 44.8301 70.5687 44.7285 70.3849 44.5474L68.1905 42.3846C66.6858 43.3521 65.021 44.0476 63.273 44.439L63.287 47.508C63.2876 47.6362 63.2629 47.7633 63.2141 47.8821C63.1653 48.0008 63.0935 48.1088 63.0028 48.1999C62.9121 48.291 62.8042 48.3634 62.6853 48.4131C62.5664 48.4627 62.4389 48.4885 62.31 48.4892L57.7754 48.5101L57.7726 48.5082ZM51.7144 40.2187C51.9193 40.2186 52.119 40.2824 52.2857 40.4009C53.955 41.5871 55.8793 42.3698 57.9058 42.6869C58.1364 42.7227 58.3466 42.8391 58.4988 43.0151C58.6509 43.1912 58.7351 43.4154 58.736 43.6476L58.7496 46.5501L61.3208 46.5385L61.3077 43.6355C61.3067 43.4034 61.3888 43.1786 61.5393 43.0013C61.6898 42.8239 61.8989 42.7057 62.1291 42.6678C64.1526 42.3315 66.0695 41.5309 67.7277 40.3293C67.9162 40.1925 68.1475 40.127 68.3802 40.1445C68.6128 40.162 68.8317 40.2613 68.9974 40.4247L71.0712 42.4683L72.8799 40.6548L70.8056 38.6112C70.6399 38.4478 70.5381 38.231 70.5185 37.9998C70.4989 37.7685 70.5627 37.5378 70.6986 37.3492C71.8902 35.6886 72.6766 33.7748 72.9953 31.7594C73.0309 31.5293 73.1479 31.3195 73.3252 31.1676C73.5025 31.0158 73.7286 30.932 73.9626 30.9312L76.8811 30.9177L76.8689 28.3602L73.9509 28.3737H73.9462C73.7136 28.3737 73.4886 28.2916 73.3112 28.142C73.1338 27.9924 73.0156 27.785 72.9776 27.5567C72.6397 25.5439 71.8349 23.637 70.627 21.9874C70.4892 21.8002 70.4229 21.5702 70.4401 21.3388C70.4572 21.1074 70.5566 20.8896 70.7205 20.7245L72.7775 18.6617L70.9543 16.8631L68.8973 18.9259C68.7331 19.0907 68.5153 19.1921 68.2828 19.2117C68.0503 19.2313 67.8183 19.1679 67.6286 19.0328C65.9593 17.8466 64.035 17.0637 62.0085 16.7464C61.7778 16.7107 61.5674 16.5943 61.4152 16.4183C61.2629 16.2422 61.1787 16.0179 61.1777 15.7857L61.1642 12.8832L58.593 12.8948L58.6066 15.7978C58.6081 16.0298 58.5265 16.2549 58.3765 16.4325C58.2264 16.6102 58.0176 16.7289 57.7875 16.7673C55.7639 17.1037 53.8469 17.9043 52.1884 19.1058C52 19.2425 51.7687 19.3079 51.5362 19.2905C51.3036 19.273 51.0849 19.1737 50.9192 19.0105L48.8454 16.9668L47.0367 18.7803L49.1105 20.824C49.2763 20.9873 49.3781 21.204 49.3979 21.4353C49.4176 21.6666 49.3538 21.8972 49.218 22.086C48.0256 23.7466 47.2385 25.6608 46.9194 27.6767C46.8837 27.9067 46.7666 28.1165 46.5892 28.2683C46.4118 28.4201 46.1857 28.5038 45.9517 28.5044L43.0332 28.5179L43.0453 31.0754L45.9634 31.0619H45.9681C46.2006 31.0619 46.4257 31.144 46.6031 31.2936C46.7805 31.4432 46.8987 31.6506 46.9367 31.8789C47.2744 33.8918 48.0792 35.7987 49.2872 37.4482C49.4247 37.6357 49.4906 37.8658 49.4731 38.0972C49.4555 38.3286 49.3556 38.5463 49.1914 38.7111L47.1368 40.7739L48.96 42.5725L51.0169 40.5098C51.108 40.4178 51.2166 40.3447 51.3363 40.2947C51.4561 40.2447 51.5846 40.2189 51.7144 40.2187Z" fill="#232C34"/>
<path d="M59.9569 38.6996C54.9968 38.6996 50.9507 34.6978 50.9278 29.7595C50.9174 27.3778 51.8584 25.0895 53.5439 23.3979C55.2293 21.7062 57.5213 20.7496 59.9157 20.7385H59.9587C62.3429 20.7495 64.626 21.6979 66.3098 23.3768C67.9937 25.0557 68.9417 27.3289 68.947 29.7004C68.9523 32.0719 68.0145 34.3492 66.3382 36.0356C64.6618 37.7219 62.383 38.6804 59.9989 38.7019H59.9569V38.6996ZM59.9583 22.6892H59.9246C58.9967 22.6935 58.0787 22.8795 57.223 23.2366C56.3674 23.5938 55.5908 24.1151 54.9377 24.7708C54.2846 25.4265 53.7677 26.2037 53.4166 27.0581C53.0655 27.9124 52.887 28.8272 52.8913 29.7502C52.909 33.6148 56.0758 36.7466 59.9569 36.7466H59.99C61.8545 36.7279 63.6361 35.977 64.9464 34.6575C66.2567 33.338 66.9896 31.5569 66.9854 29.7022C66.9812 27.8476 66.2403 26.0697 64.924 24.7561C63.6077 23.4424 61.8228 22.6995 59.9583 22.6892Z" fill="#232C34"/>
<path d="M60.9817 82.0724C60.7803 82.0724 60.5837 82.0107 60.4187 81.8957C60.2537 81.7808 60.1282 81.6181 60.0594 81.4298L59.2385 79.1848C57.8486 79.3536 56.4401 79.2923 55.0704 79.0034L54.0554 81.1671C53.9453 81.4018 53.746 81.5833 53.5013 81.6719C53.2566 81.7604 52.9866 81.7486 52.7507 81.6391L49.3722 80.0729C49.1362 79.9634 48.9537 79.7652 48.8647 79.5218C48.7757 79.2784 48.7876 79.0098 48.8977 78.7751L49.9126 76.6115C48.8103 75.7526 47.8584 74.7183 47.0955 73.5504L44.8375 74.3651C44.5929 74.4535 44.3229 74.4417 44.0869 74.3322C43.851 74.2226 43.6685 74.0244 43.5795 73.781L42.3052 70.2935C42.2162 70.0501 42.2281 69.7816 42.3382 69.5469C42.4483 69.3122 42.6476 69.1307 42.8923 69.0422L45.1489 68.2257C44.9792 66.8431 45.0408 65.4422 45.3312 64.0797L43.156 63.0702C42.92 62.9607 42.7375 62.7624 42.6485 62.519C42.5595 62.2757 42.5714 62.0071 42.6815 61.7724L44.2583 58.4118C44.3684 58.1773 44.5677 57.9958 44.8122 57.9073C45.0568 57.8188 45.3267 57.8305 45.5626 57.9399L47.7383 58.9494C48.6015 57.8528 49.6412 56.906 50.8153 56.1473L49.9944 53.9027C49.9503 53.7822 49.9305 53.6542 49.9361 53.526C49.9417 53.3979 49.9727 53.2721 50.0272 53.1558C50.0818 53.0396 50.1588 52.9352 50.2539 52.8485C50.349 52.7619 50.4603 52.6948 50.5815 52.651L54.0877 51.3838C54.3324 51.2954 54.6024 51.3072 54.8383 51.4167C55.0742 51.5262 55.2567 51.7245 55.3457 51.9679L56.1661 54.2124C57.556 54.0436 58.9645 54.1049 60.3342 54.3938L61.3492 52.2301C61.4593 51.9954 61.6586 51.8139 61.9033 51.7254C62.148 51.6368 62.418 51.6486 62.6539 51.7581L66.0329 53.3261C66.2689 53.4356 66.4514 53.6339 66.5404 53.8773C66.6294 54.1207 66.6175 54.3893 66.5074 54.6239L65.492 56.7876C66.5944 57.6463 67.5463 58.6807 68.3091 59.8487L70.5661 59.0321C70.8108 58.9437 71.0808 58.9555 71.3167 59.065C71.5526 59.1746 71.7352 59.3728 71.8241 59.6162L73.0985 63.1037C73.1427 63.2242 73.1626 63.3521 73.1571 63.4803C73.1516 63.6084 73.1208 63.7342 73.0664 63.8505C73.012 63.9668 72.9351 64.0713 72.8401 64.158C72.7451 64.2447 72.6339 64.312 72.5127 64.3559L70.2557 65.172C70.4256 66.5545 70.3641 67.9554 70.0739 69.3179L72.2491 70.3275C72.485 70.437 72.6676 70.6352 72.7566 70.8786C72.8455 71.122 72.8337 71.3906 72.7236 71.6253L71.1467 74.9858C71.0923 75.1021 71.0153 75.2065 70.9203 75.2932C70.8252 75.3798 70.7139 75.447 70.5928 75.4909C70.4716 75.5348 70.3429 75.5545 70.2141 75.5489C70.0853 75.5433 69.9588 75.5125 69.842 75.4583L67.6649 74.4464C66.8017 75.543 65.762 76.4898 64.5879 77.2485L65.4083 79.4935C65.4973 79.7369 65.4854 80.0055 65.3753 80.2402C65.2652 80.4748 65.0659 80.6564 64.8212 80.7449L61.315 82.0124C61.2082 82.0514 61.0955 82.0717 60.9817 82.0724ZM59.8859 77.1197C60.0874 77.1199 60.2839 77.1817 60.4488 77.2967C60.6137 77.4118 60.739 77.5745 60.8078 77.7628L61.5689 79.8446L63.2275 79.2443L62.4665 77.1625C62.3867 76.9444 62.3877 76.7052 62.4691 76.4878C62.5506 76.2703 62.7073 76.0888 62.911 75.9758C64.3608 75.1704 65.6019 74.04 66.5359 72.6743C66.6669 72.4822 66.8625 72.3428 67.0874 72.2811C67.3124 72.2195 67.5521 72.2395 67.7635 72.3377L69.7808 73.2737L70.5287 71.6829L68.5111 70.7464C68.2995 70.6483 68.1301 70.4784 68.0331 70.2672C67.9361 70.0561 67.918 69.8174 67.9819 69.5942C68.4339 68.0054 68.5075 66.3337 68.1969 64.7117C68.1534 64.4841 68.1926 64.2486 68.3075 64.0472C68.4224 63.8457 68.6056 63.6915 68.8243 63.6119L70.9172 62.8549L70.3142 61.2051L68.2207 61.9621C68.0015 62.0414 67.761 62.0405 67.5424 61.9595C67.3238 61.8784 67.1413 61.7226 67.0277 61.5199C66.2182 60.0778 65.0817 58.8434 63.7086 57.9148C63.5155 57.7844 63.3753 57.59 63.3133 57.3662C63.2513 57.1424 63.2714 56.904 63.3701 56.6937L64.3116 54.6867L62.7119 53.9427L61.7708 55.9492C61.6722 56.1596 61.5014 56.3281 61.2891 56.4246C61.0768 56.5211 60.8369 56.5391 60.6124 56.4756C59.0151 56.026 57.3344 55.9529 55.7038 56.2621C55.4747 56.3057 55.2374 56.2667 55.0346 56.1521C54.8317 56.0375 54.6765 55.8548 54.5968 55.6367L53.8352 53.5549L52.1766 54.1548L52.9377 56.2366C53.0174 56.4547 53.0165 56.6939 52.935 56.9113C52.8535 57.1288 52.6969 57.3103 52.4931 57.4232C51.0434 58.2286 49.8024 59.359 48.8687 60.7247C48.7377 60.9169 48.5422 61.0564 48.3173 61.1182C48.0923 61.18 47.8526 61.16 47.6411 61.0619L45.6234 60.1244L44.8754 61.7152L46.8926 62.6517C47.1041 62.7498 47.2736 62.9197 47.3705 63.1309C47.4675 63.3421 47.4857 63.5807 47.4218 63.804C46.9698 65.3928 46.8963 67.0645 47.2072 68.6865C47.251 68.9144 47.2118 69.1504 47.0966 69.3522C46.9814 69.5539 46.7977 69.7083 46.5785 69.7876L44.4855 70.5446L45.0886 72.1944L47.1815 71.4374C47.4008 71.3581 47.6413 71.359 47.8599 71.4401C48.0785 71.5211 48.2609 71.6769 48.3745 71.8796C49.1843 73.3217 50.3207 74.5562 51.6937 75.4852C51.8868 75.6155 52.0269 75.8098 52.089 76.0335C52.1511 76.2572 52.1311 76.4955 52.0326 76.7059L51.0911 78.7128L52.6904 79.4568L53.6319 77.4503C53.7306 77.2399 53.9014 77.0714 54.1137 76.9749C54.3259 76.8785 54.5658 76.8604 54.7903 76.924C56.3876 77.3735 58.0682 77.4467 59.6989 77.1379C59.7605 77.1257 59.8232 77.1197 59.8859 77.1197Z" fill="#232C34"/>
<path d="M57.6991 74.2647C56.5896 74.2639 55.4938 74.0205 54.4893 73.5519C50.691 71.7886 49.0426 67.2809 50.8153 63.5028C51.2374 62.6026 51.8336 61.794 52.57 61.1232C53.3063 60.4523 54.1683 59.9324 55.1067 59.593C56.0452 59.2536 57.0416 59.1015 58.0392 59.1453C59.0367 59.1891 60.0158 59.428 60.9205 59.8483C64.7189 61.6112 66.3668 66.1193 64.5945 69.8975C63.9811 71.2014 63.0071 72.3046 61.7864 73.078C60.5657 73.8515 59.1487 74.2631 57.7014 74.2647H57.6991ZM57.707 61.089C56.4226 61.0875 55.1762 61.5222 54.1739 62.3212C53.1716 63.1202 52.4735 64.2355 52.1951 65.4827C51.9166 66.7299 52.0746 68.0343 52.6427 69.1801C53.2109 70.326 54.1552 71.2445 55.3196 71.784C56.0842 72.1368 56.9187 72.3146 57.7615 72.3043C58.6044 72.294 59.4342 72.0958 60.1899 71.7244C60.9456 71.3529 61.608 70.8177 62.1282 70.158C62.6484 69.4983 63.0134 68.7309 63.1961 67.9124C63.3788 67.0939 63.3747 66.2451 63.184 65.4284C62.9933 64.6116 62.621 63.8479 62.0943 63.1932C61.5677 62.5385 60.9002 62.0097 60.1409 61.6455C59.3817 61.2813 58.55 61.0912 57.707 61.089Z" fill="#232C34"/>
<path d="M27.7546 62.9146C27.4951 62.9146 27.2461 62.8123 27.0621 62.6302C26.8781 62.4481 26.7741 62.2009 26.7729 61.9427L26.7631 59.7572C25.5115 59.4693 24.3148 58.9826 23.2191 58.3157L21.6717 59.8693C21.581 59.9604 21.4731 60.0328 21.3542 60.0825C21.2353 60.1321 21.1078 60.158 20.9788 60.1586C20.8499 60.1592 20.7221 60.1345 20.6028 60.086C20.4834 60.0375 20.3749 59.966 20.2833 59.8758L17.8056 57.4317C17.714 57.3415 17.6411 57.2342 17.5912 57.1159C17.5413 56.9977 17.5153 56.8708 17.5147 56.7426C17.5141 56.6143 17.5389 56.4872 17.5877 56.3685C17.6365 56.2498 17.7083 56.1418 17.799 56.0507L19.3464 54.4971C18.6656 53.4134 18.1649 52.2277 17.8636 50.9854L15.6664 50.9957H15.6617C15.402 50.9957 15.153 50.8934 14.969 50.7111C14.785 50.5289 14.6811 50.2816 14.68 50.0234L14.6641 46.5512C14.6635 46.423 14.6882 46.2959 14.737 46.1772C14.7858 46.0584 14.8576 45.9505 14.9483 45.8593C15.039 45.7682 15.1469 45.6958 15.2658 45.6462C15.3847 45.5965 15.5122 45.5707 15.6411 45.5701L17.8383 45.5603C18.1277 44.3154 18.6171 43.125 19.2875 42.0351L17.7233 40.496C17.6317 40.4057 17.5589 40.2984 17.509 40.1802C17.4591 40.0619 17.4331 39.935 17.4325 39.8068C17.4318 39.6786 17.4566 39.5514 17.5054 39.4327C17.5542 39.314 17.626 39.206 17.7168 39.1149L20.1739 36.6504C20.2646 36.5593 20.3725 36.4869 20.4914 36.4373C20.6103 36.3877 20.7379 36.3619 20.8668 36.3613C20.9958 36.3608 21.1235 36.3855 21.2429 36.4341C21.3622 36.4826 21.4707 36.5541 21.5623 36.6444L23.1242 38.1835C24.2136 37.5066 25.4055 37.0087 26.6542 36.709L26.6439 34.5235C26.6433 34.3952 26.6681 34.2681 26.7169 34.1494C26.7657 34.0306 26.8375 33.9226 26.9283 33.8315C27.0191 33.7404 27.127 33.6679 27.2459 33.6183C27.3648 33.5687 27.4924 33.5429 27.6214 33.5424L31.1121 33.5266H31.1168C31.3764 33.5265 31.6254 33.6288 31.8093 33.8109C31.9933 33.993 32.0973 34.2402 32.0985 34.4984L32.1083 36.6839C33.3599 36.9718 34.5566 37.4585 35.6524 38.1254L37.1997 36.5718C37.383 36.3879 37.6322 36.2838 37.8925 36.2826H37.8972C38.156 36.2826 38.4043 36.3842 38.5882 36.5653L41.0658 39.0094C41.1574 39.0996 41.2302 39.207 41.2801 39.3252C41.3299 39.4435 41.3559 39.5704 41.3565 39.6986C41.357 39.8269 41.3322 39.954 41.2834 40.0727C41.2346 40.1914 41.1627 40.2993 41.0719 40.3904L39.5283 41.9431C40.2089 43.0266 40.7094 44.2122 41.0107 45.4543L43.2079 45.444H43.2125C43.4722 45.444 43.7213 45.5463 43.9052 45.7286C44.0892 45.9108 44.1932 46.1581 44.1943 46.4164L44.2102 49.8885C44.2108 50.0167 44.186 50.1438 44.1372 50.2626C44.0885 50.3813 44.0167 50.4893 43.9259 50.5804C43.8352 50.6715 43.7273 50.7439 43.6085 50.7936C43.4896 50.8432 43.362 50.869 43.2331 50.8697L41.0359 50.8794C40.7465 52.1243 40.2572 53.3147 39.5867 54.4046L41.1486 55.9437C41.2402 56.034 41.313 56.1413 41.3629 56.2596C41.4128 56.3778 41.4388 56.5047 41.4394 56.6329C41.4401 56.7612 41.4153 56.8883 41.3665 57.007C41.3177 57.1257 41.2459 57.2337 41.1551 57.3248L38.698 59.7893C38.6073 59.8804 38.4994 59.9529 38.3805 60.0025C38.2616 60.0521 38.1341 60.078 38.0052 60.0786C37.8762 60.0792 37.7484 60.0545 37.6291 60.006C37.5098 59.9575 37.4012 59.8861 37.3096 59.7958L35.7477 58.2566C34.6577 58.9342 33.4649 59.4324 32.2154 59.7321L32.2257 61.9176C32.2263 62.0459 32.2015 62.173 32.1527 62.2917C32.1039 62.4105 32.0321 62.5185 31.9413 62.6096C31.8505 62.7007 31.7426 62.7732 31.6236 62.8228C31.5047 62.8724 31.3771 62.8982 31.2482 62.8987L27.7574 62.9146H27.7546ZM23.0891 56.0818C23.2941 56.0821 23.4939 56.1462 23.6604 56.2651C24.9174 57.1579 26.3663 57.747 27.8921 57.9856C28.1228 58.0213 28.3331 58.1376 28.4854 58.3137C28.6376 58.4897 28.7218 58.714 28.7228 58.9462L28.7321 60.9574L30.2594 60.9504L30.2501 58.9388C30.2491 58.7067 30.3312 58.4819 30.4817 58.3046C30.6322 58.1272 30.8413 58.009 31.0715 57.9711C32.5951 57.718 34.0386 57.1153 35.2872 56.2106C35.4755 56.0736 35.7066 56.0076 35.9393 56.0247C36.172 56.0417 36.3909 56.1406 36.5569 56.3036L37.994 57.72L39.0692 56.6403L37.6326 55.2244C37.4669 55.0611 37.365 54.8443 37.3453 54.6131C37.3256 54.3818 37.3893 54.1511 37.5251 53.9624C38.4227 52.7121 39.015 51.2709 39.2548 49.7532C39.2907 49.5237 39.4077 49.3145 39.5847 49.1631C39.7617 49.0116 39.9872 48.9279 40.2206 48.9269L42.2425 48.9176L42.2355 47.3984L40.2136 47.4077H40.2094C39.9772 47.4078 39.7524 47.3261 39.5751 47.1769C39.3977 47.0277 39.2793 46.8209 39.2408 46.5931C38.9863 45.0775 38.3803 43.6417 37.4709 42.3997C37.3331 42.2125 37.2668 41.9825 37.2839 41.7511C37.301 41.5197 37.4005 41.3019 37.5644 41.1367L38.9883 39.7073L37.9033 38.6378L36.4793 40.0668C36.3151 40.2317 36.0973 40.333 35.8648 40.3526C35.6323 40.3722 35.4003 40.3088 35.2106 40.1737C33.9536 39.2809 32.5047 38.6918 30.9789 38.4532C30.7482 38.4175 30.5378 38.3012 30.3856 38.1251C30.2333 37.949 30.1492 37.7248 30.1482 37.4925L30.1388 35.4814L28.6115 35.4884L28.6209 37.4995C28.622 37.7317 28.54 37.9566 28.3894 38.134C28.2389 38.3115 28.0298 38.4297 27.7995 38.4676C26.2758 38.7207 24.8324 39.3235 23.5837 40.2281C23.3955 40.3652 23.1643 40.4312 22.9317 40.4141C22.699 40.3971 22.48 40.2982 22.314 40.1351L20.8788 38.7164L19.8036 39.7957L21.2402 41.2121C21.406 41.3754 21.5079 41.5921 21.5276 41.8234C21.5473 42.0547 21.4835 42.2853 21.3477 42.4741C20.4501 43.7244 19.8579 45.1656 19.618 46.6833C19.5821 46.9127 19.4652 47.122 19.2882 47.2734C19.1112 47.4248 18.8857 47.5086 18.6522 47.5096L16.6303 47.5189L16.6373 49.038L18.6597 49.0287H18.6639C18.8967 49.0289 19.1219 49.1114 19.2993 49.2615C19.4766 49.4116 19.5946 49.6195 19.6321 49.8481C19.8865 51.3636 20.4925 52.7994 21.402 54.0414C21.5398 54.2287 21.6061 54.4586 21.5889 54.69C21.5718 54.9214 21.4724 55.1392 21.3085 55.3044L19.8826 56.7301L20.9677 57.7996L22.3916 56.3706C22.483 56.2791 22.5917 56.2066 22.7114 56.1571C22.8311 56.1076 22.9595 56.0822 23.0891 56.0823V56.0818Z" fill="#232C34"/>
<path d="M29.4349 55.361C27.5402 55.3507 25.7265 54.5959 24.3889 53.2612C23.0513 51.9265 22.2983 50.12 22.294 48.2354C22.2896 46.3508 23.0344 44.541 24.3658 43.2002C25.6973 41.8594 27.5076 41.0965 29.4021 41.0776H29.4367C31.3313 41.0879 33.1451 41.8428 34.4826 43.1775C35.8201 44.5123 36.5731 46.3188 36.5773 48.2034C36.5816 50.0879 35.8368 51.8978 34.5053 53.2385C33.1738 54.5792 31.3635 55.3421 29.469 55.361L29.4643 54.3845L29.469 55.361H29.4349ZM29.4349 43.0306H29.4096C28.0345 43.0462 26.7212 43.6014 25.7554 44.5752C24.7896 45.5491 24.2495 46.8629 24.2526 48.2308C24.2557 49.5987 24.8017 50.9101 25.7718 51.8796C26.742 52.8492 28.0578 53.3985 29.433 53.408H29.4578C30.8329 53.3923 32.1462 52.8372 33.112 51.8633C34.0778 50.8895 34.6178 49.5757 34.6148 48.2078C34.6117 46.8398 34.0657 45.5285 33.0955 44.5589C32.1254 43.5894 30.8096 43.0401 29.4344 43.0306H29.4349Z" fill="#232C34"/>
</svg>
