<svg width="509" height="630" viewBox="0 0 509 630" fill="none" xmlns="http://www.w3.org/2000/svg">
<path d="M208.731 395.96H182.64C177.59 395.96 174.223 400.2 174.223 404.439C174.223 409.526 178.432 412.918 182.64 412.918H201.156H214.622C219.672 412.918 223.039 408.679 223.039 404.439C223.039 399.352 218.831 395.96 214.622 395.96H208.731ZM164.965 361.197C164.124 361.197 164.124 361.197 163.282 361.197C159.074 362.045 156.549 365.437 156.549 369.676C156.549 373.068 159.074 376.459 161.599 377.307C162.44 378.155 164.124 378.155 164.965 378.155H225.564C230.614 378.155 233.98 373.916 233.98 369.676C233.98 364.589 229.772 361.197 225.564 361.197H164.965ZM245.764 369.676C245.764 374.763 249.972 378.155 254.18 378.155C259.23 378.155 262.597 373.916 262.597 369.676C262.597 364.589 258.388 361.197 254.18 361.197C249.972 361.197 245.764 365.437 245.764 369.676ZM209.573 326.434H147.291C142.241 326.434 138.874 330.674 138.874 334.913C138.874 340 143.082 343.392 147.291 343.392H175.065H288.688C293.738 343.392 297.104 339.152 297.104 334.913C297.104 329.826 292.896 326.434 288.688 326.434H209.573ZM205.364 309.477H326.562C329.928 310.325 332.453 313.716 332.453 317.955C332.453 323.043 328.245 326.434 324.037 326.434H315.62C310.571 326.434 307.204 330.674 307.204 334.913C307.204 340 311.412 343.392 315.62 343.392H376.219C381.269 343.392 384.636 347.631 384.636 351.871C384.636 356.11 380.427 360.349 376.219 360.349H281.113C276.063 360.349 272.696 364.589 272.696 368.828C272.696 373.916 276.905 377.307 281.113 377.307H346.761C351.811 377.307 355.178 381.546 355.178 385.786C355.178 390.873 350.97 394.265 346.761 394.265H239.872C234.822 394.265 231.455 398.504 231.455 402.743C231.455 407.831 235.664 411.222 239.872 411.222H413.252C451.126 411.222 481.425 380.699 481.425 342.544C481.425 329.826 478.059 317.955 472.167 306.933H473.009C461.226 286.584 438.501 273.018 413.252 273.018C408.202 273.018 402.31 273.866 397.26 274.714C391.369 261.148 382.952 249.277 372.853 239.951C372.011 239.103 371.169 238.255 370.328 238.255C369.486 237.407 368.644 236.559 367.803 235.711C350.97 221.297 329.087 212.818 304.679 212.818C251.655 215.362 207.889 256.908 205.364 309.477Z" fill="#3D4DB6"/>
<path d="M0 314.563L27.7744 305.236V274.713L45.4491 299.301L74.0652 289.974L56.3905 314.563L74.0652 338.304L45.4491 329.825L27.7744 353.565V323.89L0 314.563Z" fill="#3D4DB6"/>
<path d="M37.0308 453.616L64.8052 445.138V414.614L82.4798 439.203L110.254 429.028L93.4213 453.616L110.254 478.205L82.4798 468.878L64.8052 492.619V462.943L37.0308 453.616Z" fill="#3D4DB6"/>
<path d="M138.029 556.209L165.804 546.883V516.359L183.478 540.947L211.253 531.621L194.42 555.361L211.253 579.95L183.478 570.623L165.804 595.212V564.688L138.029 556.209Z" fill="#3D4DB6"/>
<path d="M37.0308 175.511L65.6469 165.336V135.661L83.3215 160.249L111.096 150.922L93.4213 175.511L111.096 199.252L83.3215 189.925L65.6469 214.513V184.838L37.0308 175.511Z" fill="#3D4DB6"/>
<path d="M164.124 38.1541L181.799 62.7426L209.573 53.4159L191.898 77.1565L209.573 101.745L181.799 92.4184L164.124 117.007V86.4832L136.35 78.0044L164.124 68.6777V38.1541Z" fill="#3D4DB6"/>
<path d="M302.995 0L319.828 24.5885L348.444 15.2618L330.769 39.0025L348.444 63.591L319.828 54.2643L302.153 78.005V48.3292L274.379 39.0025L302.153 29.6758L302.995 0Z" fill="#3D4DB6"/>
<path d="M481.423 50.8737L463.748 75.4622L481.423 99.2028L453.648 89.8762L435.974 114.465V84.7889L408.199 75.4622L435.974 66.1355V36.4597L453.648 60.2004L481.423 50.8737Z" fill="#3D4DB6"/>
<path d="M303.835 629.128V599.452L275.219 589.277L303.835 579.951L302.993 550.275L320.668 574.863L348.442 565.537L331.609 589.277L349.284 613.866L320.668 604.539L303.835 629.128Z" fill="#3D4DB6"/>
<path d="M481.424 577.405L453.65 568.079L435.975 592.667V562.992L407.359 553.665L435.975 544.338V514.662L453.65 538.403L481.424 529.076L463.749 553.665L481.424 577.405Z" fill="#3D4DB6"/>
</svg>
