<svg width="600" height="600" viewBox="0 0 600 600" fill="none" xmlns="http://www.w3.org/2000/svg">
<path d="M201.628 377.628H176.424C171.546 377.628 168.294 381.671 168.294 385.714C168.294 390.566 172.359 393.801 176.424 393.801H194.31H207.319C212.197 393.801 215.449 389.758 215.449 385.714C215.449 380.863 211.384 377.628 207.319 377.628H201.628ZM159.351 344.475C158.538 344.475 158.538 344.475 157.725 344.475C153.66 345.283 151.221 348.518 151.221 352.561C151.221 355.795 153.66 359.03 156.099 359.838C156.912 360.647 158.538 360.647 159.351 360.647H217.888C222.766 360.647 226.018 356.604 226.018 352.561C226.018 347.709 221.953 344.475 217.888 344.475H159.351ZM237.4 352.561C237.4 357.413 241.465 360.647 245.53 360.647C250.408 360.647 253.66 356.604 253.66 352.561C253.66 347.709 249.595 344.475 245.53 344.475C241.465 344.475 237.4 348.518 237.4 352.561ZM202.441 311.321H142.278C137.4 311.321 134.148 315.364 134.148 319.407C134.148 324.259 138.213 327.493 142.278 327.493H169.107H278.863C283.741 327.493 286.993 323.45 286.993 319.407C286.993 314.555 282.928 311.321 278.863 311.321H202.441ZM198.375 295.149H315.448C318.7 295.957 321.14 299.192 321.14 303.235C321.14 308.086 317.074 311.321 313.009 311.321H304.879C300.001 311.321 296.749 315.364 296.749 319.407C296.749 324.259 300.814 327.493 304.879 327.493H363.416C368.294 327.493 371.546 331.537 371.546 335.58C371.546 339.623 367.481 343.666 363.416 343.666H271.546C266.668 343.666 263.416 347.709 263.416 351.752C263.416 356.604 267.481 359.838 271.546 359.838H334.961C339.839 359.838 343.091 363.882 343.091 367.925C343.091 372.776 339.026 376.011 334.961 376.011H231.709C226.831 376.011 223.579 380.054 223.579 384.097C223.579 388.949 227.644 392.183 231.709 392.183H399.188C435.773 392.183 465.042 363.073 465.042 326.685C465.042 314.556 461.79 303.235 456.099 292.723H456.912C445.53 273.316 423.578 260.378 399.188 260.378C394.31 260.378 388.619 261.186 383.741 261.995C378.05 249.057 369.92 237.736 360.164 228.841C359.351 228.033 358.538 227.224 357.725 227.224C356.912 226.415 356.099 225.607 355.286 224.798C339.026 211.052 317.887 202.965 294.31 202.965C243.091 205.391 200.815 245.014 198.375 295.149Z" fill="#3D4DB6"/>
<path d="M0 299.999L26.8292 291.104V261.994L43.9024 285.444L71.5446 276.549L54.4715 299.999L71.5446 322.641L43.9024 314.554L26.8292 337.196V308.894L0 299.999Z" fill="#3D4DB6"/>
<path d="M35.7705 432.615L62.5997 424.529V395.418L79.6729 418.868L106.502 409.165L90.242 432.615L106.502 456.065L79.6729 447.17L62.5997 469.812V441.51L35.7705 432.615Z" fill="#3D4DB6"/>
<path d="M133.332 530.458L160.161 521.563V492.452L177.234 515.902L204.064 507.008L187.803 529.649L204.064 553.099L177.234 544.204L160.161 567.654V538.544L133.332 530.458Z" fill="#3D4DB6"/>
<path d="M35.7705 167.385L63.4127 157.682V129.38L80.4859 152.83L107.315 143.935L90.242 167.385L107.315 190.027L80.4859 181.132L63.4127 204.582V176.28L35.7705 167.385Z" fill="#3D4DB6"/>
<path d="M158.539 36.3877L175.612 59.8378L202.441 50.9429L185.368 73.5844L202.441 97.0345L175.612 88.1397L158.539 111.59V82.4793L131.709 74.393L158.539 65.4982V36.3877Z" fill="#3D4DB6"/>
<path d="M292.684 0L308.944 23.4501L336.586 14.5552L319.513 37.1967L336.586 60.6468L308.944 51.752L291.871 74.3934V46.0916L265.041 37.1967L291.871 28.3019L292.684 0Z" fill="#3D4DB6"/>
<path d="M465.039 48.5183L447.966 71.9684L465.039 94.6099L438.21 85.7151L421.137 109.165V80.8633L394.308 71.9684L421.137 63.0736V34.7717L438.21 57.4132L465.039 48.5183Z" fill="#3D4DB6"/>
<path d="M600 320.216L572.358 312.13L555.285 334.771V306.47L528.455 297.575L555.285 288.68V260.378L572.358 283.019L600 274.933L582.927 297.575L600 320.216Z" fill="#3D4DB6"/>
<path d="M564.225 453.638L536.583 444.743L520.322 468.193V439.083L492.68 430.997L520.322 422.102L519.509 393.8L536.583 416.441L564.225 407.546L547.152 430.997L564.225 453.638Z" fill="#3D4DB6"/>
<path d="M563.412 145.553L547.152 169.003L563.412 191.644L535.77 182.749L519.509 206.199V177.089L492.68 169.003L519.509 160.108V131.806L536.583 154.447L563.412 145.553Z" fill="#3D4DB6"/>
<path d="M293.495 600V571.698L265.853 561.995L293.495 553.1L292.682 524.798L309.755 548.248L336.584 539.353L320.324 561.995L337.397 585.445L309.755 576.55L293.495 600Z" fill="#3D4DB6"/>
<path d="M465.04 550.672L438.211 541.778L421.138 565.228V536.926L393.496 528.031L421.138 519.136V490.834L438.211 513.476L465.04 504.581L447.967 528.031L465.04 550.672Z" fill="#3D4DB6"/>
</svg>
