<?xml version="1.0" encoding="UTF-8"?>
<svg xmlns="http://www.w3.org/2000/svg" xmlns:xlink="http://www.w3.org/1999/xlink" width="12px" height="12px" viewBox="0 0 12 12" version="1.1">
<g id="surface1">
<path style=" stroke:none;fill-rule:nonzero;fill:rgb(40%,40%,40%);fill-opacity:1;" d="M 0.00390625 2.894531 C 0.00390625 2.105469 0.00390625 1.316406 0.00390625 0.527344 C 0.00390625 0.171875 0.171875 0.00390625 0.53125 0.00390625 C 2.117188 0 3.707031 0.00390625 5.292969 0 C 5.472656 0 5.613281 0.0585938 5.742188 0.1875 C 7.753906 2.199219 9.765625 4.210938 11.777344 6.226562 C 12.074219 6.519531 12.070312 6.8125 11.777344 7.105469 C 10.21875 8.664062 8.660156 10.222656 7.105469 11.78125 C 6.816406 12.070312 6.515625 12.074219 6.234375 11.785156 C 4.222656 9.777344 2.21875 7.765625 0.203125 5.761719 C 0.0625 5.617188 0 5.464844 0 5.265625 C 0.0078125 4.472656 0.00390625 3.683594 0.00390625 2.894531 Z M 1.5625 2.445312 C 1.5625 2.9375 1.953125 3.332031 2.441406 3.332031 C 2.9375 3.332031 3.332031 2.9375 3.332031 2.449219 C 3.335938 1.953125 2.9375 1.558594 2.441406 1.5625 C 1.953125 1.5625 1.5625 1.957031 1.5625 2.445312 Z M 1.5625 2.445312 "/>
</g>
</svg>
