<svg width="86" height="86" viewBox="0 0 86 86" fill="none" xmlns="http://www.w3.org/2000/svg">
<path d="M74.9924 59.7269H11.0084C10.8031 59.7269 10.6062 59.6454 10.4611 59.5002C10.3159 59.3551 10.2344 59.1582 10.2344 58.9529V14.5473C10.2344 14.342 10.3159 14.1451 10.4611 14C10.6062 13.8548 10.8031 13.7733 11.0084 13.7733H74.9924C75.1977 13.7733 75.3945 13.8548 75.5397 14C75.6848 14.1451 75.7664 14.342 75.7664 14.5473V58.9529C75.7664 59.1582 75.6848 59.3551 75.5397 59.5002C75.3945 59.6454 75.1977 59.7269 74.9924 59.7269ZM11.7824 58.1789H74.2184V15.3213H11.7824V58.1789Z" fill="#232C34"/>
<path d="M74.9924 52.1589H11.0084C10.8031 52.1589 10.6062 52.0774 10.4611 51.9322C10.3159 51.7871 10.2344 51.5902 10.2344 51.3849V14.5473C10.2344 14.342 10.3159 14.1451 10.4611 14C10.6062 13.8548 10.8031 13.7733 11.0084 13.7733H74.9924C75.1977 13.7733 75.3945 13.8548 75.5397 14C75.6848 14.1451 75.7664 14.342 75.7664 14.5473V51.3849C75.7664 51.5902 75.6848 51.7871 75.5397 51.9322C75.3945 52.0774 75.1977 52.1589 74.9924 52.1589ZM11.7824 50.6109H74.2184V15.3213H11.7824V50.6109Z" fill="#232C34"/>
<path d="M38.2847 66.3529C38.0795 66.3529 37.8826 66.2713 37.7374 66.1262C37.5923 65.981 37.5107 65.7842 37.5107 65.5789V58.953C37.5107 58.7477 37.5923 58.5509 37.7374 58.4057C37.8826 58.2606 38.0795 58.179 38.2847 58.179C38.49 58.179 38.6869 58.2606 38.832 58.4057C38.9772 58.5509 39.0587 58.7477 39.0587 58.953V65.5789C39.0587 65.7842 38.9772 65.981 38.832 66.1262C38.6869 66.2713 38.49 66.3529 38.2847 66.3529Z" fill="#232C34"/>
<path d="M47.7154 66.3529C47.5101 66.3529 47.3133 66.2713 47.1681 66.1262C47.023 65.981 46.9414 65.7842 46.9414 65.5789V58.953C46.9414 58.7477 47.023 58.5509 47.1681 58.4057C47.3133 58.2606 47.5101 58.179 47.7154 58.179C47.9207 58.179 48.1176 58.2606 48.2627 58.4057C48.4079 58.5509 48.4894 58.7477 48.4894 58.953V65.5789C48.4894 65.7842 48.4079 65.981 48.2627 66.1262C48.1176 66.2713 47.9207 66.3529 47.7154 66.3529Z" fill="#232C34"/>
<path d="M59.5657 72.2262H26.4342C26.2289 72.2262 26.032 72.1447 25.8869 71.9995C25.7417 71.8544 25.6602 71.6575 25.6602 71.4522V65.5789C25.6602 65.3736 25.7417 65.1767 25.8869 65.0316C26.032 64.8864 26.2289 64.8049 26.4342 64.8049H59.5657C59.7709 64.8049 59.9678 64.8864 60.113 65.0316C60.2581 65.1767 60.3397 65.3736 60.3397 65.5789V71.4522C60.3397 71.6575 60.2581 71.8544 60.113 71.9995C59.9678 72.1447 59.7709 72.2262 59.5657 72.2262ZM27.2082 70.6782H58.7917V66.3529H27.2082V70.6782Z" fill="#232C34"/>
<path d="M43.0981 35.3748C42.9898 35.3749 42.8827 35.3522 42.7838 35.3082L25.8968 27.8C25.7598 27.739 25.6434 27.6395 25.5618 27.5135C25.4803 27.3876 25.4371 27.2407 25.4375 27.0907C25.4379 26.9407 25.4819 26.794 25.5641 26.6686C25.6464 26.5431 25.7633 26.4442 25.9007 26.384L42.5924 19.071C42.6908 19.0276 42.7972 19.0051 42.9048 19.0051C43.0124 19.0051 43.1188 19.0276 43.2172 19.071L60.1042 26.5792C60.2412 26.6402 60.3576 26.7397 60.4392 26.8656C60.5207 26.9915 60.5639 27.1384 60.5635 27.2885C60.5631 27.4385 60.5191 27.5851 60.4368 27.7106C60.3546 27.8361 60.2377 27.9349 60.1003 27.9952L43.4086 35.3095C43.3107 35.3525 43.205 35.3747 43.0981 35.3748ZM28.1281 27.0978L43.1003 33.755L57.8729 27.2831L42.9007 20.6263L28.1281 27.0978Z" fill="#232C34"/>
<path d="M43.098 43.2364C42.9905 43.2368 42.884 43.2148 42.7854 43.1719L31.0125 37.9362C30.8249 37.8529 30.678 37.6984 30.6043 37.5068C30.5306 37.3152 30.5361 37.1021 30.6194 36.9145C30.7028 36.7269 30.8573 36.5801 31.0489 36.5064C31.2405 36.4327 31.4535 36.4382 31.6411 36.5215L43.1006 41.6162L54.3632 36.6819C54.4563 36.6411 54.5566 36.6191 54.6583 36.617C54.76 36.615 54.8611 36.633 54.9559 36.67C55.0506 36.7071 55.1371 36.7624 55.2104 36.8329C55.2838 36.9033 55.3425 36.9876 55.3833 37.0807C55.4241 37.1739 55.4462 37.2742 55.4482 37.3759C55.4503 37.4776 55.4322 37.5787 55.3952 37.6734C55.3582 37.7682 55.3029 37.8547 55.2324 37.928C55.1619 38.0014 55.0777 38.0601 54.9845 38.1009L43.4089 43.1719C43.3109 43.2147 43.205 43.2366 43.098 43.2364Z" fill="#232C34"/>
<path d="M51.6028 44.0917C51.3975 44.0917 51.2006 44.0101 51.0555 43.865C50.9103 43.7198 50.8288 43.523 50.8288 43.3177V31.3749L41.5705 27.2585C41.4775 27.2172 41.3936 27.158 41.3235 27.0843C41.2535 27.0106 41.1986 26.9238 41.162 26.8289C41.1255 26.734 41.108 26.6328 41.1106 26.5311C41.1132 26.4295 41.1357 26.3293 41.177 26.2364C41.2183 26.1434 41.2775 26.0595 41.3512 25.9894C41.4249 25.9194 41.5117 25.8645 41.6066 25.8279C41.7015 25.7914 41.8027 25.7739 41.9043 25.7765C42.006 25.7791 42.1062 25.8016 42.1991 25.8429L51.9171 30.164C52.0544 30.225 52.1709 30.3246 52.2525 30.4506C52.3341 30.5767 52.3773 30.7237 52.3768 30.8739V43.3198C52.3762 43.5247 52.2944 43.721 52.1493 43.8657C52.0042 44.0104 51.8077 44.0917 51.6028 44.0917Z" fill="#232C34"/>
<path d="M51.6032 46.9267C51.1694 46.9267 50.7454 46.7981 50.3848 46.5571C50.0242 46.3162 49.7431 45.9737 49.5771 45.5729C49.4111 45.1722 49.3677 44.7313 49.4523 44.3059C49.5369 43.8805 49.7458 43.4897 50.0525 43.183C50.3592 42.8763 50.7499 42.6675 51.1753 42.5828C51.6007 42.4982 52.0417 42.5417 52.4424 42.7076C52.8431 42.8736 53.1856 43.1547 53.4266 43.5153C53.6675 43.876 53.7962 44.3 53.7962 44.7337C53.7962 45.3153 53.5651 45.8731 53.1538 46.2844C52.7426 46.6957 52.1848 46.9267 51.6032 46.9267ZM51.6032 44.0917C51.4756 44.0917 51.3509 44.1296 51.2448 44.2004C51.1387 44.2713 51.0561 44.372 51.0073 44.4899C50.9584 44.6078 50.9457 44.7374 50.9706 44.8626C50.9954 44.9877 51.0569 45.1026 51.1471 45.1928C51.2373 45.283 51.3522 45.3444 51.4773 45.3693C51.6024 45.3942 51.7321 45.3814 51.85 45.3326C51.9678 45.2838 52.0686 45.2011 52.1395 45.0951C52.2103 44.989 52.2482 44.8643 52.2482 44.7367C52.2482 44.5657 52.1802 44.4016 52.0592 44.2806C51.9383 44.1597 51.7742 44.0917 51.6032 44.0917Z" fill="#232C34"/>
<path d="M31.3267 38.003C31.1215 38.003 30.9246 37.9215 30.7794 37.7763C30.6343 37.6312 30.5527 37.4343 30.5527 37.229V29.369C30.5527 29.1638 30.6343 28.9669 30.7794 28.8217C30.9246 28.6766 31.1215 28.595 31.3267 28.595C31.532 28.595 31.7289 28.6766 31.874 28.8217C32.0192 28.9669 32.1007 29.1638 32.1007 29.369V37.229C32.1007 37.4343 32.0192 37.6312 31.874 37.7763C31.7289 37.9215 31.532 38.003 31.3267 38.003Z" fill="#232C34"/>
<path d="M54.6734 38.1651C54.4681 38.1651 54.2713 38.0835 54.1261 37.9384C53.981 37.7932 53.8994 37.5963 53.8994 37.3911V29.5294C53.8994 29.3241 53.981 29.1272 54.1261 28.9821C54.2713 28.8369 54.4681 28.7554 54.6734 28.7554C54.8787 28.7554 55.0756 28.8369 55.2207 28.9821C55.3659 29.1272 55.4474 29.3241 55.4474 29.5294V37.3911C55.4474 37.5963 55.3659 37.7932 55.2207 37.9384C55.0756 38.0835 54.8787 38.1651 54.6734 38.1651Z" fill="#232C34"/>
</svg>
