<svg width="15" height="15" viewBox="0 0 15 15" fill="none" xmlns="http://www.w3.org/2000/svg">
<g clip-path="url(#clip0_326_17892)">
<path d="M10.9672 10.0159L12.2289 10.0159C12.9258 10.0159 13.4907 9.40585 13.4907 8.65326L13.4907 3.88387C13.4907 3.13128 12.9258 2.52119 12.2289 2.52119L10.9672 2.52119C10.2703 2.52119 9.70537 3.13128 9.70537 3.88387L9.70537 8.65326C9.70537 9.40585 10.2703 10.0159 10.9672 10.0159Z" stroke="#144B9E" stroke-width="1.2" stroke-linecap="round" stroke-linejoin="round"/>
<path d="M4.73591 1.83984L7.04863 1.83984C7.54684 1.83984 8.03391 1.99911 8.44845 2.29757L9.42444 3.00026C9.59995 3.12663 9.70537 3.33936 9.70537 3.56717L9.70537 9.15366C9.70537 9.27224 9.67672 9.38875 9.62225 9.4917L7.18181 14.104L6.34354 14.104C5.08382 14.104 4.33244 12.5878 5.03121 11.4558L5.92003 10.0159L2.48896 10.0159C1.66809 10.0159 1.06576 9.18282 1.26486 8.32276L2.2877 3.90421C2.56855 2.69097 3.57793 1.83984 4.73591 1.83984Z" stroke="#144B9E" stroke-width="1.2" stroke-linecap="round" stroke-linejoin="round"/>
</g>
<defs>
<clipPath id="clip0_326_17892">
<rect width="14.717" height="14.717" fill="white"/>
</clipPath>
</defs>
</svg>
