<svg width="34" height="34" viewBox="0 0 34 34" fill="none" xmlns="http://www.w3.org/2000/svg">
<path d="M17.0044 0C26.3892 0 34.0089 7.62161 34 17.0089C34 26.4139 26.3715 34.0089 16.9335 34C7.59301 33.9911 0 26.3518 0 16.9645C0.00887034 7.61273 7.63736 0 17.0044 0ZM16.9956 27.6294C19.293 27.6294 21.5993 27.6294 23.8967 27.6294C24.4821 27.6294 24.7926 27.3899 24.7926 26.8841C24.7926 25.6331 24.8458 24.3732 24.7128 23.131C24.3047 19.3779 21.1203 16.4588 17.3504 16.3079C13.5273 16.1482 10.0856 18.7923 9.41143 22.5454C9.1808 23.8408 9.26063 25.1895 9.22515 26.5115C9.19854 27.452 9.40256 27.6294 10.3162 27.6294C12.5427 27.6294 14.7691 27.6294 16.9956 27.6294ZM17.0044 6.37943C14.6627 6.37943 12.7555 8.3048 12.7555 10.6383C12.7644 12.9718 14.6893 14.8883 17.0222 14.8706C19.3373 14.8617 21.2356 12.9541 21.2445 10.6294C21.2533 8.3048 19.3373 6.37943 17.0044 6.37943Z" fill="#EDF4FF"/>
<path d="M16.9955 27.6296C14.769 27.6296 12.5426 27.6296 10.3161 27.6296C9.39361 27.6296 9.19846 27.4433 9.22507 26.5117C9.26056 25.1897 9.18072 23.841 9.41135 22.5456C10.0855 18.7925 13.5272 16.1484 17.3503 16.3081C21.1202 16.459 24.3046 19.3781 24.7127 23.1312C24.8457 24.3734 24.7925 25.6333 24.7925 26.8843C24.7925 27.3901 24.4821 27.6296 23.8966 27.6296C21.5903 27.6296 19.2929 27.6296 16.9955 27.6296Z" fill="#3D4DB6"/>
<path d="M17.0047 6.37988C19.3376 6.37988 21.2624 8.29638 21.2536 10.6388C21.2447 12.9634 19.3464 14.8621 17.0313 14.8799C14.6984 14.8888 12.7646 12.9811 12.7646 10.6476C12.7469 8.30525 14.6629 6.37988 17.0047 6.37988Z" fill="#3D4DB6"/>
</svg>
