<svg width="16" height="16" viewBox="0 0 16 16" fill="none" xmlns="http://www.w3.org/2000/svg">
<path fill-rule="evenodd" clip-rule="evenodd" d="M13.7575 7.70834C13.3841 7.06084 11.3308 3.81167 7.84246 3.91667C4.61663 3.99834 2.74996 6.83334 2.24246 7.70834C2.13826 7.88882 2.13826 8.11119 2.24246 8.29167C2.60996 8.92751 4.57579 12.0833 8.01163 12.0833H8.15746C11.3833 12.0017 13.2558 9.16667 13.7575 8.29167C13.8617 8.11119 13.8617 7.88882 13.7575 7.70834ZM7.99996 10.0417C6.87238 10.0417 5.95829 9.12759 5.95829 8.00001C5.95829 6.87243 6.87238 5.95834 7.99996 5.95834C9.12754 5.95834 10.0416 6.87243 10.0416 8.00001C10.0416 9.12759 9.12754 10.0417 7.99996 10.0417ZM7.99996 8.87501C8.48321 8.87501 8.87496 8.48326 8.87496 8.00001C8.87496 7.51676 8.48321 7.12501 7.99996 7.12501C7.51671 7.12501 7.12496 7.51676 7.12496 8.00001C7.12496 8.48326 7.51671 8.87501 7.99996 8.87501Z" fill="#4F4F4F"/>
</svg>
